%TF.GenerationSoftware,KiCad,Pcbnew,9.0.3*%
%TF.CreationDate,2025-08-25T21:29:52+09:00*%
%TF.ProjectId,forty,666f7274-792e-46b6-9963-61645f706362,rev?*%
%TF.SameCoordinates,Original*%
%TF.FileFunction,Soldermask,Bot*%
%TF.FilePolarity,Negative*%
%FSLAX46Y46*%
G04 Gerber Fmt 4.6, Leading zero omitted, Abs format (unit mm)*
G04 Created by KiCad (PCBNEW 9.0.3) date 2025-08-25 21:29:52*
%MOMM*%
%LPD*%
G01*
G04 APERTURE LIST*
G04 Aperture macros list*
%AMRoundRect*
0 Rectangle with rounded corners*
0 $1 Rounding radius*
0 $2 $3 $4 $5 $6 $7 $8 $9 X,Y pos of 4 corners*
0 Add a 4 corners polygon primitive as box body*
4,1,4,$2,$3,$4,$5,$6,$7,$8,$9,$2,$3,0*
0 Add four circle primitives for the rounded corners*
1,1,$1+$1,$2,$3*
1,1,$1+$1,$4,$5*
1,1,$1+$1,$6,$7*
1,1,$1+$1,$8,$9*
0 Add four rect primitives between the rounded corners*
20,1,$1+$1,$2,$3,$4,$5,0*
20,1,$1+$1,$4,$5,$6,$7,0*
20,1,$1+$1,$6,$7,$8,$9,0*
20,1,$1+$1,$8,$9,$2,$3,0*%
G04 Aperture macros list end*
%ADD10C,6.400000*%
%ADD11O,1.000000X2.100000*%
%ADD12O,1.000000X1.600000*%
%ADD13R,0.600000X1.450000*%
%ADD14R,0.300000X1.450000*%
%ADD15C,0.650000*%
%ADD16C,1.900000*%
%ADD17C,3.000000*%
%ADD18R,3.200000X2.780000*%
%ADD19C,3.200000*%
%ADD20RoundRect,0.140000X0.140000X0.170000X-0.140000X0.170000X-0.140000X-0.170000X0.140000X-0.170000X0*%
%ADD21R,1.700000X0.825000*%
%ADD22RoundRect,0.150000X-0.150000X-0.200000X0.150000X-0.200000X0.150000X0.200000X-0.150000X0.200000X0*%
%ADD23RoundRect,0.150000X-0.150000X0.512500X-0.150000X-0.512500X0.150000X-0.512500X0.150000X0.512500X0*%
%ADD24RoundRect,0.135000X-0.135000X-0.185000X0.135000X-0.185000X0.135000X0.185000X-0.135000X0.185000X0*%
%ADD25RoundRect,0.140000X-0.140000X-0.170000X0.140000X-0.170000X0.140000X0.170000X-0.140000X0.170000X0*%
%ADD26RoundRect,0.150000X-0.200000X0.150000X-0.200000X-0.150000X0.200000X-0.150000X0.200000X0.150000X0*%
%ADD27RoundRect,0.135000X0.135000X0.185000X-0.135000X0.185000X-0.135000X-0.185000X0.135000X-0.185000X0*%
%ADD28RoundRect,0.140000X0.170000X-0.140000X0.170000X0.140000X-0.170000X0.140000X-0.170000X-0.140000X0*%
%ADD29RoundRect,0.142500X-0.332500X0.482500X-0.332500X-0.482500X0.332500X-0.482500X0.332500X0.482500X0*%
%ADD30RoundRect,0.135000X-0.185000X0.135000X-0.185000X-0.135000X0.185000X-0.135000X0.185000X0.135000X0*%
%ADD31RoundRect,0.250000X0.450000X0.350000X-0.450000X0.350000X-0.450000X-0.350000X0.450000X-0.350000X0*%
%ADD32RoundRect,0.125000X-0.125000X0.200000X-0.125000X-0.200000X0.125000X-0.200000X0.125000X0.200000X0*%
%ADD33R,4.300000X3.400000*%
%ADD34RoundRect,0.050000X0.387500X0.050000X-0.387500X0.050000X-0.387500X-0.050000X0.387500X-0.050000X0*%
%ADD35RoundRect,0.050000X0.050000X0.387500X-0.050000X0.387500X-0.050000X-0.387500X0.050000X-0.387500X0*%
%ADD36R,3.200000X3.200000*%
G04 APERTURE END LIST*
D10*
%TO.C,REF\u002A\u002A*%
X45243750Y-52387500D03*
%TD*%
D11*
%TO.C,J1*%
X154320000Y-36130000D03*
D12*
X154320000Y-31950000D03*
D11*
X145680000Y-36130000D03*
D12*
X145680000Y-31950000D03*
D13*
X146750000Y-37045000D03*
X147550000Y-37045000D03*
D14*
X148250000Y-37045000D03*
X149250000Y-37045000D03*
X150750000Y-37045000D03*
X151750000Y-37045000D03*
D13*
X152450000Y-37045000D03*
X153250000Y-37045000D03*
X153250000Y-37045000D03*
X152450000Y-37045000D03*
D14*
X151250000Y-37045000D03*
X150250000Y-37045000D03*
X149750000Y-37045000D03*
X148750000Y-37045000D03*
D13*
X147550000Y-37045000D03*
X146750000Y-37045000D03*
D15*
X152890000Y-35600000D03*
X147110000Y-35600000D03*
%TD*%
D10*
%TO.C,REF\u002A\u002A*%
X254793750Y-52387500D03*
%TD*%
D16*
%TO.C,SW47*%
X260293750Y-100012500D03*
D17*
X258603750Y-102552500D03*
X252253750Y-105092500D03*
D16*
X249293750Y-100012500D03*
D18*
X262256750Y-102552500D03*
X248573750Y-105092500D03*
%TD*%
D16*
%TO.C,SW32*%
X184093750Y-80962500D03*
D17*
X182403750Y-83502500D03*
X176053750Y-86042500D03*
D16*
X173093750Y-80962500D03*
D18*
X186056750Y-83502500D03*
X172373750Y-86042500D03*
%TD*%
D16*
%TO.C,SW30*%
X145993750Y-80962500D03*
D17*
X144303750Y-83502500D03*
X137953750Y-86042500D03*
D16*
X134993750Y-80962500D03*
D18*
X147956750Y-83502500D03*
X134273750Y-86042500D03*
%TD*%
D19*
%TO.C,REF\u002A\u002A*%
X245268750Y-90487500D03*
%TD*%
D16*
%TO.C,SW10*%
X222193750Y-42862500D03*
D17*
X220503750Y-45402500D03*
X214153750Y-47942500D03*
D16*
X211193750Y-42862500D03*
D18*
X224156750Y-45402500D03*
X210473750Y-47942500D03*
%TD*%
D16*
%TO.C,SW38*%
X69793750Y-100012500D03*
D17*
X68103750Y-102552500D03*
X61753750Y-105092500D03*
D16*
X58793750Y-100012500D03*
D18*
X71756750Y-102552500D03*
X58073750Y-105092500D03*
%TD*%
D19*
%TO.C,REF\u002A\u002A*%
X54768750Y-90487500D03*
%TD*%
D16*
%TO.C,SW15*%
X88843750Y-61912500D03*
D17*
X87153750Y-64452500D03*
X80803750Y-66992500D03*
D16*
X77843750Y-61912500D03*
D18*
X90806750Y-64452500D03*
X77123750Y-66992500D03*
%TD*%
D16*
%TO.C,SW25*%
X50743750Y-80962500D03*
D17*
X49053750Y-83502500D03*
X42703750Y-86042500D03*
D16*
X39743750Y-80962500D03*
D18*
X52706750Y-83502500D03*
X39023750Y-86042500D03*
%TD*%
D19*
%TO.C,REF\u002A\u002A*%
X245268750Y-52387500D03*
%TD*%
D16*
%TO.C,SW5*%
X126943750Y-42862500D03*
D17*
X125253750Y-45402500D03*
X118903750Y-47942500D03*
D16*
X115943750Y-42862500D03*
D18*
X128906750Y-45402500D03*
X115223750Y-47942500D03*
%TD*%
D16*
%TO.C,SW24*%
X260293750Y-61912500D03*
D17*
X258603750Y-64452500D03*
X252253750Y-66992500D03*
D16*
X249293750Y-61912500D03*
D18*
X262256750Y-64452500D03*
X248573750Y-66992500D03*
%TD*%
D16*
%TO.C,SW37*%
X50743750Y-100012500D03*
D17*
X49053750Y-102552500D03*
X42703750Y-105092500D03*
D16*
X39743750Y-100012500D03*
D18*
X52706750Y-102552500D03*
X39023750Y-105092500D03*
%TD*%
D16*
%TO.C,SW23*%
X241243750Y-61912500D03*
D17*
X239553750Y-64452500D03*
X233203750Y-66992500D03*
D16*
X230243750Y-61912500D03*
D18*
X243206750Y-64452500D03*
X229523750Y-66992500D03*
%TD*%
D16*
%TO.C,SW42*%
X155518750Y-100012500D03*
D17*
X153828750Y-102552500D03*
X147478750Y-105092500D03*
D16*
X144518750Y-100012500D03*
D18*
X157481750Y-102552500D03*
X143798750Y-105092500D03*
%TD*%
D16*
%TO.C,SW20*%
X184093750Y-61912500D03*
D17*
X182403750Y-64452500D03*
X176053750Y-66992500D03*
D16*
X173093750Y-61912500D03*
D18*
X186056750Y-64452500D03*
X172373750Y-66992500D03*
%TD*%
D16*
%TO.C,SW18*%
X145993750Y-61912500D03*
D17*
X144303750Y-64452500D03*
X137953750Y-66992500D03*
D16*
X134993750Y-61912500D03*
D18*
X147956750Y-64452500D03*
X134273750Y-66992500D03*
%TD*%
D16*
%TO.C,SW7*%
X165043750Y-42862500D03*
D17*
X163353750Y-45402500D03*
X157003750Y-47942500D03*
D16*
X154043750Y-42862500D03*
D18*
X167006750Y-45402500D03*
X153323750Y-47942500D03*
%TD*%
D16*
%TO.C,SW8*%
X184093750Y-42862500D03*
D17*
X182403750Y-45402500D03*
X176053750Y-47942500D03*
D16*
X173093750Y-42862500D03*
D18*
X186056750Y-45402500D03*
X172373750Y-47942500D03*
%TD*%
D16*
%TO.C,SW29*%
X126943750Y-80962500D03*
D17*
X125253750Y-83502500D03*
X118903750Y-86042500D03*
D16*
X115943750Y-80962500D03*
D18*
X128906750Y-83502500D03*
X115223750Y-86042500D03*
%TD*%
D16*
%TO.C,SW11*%
X241243750Y-42862500D03*
D17*
X239553750Y-45402500D03*
X233203750Y-47942500D03*
D16*
X230243750Y-42862500D03*
D18*
X243206750Y-45402500D03*
X229523750Y-47942500D03*
%TD*%
D16*
%TO.C,SW21*%
X203143750Y-61912500D03*
D17*
X201453750Y-64452500D03*
X195103750Y-66992500D03*
D16*
X192143750Y-61912500D03*
D18*
X205106750Y-64452500D03*
X191423750Y-66992500D03*
%TD*%
D16*
%TO.C,SW22*%
X222193750Y-61912500D03*
D17*
X220503750Y-64452500D03*
X214153750Y-66992500D03*
D16*
X211193750Y-61912500D03*
D18*
X224156750Y-64452500D03*
X210473750Y-66992500D03*
%TD*%
D16*
%TO.C,SW44*%
X203143750Y-100012500D03*
D17*
X201453750Y-102552500D03*
X195103750Y-105092500D03*
D16*
X192143750Y-100012500D03*
D18*
X205106750Y-102552500D03*
X191423750Y-105092500D03*
%TD*%
D19*
%TO.C,REF\u002A\u002A*%
X54768750Y-52387500D03*
%TD*%
D16*
%TO.C,SW45*%
X222193750Y-100012500D03*
D17*
X220503750Y-102552500D03*
X214153750Y-105092500D03*
D16*
X211193750Y-100012500D03*
D18*
X224156750Y-102552500D03*
X210473750Y-105092500D03*
%TD*%
D16*
%TO.C,SW33*%
X203143750Y-80962500D03*
D17*
X201453750Y-83502500D03*
X195103750Y-86042500D03*
D16*
X192143750Y-80962500D03*
D18*
X205106750Y-83502500D03*
X191423750Y-86042500D03*
%TD*%
D16*
%TO.C,SW4*%
X107893750Y-42862500D03*
D17*
X106203750Y-45402500D03*
X99853750Y-47942500D03*
D16*
X96893750Y-42862500D03*
D18*
X109856750Y-45402500D03*
X96173750Y-47942500D03*
%TD*%
D16*
%TO.C,SW46*%
X241243750Y-100012500D03*
D17*
X239553750Y-102552500D03*
X233203750Y-105092500D03*
D16*
X230243750Y-100012500D03*
D18*
X243206750Y-102552500D03*
X229523750Y-105092500D03*
%TD*%
D16*
%TO.C,SW43*%
X184093750Y-100012500D03*
D17*
X182403750Y-102552500D03*
X176053750Y-105092500D03*
D16*
X173093750Y-100012500D03*
D18*
X186056750Y-102552500D03*
X172373750Y-105092500D03*
%TD*%
D16*
%TO.C,SW2*%
X69793750Y-42862500D03*
D17*
X68103750Y-45402500D03*
X61753750Y-47942500D03*
D16*
X58793750Y-42862500D03*
D18*
X71756750Y-45402500D03*
X58073750Y-47942500D03*
%TD*%
D16*
%TO.C,SW17*%
X126943750Y-61912500D03*
D17*
X125253750Y-64452500D03*
X118903750Y-66992500D03*
D16*
X115943750Y-61912500D03*
D18*
X128906750Y-64452500D03*
X115223750Y-66992500D03*
%TD*%
D16*
%TO.C,SW26*%
X69793750Y-80962500D03*
D17*
X68103750Y-83502500D03*
X61753750Y-86042500D03*
D16*
X58793750Y-80962500D03*
D18*
X71756750Y-83502500D03*
X58073750Y-86042500D03*
%TD*%
D16*
%TO.C,SW1*%
X50743750Y-42862500D03*
D17*
X49053750Y-45402500D03*
X42703750Y-47942500D03*
D16*
X39743750Y-42862500D03*
D18*
X52706750Y-45402500D03*
X39023750Y-47942500D03*
%TD*%
D16*
%TO.C,SW6*%
X145993750Y-42862500D03*
D17*
X144303750Y-45402500D03*
X137953750Y-47942500D03*
D16*
X134993750Y-42862500D03*
D18*
X147956750Y-45402500D03*
X134273750Y-47942500D03*
%TD*%
D16*
%TO.C,SW12*%
X260293750Y-42862500D03*
D17*
X258603750Y-45402500D03*
X252253750Y-47942500D03*
D16*
X249293750Y-42862500D03*
D18*
X262256750Y-45402500D03*
X248573750Y-47942500D03*
%TD*%
D16*
%TO.C,SW40*%
X107893750Y-100012500D03*
D17*
X106203750Y-102552500D03*
X99853750Y-105092500D03*
D16*
X96893750Y-100012500D03*
D18*
X109856750Y-102552500D03*
X96173750Y-105092500D03*
%TD*%
D16*
%TO.C,SW14*%
X69793750Y-61912500D03*
D17*
X68103750Y-64452500D03*
X61753750Y-66992500D03*
D16*
X58793750Y-61912500D03*
D18*
X71756750Y-64452500D03*
X58073750Y-66992500D03*
%TD*%
D16*
%TO.C,SW34*%
X222193750Y-80962500D03*
D17*
X220503750Y-83502500D03*
X214153750Y-86042500D03*
D16*
X211193750Y-80962500D03*
D18*
X224156750Y-83502500D03*
X210473750Y-86042500D03*
%TD*%
D16*
%TO.C,SW16*%
X107893750Y-61912500D03*
D17*
X106203750Y-64452500D03*
X99853750Y-66992500D03*
D16*
X96893750Y-61912500D03*
D18*
X109856750Y-64452500D03*
X96173750Y-66992500D03*
%TD*%
D16*
%TO.C,SW36*%
X260293750Y-80962500D03*
D17*
X258603750Y-83502500D03*
X252253750Y-86042500D03*
D16*
X249293750Y-80962500D03*
D18*
X262256750Y-83502500D03*
X248573750Y-86042500D03*
%TD*%
D16*
%TO.C,SW39*%
X88843750Y-100012500D03*
D17*
X87153750Y-102552500D03*
X80803750Y-105092500D03*
D16*
X77843750Y-100012500D03*
D18*
X90806750Y-102552500D03*
X77123750Y-105092500D03*
%TD*%
D16*
%TO.C,SW19*%
X165043750Y-61912500D03*
D17*
X163353750Y-64452500D03*
X157003750Y-66992500D03*
D16*
X154043750Y-61912500D03*
D18*
X167006750Y-64452500D03*
X153323750Y-66992500D03*
%TD*%
D16*
%TO.C,SW13*%
X50743750Y-61912500D03*
D17*
X49053750Y-64452500D03*
X42703750Y-66992500D03*
D16*
X39743750Y-61912500D03*
D18*
X52706750Y-64452500D03*
X39023750Y-66992500D03*
%TD*%
D16*
%TO.C,SW31*%
X165043750Y-80962500D03*
D17*
X163353750Y-83502500D03*
X157003750Y-86042500D03*
D16*
X154043750Y-80962500D03*
D18*
X167006750Y-83502500D03*
X153323750Y-86042500D03*
%TD*%
D16*
%TO.C,SW28*%
X107893750Y-80962500D03*
D17*
X106203750Y-83502500D03*
X99853750Y-86042500D03*
D16*
X96893750Y-80962500D03*
D18*
X109856750Y-83502500D03*
X96173750Y-86042500D03*
%TD*%
D16*
%TO.C,SW3*%
X88843750Y-42862500D03*
D17*
X87153750Y-45402500D03*
X80803750Y-47942500D03*
D16*
X77843750Y-42862500D03*
D18*
X90806750Y-45402500D03*
X77123750Y-47942500D03*
%TD*%
D16*
%TO.C,SW41*%
X126943750Y-100012500D03*
D17*
X125253750Y-102552500D03*
X118903750Y-105092500D03*
D16*
X115943750Y-100012500D03*
D18*
X128906750Y-102552500D03*
X115223750Y-105092500D03*
%TD*%
D16*
%TO.C,SW9*%
X203143750Y-42862500D03*
D17*
X201453750Y-45402500D03*
X195103750Y-47942500D03*
D16*
X192143750Y-42862500D03*
D18*
X205106750Y-45402500D03*
X191423750Y-47942500D03*
%TD*%
D16*
%TO.C,SW27*%
X88843750Y-80962500D03*
D17*
X87153750Y-83502500D03*
X80803750Y-86042500D03*
D16*
X77843750Y-80962500D03*
D18*
X90806750Y-83502500D03*
X77123750Y-86042500D03*
%TD*%
D16*
%TO.C,SW35*%
X241243750Y-80962500D03*
D17*
X239553750Y-83502500D03*
X233203750Y-86042500D03*
D16*
X230243750Y-80962500D03*
D18*
X243206750Y-83502500D03*
X229523750Y-86042500D03*
%TD*%
D20*
%TO.C,C5*%
X93348750Y-40481250D03*
X92388750Y-40481250D03*
%TD*%
D21*
%TO.C,LED28*%
X105193750Y-76900000D03*
X105193750Y-75500000D03*
X99593750Y-75500000D03*
X99593750Y-76900000D03*
%TD*%
D22*
%TO.C,D45*%
X210250000Y-102000000D03*
X208850000Y-102000000D03*
%TD*%
D21*
%TO.C,LED29*%
X124243750Y-76900000D03*
X124243750Y-75500000D03*
X118643750Y-75500000D03*
X118643750Y-76900000D03*
%TD*%
%TO.C,LED42*%
X147218750Y-94550000D03*
X147218750Y-95950000D03*
X152818750Y-95950000D03*
X152818750Y-94550000D03*
%TD*%
D22*
%TO.C,D40*%
X95950000Y-102000000D03*
X94550000Y-102000000D03*
%TD*%
D20*
%TO.C,C17*%
X131150000Y-95010000D03*
X130190000Y-95010000D03*
%TD*%
D22*
%TO.C,D4*%
X95700000Y-45000000D03*
X94300000Y-45000000D03*
%TD*%
D20*
%TO.C,C18*%
X134230000Y-103330000D03*
X133270000Y-103330000D03*
%TD*%
D22*
%TO.C,D34*%
X210250000Y-83000000D03*
X208850000Y-83000000D03*
%TD*%
%TO.C,D5*%
X114700000Y-45000000D03*
X113300000Y-45000000D03*
%TD*%
%TO.C,D33*%
X191200000Y-83000000D03*
X189800000Y-83000000D03*
%TD*%
D21*
%TO.C,LED36*%
X257593750Y-76900000D03*
X257593750Y-75500000D03*
X251993750Y-75500000D03*
X251993750Y-76900000D03*
%TD*%
D22*
%TO.C,D9*%
X190700000Y-45000000D03*
X189300000Y-45000000D03*
%TD*%
%TO.C,D16*%
X95950000Y-64000000D03*
X94550000Y-64000000D03*
%TD*%
%TO.C,D39*%
X76700000Y-102000000D03*
X75300000Y-102000000D03*
%TD*%
D21*
%TO.C,LED10*%
X219493750Y-38800000D03*
X219493750Y-37400000D03*
X213893750Y-37400000D03*
X213893750Y-38800000D03*
%TD*%
D22*
%TO.C,D38*%
X57850000Y-102000000D03*
X56450000Y-102000000D03*
%TD*%
D23*
%TO.C,U3*%
X149050000Y-51862500D03*
X150000000Y-51862500D03*
X150950000Y-51862500D03*
X150950000Y-54137500D03*
X149050000Y-54137500D03*
%TD*%
D22*
%TO.C,D20*%
X172150000Y-64000000D03*
X170750000Y-64000000D03*
%TD*%
D24*
%TO.C,R5*%
X161590000Y-94000000D03*
X162610000Y-94000000D03*
%TD*%
D25*
%TO.C,C15*%
X141240000Y-98660000D03*
X142200000Y-98660000D03*
%TD*%
D22*
%TO.C,D22*%
X210250000Y-64000000D03*
X208850000Y-64000000D03*
%TD*%
D21*
%TO.C,LED18*%
X137693750Y-56450000D03*
X137693750Y-57850000D03*
X143293750Y-57850000D03*
X143293750Y-56450000D03*
%TD*%
D26*
%TO.C,D12*%
X247000000Y-43700000D03*
X247000000Y-42300000D03*
%TD*%
D21*
%TO.C,LED34*%
X219493750Y-76900000D03*
X219493750Y-75500000D03*
X213893750Y-75500000D03*
X213893750Y-76900000D03*
%TD*%
D22*
%TO.C,D46*%
X229300000Y-102000000D03*
X227900000Y-102000000D03*
%TD*%
D21*
%TO.C,LED5*%
X124243750Y-38800000D03*
X124243750Y-37400000D03*
X118643750Y-37400000D03*
X118643750Y-38800000D03*
%TD*%
%TO.C,LED4*%
X105193750Y-38800000D03*
X105193750Y-37400000D03*
X99593750Y-37400000D03*
X99593750Y-38800000D03*
%TD*%
D25*
%TO.C,C4*%
X92388750Y-35718750D03*
X93348750Y-35718750D03*
%TD*%
D22*
%TO.C,D13*%
X39700000Y-64000000D03*
X38300000Y-64000000D03*
%TD*%
%TO.C,D30*%
X134050000Y-83000000D03*
X132650000Y-83000000D03*
%TD*%
%TO.C,D29*%
X115000000Y-83000000D03*
X113600000Y-83000000D03*
%TD*%
D24*
%TO.C,R8*%
X129140000Y-97600000D03*
X130160000Y-97600000D03*
%TD*%
D21*
%TO.C,LED40*%
X99593750Y-94550000D03*
X99593750Y-95950000D03*
X105193750Y-95950000D03*
X105193750Y-94550000D03*
%TD*%
D22*
%TO.C,D7*%
X153100000Y-45243750D03*
X151700000Y-45243750D03*
%TD*%
D27*
%TO.C,R1*%
X48990000Y-35160000D03*
X47970000Y-35160000D03*
%TD*%
D21*
%TO.C,LED24*%
X251993750Y-56450000D03*
X251993750Y-57850000D03*
X257593750Y-57850000D03*
X257593750Y-56450000D03*
%TD*%
D28*
%TO.C,C14*%
X135340000Y-91800000D03*
X135340000Y-90840000D03*
%TD*%
D22*
%TO.C,D42*%
X146400000Y-101980000D03*
X145000000Y-101980000D03*
%TD*%
D21*
%TO.C,LED38*%
X61493750Y-94550000D03*
X61493750Y-95950000D03*
X67093750Y-95950000D03*
X67093750Y-94550000D03*
%TD*%
D22*
%TO.C,D3*%
X76700000Y-45000000D03*
X75300000Y-45000000D03*
%TD*%
D21*
%TO.C,LED41*%
X118643750Y-94550000D03*
X118643750Y-95950000D03*
X124243750Y-95950000D03*
X124243750Y-94550000D03*
%TD*%
D22*
%TO.C,D25*%
X38800000Y-83000000D03*
X37400000Y-83000000D03*
%TD*%
D20*
%TO.C,C16*%
X130150000Y-98670000D03*
X129190000Y-98670000D03*
%TD*%
D21*
%TO.C,LED9*%
X200443750Y-38800000D03*
X200443750Y-37400000D03*
X194843750Y-37400000D03*
X194843750Y-38800000D03*
%TD*%
D20*
%TO.C,C2*%
X148040000Y-50410000D03*
X147080000Y-50410000D03*
%TD*%
D22*
%TO.C,D47*%
X248700000Y-102000000D03*
X247300000Y-102000000D03*
%TD*%
D21*
%TO.C,LED30*%
X143293750Y-76900000D03*
X143293750Y-75500000D03*
X137693750Y-75500000D03*
X137693750Y-76900000D03*
%TD*%
D22*
%TO.C,D37*%
X38800000Y-102000000D03*
X37400000Y-102000000D03*
%TD*%
D21*
%TO.C,LED37*%
X42443750Y-94550000D03*
X42443750Y-95950000D03*
X48043750Y-95950000D03*
X48043750Y-94550000D03*
%TD*%
D22*
%TO.C,D21*%
X191200000Y-64000000D03*
X189800000Y-64000000D03*
%TD*%
D21*
%TO.C,LED12*%
X257593750Y-38800000D03*
X257593750Y-37400000D03*
X251993750Y-37400000D03*
X251993750Y-38800000D03*
%TD*%
D22*
%TO.C,D6*%
X133700000Y-45000000D03*
X132300000Y-45000000D03*
%TD*%
D21*
%TO.C,LED22*%
X213893750Y-56450000D03*
X213893750Y-57850000D03*
X219493750Y-57850000D03*
X219493750Y-56450000D03*
%TD*%
D22*
%TO.C,D27*%
X76700000Y-83000000D03*
X75300000Y-83000000D03*
%TD*%
D20*
%TO.C,C10*%
X134230000Y-102400000D03*
X133270000Y-102400000D03*
%TD*%
D29*
%TO.C,SW48*%
X209925000Y-72825000D03*
X210000000Y-77175000D03*
X212075000Y-72825000D03*
X212075000Y-77175000D03*
%TD*%
D22*
%TO.C,D15*%
X76900000Y-64000000D03*
X75500000Y-64000000D03*
%TD*%
D29*
%TO.C,SW49*%
X94925000Y-72825000D03*
X95000000Y-77175000D03*
X97075000Y-72825000D03*
X97075000Y-77175000D03*
%TD*%
D22*
%TO.C,D19*%
X153100000Y-64000000D03*
X151700000Y-64000000D03*
%TD*%
D24*
%TO.C,R4*%
X159590000Y-94000000D03*
X160610000Y-94000000D03*
%TD*%
D25*
%TO.C,C12*%
X140300000Y-94120000D03*
X141260000Y-94120000D03*
%TD*%
D28*
%TO.C,C6*%
X133110000Y-105300000D03*
X133110000Y-104340000D03*
%TD*%
D21*
%TO.C,LED43*%
X175793750Y-94550000D03*
X175793750Y-95950000D03*
X181393750Y-95950000D03*
X181393750Y-94550000D03*
%TD*%
%TO.C,LED11*%
X238543750Y-38800000D03*
X238543750Y-37400000D03*
X232943750Y-37400000D03*
X232943750Y-38800000D03*
%TD*%
%TO.C,LED46*%
X232943750Y-94550000D03*
X232943750Y-95950000D03*
X238543750Y-95950000D03*
X238543750Y-94550000D03*
%TD*%
D26*
%TO.C,D1*%
X38100000Y-38800000D03*
X38100000Y-37400000D03*
%TD*%
D21*
%TO.C,LED26*%
X67093750Y-76900000D03*
X67093750Y-75500000D03*
X61493750Y-75500000D03*
X61493750Y-76900000D03*
%TD*%
%TO.C,LED13*%
X42443750Y-56450000D03*
X42443750Y-57850000D03*
X48043750Y-57850000D03*
X48043750Y-56450000D03*
%TD*%
D22*
%TO.C,D18*%
X134050000Y-64000000D03*
X132650000Y-64000000D03*
%TD*%
%TO.C,D36*%
X248350000Y-83000000D03*
X246950000Y-83000000D03*
%TD*%
D21*
%TO.C,LED6*%
X143293750Y-38800000D03*
X143293750Y-37400000D03*
X137693750Y-37400000D03*
X137693750Y-38800000D03*
%TD*%
D30*
%TO.C,R2*%
X151800000Y-40290000D03*
X151800000Y-41310000D03*
%TD*%
D22*
%TO.C,D8*%
X171700000Y-45000000D03*
X170300000Y-45000000D03*
%TD*%
%TO.C,D32*%
X172150000Y-83000000D03*
X170750000Y-83000000D03*
%TD*%
%TO.C,D31*%
X153100000Y-83000000D03*
X151700000Y-83000000D03*
%TD*%
D28*
%TO.C,C13*%
X136360000Y-90770000D03*
X136360000Y-89810000D03*
%TD*%
D22*
%TO.C,D41*%
X115000000Y-102000000D03*
X113600000Y-102000000D03*
%TD*%
D28*
%TO.C,C7*%
X138320000Y-104960000D03*
X138320000Y-104000000D03*
%TD*%
D21*
%TO.C,LED17*%
X118643750Y-56450000D03*
X118643750Y-57850000D03*
X124243750Y-57850000D03*
X124243750Y-56450000D03*
%TD*%
%TO.C,LED25*%
X48043750Y-76900000D03*
X48043750Y-75500000D03*
X42443750Y-75500000D03*
X42443750Y-76900000D03*
%TD*%
D28*
%TO.C,C3*%
X147730000Y-54890000D03*
X147730000Y-53930000D03*
%TD*%
D21*
%TO.C,LED32*%
X181393750Y-76900000D03*
X181393750Y-75500000D03*
X175793750Y-75500000D03*
X175793750Y-76900000D03*
%TD*%
D26*
%TO.C,D48*%
X40481250Y-36418750D03*
X40481250Y-35018750D03*
%TD*%
D22*
%TO.C,D44*%
X191200000Y-102000000D03*
X189800000Y-102000000D03*
%TD*%
%TO.C,D24*%
X248350000Y-64000000D03*
X246950000Y-64000000D03*
%TD*%
D21*
%TO.C,LED20*%
X175793750Y-56450000D03*
X175793750Y-57850000D03*
X181393750Y-57850000D03*
X181393750Y-56450000D03*
%TD*%
D22*
%TO.C,D10*%
X209700000Y-45000000D03*
X208300000Y-45000000D03*
%TD*%
%TO.C,D11*%
X228700000Y-45000000D03*
X227300000Y-45000000D03*
%TD*%
D21*
%TO.C,LED47*%
X251993750Y-94550000D03*
X251993750Y-95950000D03*
X257593750Y-95950000D03*
X257593750Y-94550000D03*
%TD*%
%TO.C,LED23*%
X232943750Y-56450000D03*
X232943750Y-57850000D03*
X238543750Y-57850000D03*
X238543750Y-56450000D03*
%TD*%
D30*
%TO.C,R3*%
X148600000Y-40290000D03*
X148600000Y-41310000D03*
%TD*%
D21*
%TO.C,LED19*%
X156743750Y-56450000D03*
X156743750Y-57850000D03*
X162343750Y-57850000D03*
X162343750Y-56450000D03*
%TD*%
%TO.C,LED44*%
X194843750Y-94550000D03*
X194843750Y-95950000D03*
X200443750Y-95950000D03*
X200443750Y-94550000D03*
%TD*%
D22*
%TO.C,D35*%
X229300000Y-83000000D03*
X227900000Y-83000000D03*
%TD*%
%TO.C,D14*%
X57700000Y-64000000D03*
X56300000Y-64000000D03*
%TD*%
D21*
%TO.C,LED39*%
X80543750Y-94550000D03*
X80543750Y-95950000D03*
X86143750Y-95950000D03*
X86143750Y-94550000D03*
%TD*%
D22*
%TO.C,D26*%
X57700000Y-83000000D03*
X56300000Y-83000000D03*
%TD*%
%TO.C,D28*%
X96000000Y-83000000D03*
X94600000Y-83000000D03*
%TD*%
D21*
%TO.C,LED14*%
X61493750Y-56450000D03*
X61493750Y-57850000D03*
X67093750Y-57850000D03*
X67093750Y-56450000D03*
%TD*%
D30*
%TO.C,R6*%
X133320000Y-90480000D03*
X133320000Y-91500000D03*
%TD*%
D21*
%TO.C,LED45*%
X213893750Y-94550000D03*
X213893750Y-95950000D03*
X219493750Y-95950000D03*
X219493750Y-94550000D03*
%TD*%
D28*
%TO.C,C9*%
X132310000Y-91750000D03*
X132310000Y-90790000D03*
%TD*%
D21*
%TO.C,LED27*%
X86143750Y-76900000D03*
X86143750Y-75500000D03*
X80543750Y-75500000D03*
X80543750Y-76900000D03*
%TD*%
D22*
%TO.C,D17*%
X115000000Y-64000000D03*
X113600000Y-64000000D03*
%TD*%
%TO.C,D23*%
X229300000Y-64200000D03*
X227900000Y-64200000D03*
%TD*%
%TO.C,D43*%
X172150000Y-102000000D03*
X170750000Y-102000000D03*
%TD*%
D31*
%TO.C,Y1*%
X136840000Y-106480000D03*
X134640000Y-106480000D03*
X134640000Y-104780000D03*
X136840000Y-104780000D03*
%TD*%
D20*
%TO.C,C8*%
X132130000Y-92730000D03*
X131170000Y-92730000D03*
%TD*%
D21*
%TO.C,LED1*%
X48043750Y-38800000D03*
X48043750Y-37400000D03*
X42443750Y-37400000D03*
X42443750Y-38800000D03*
%TD*%
D32*
%TO.C,U2*%
X160795000Y-95257500D03*
X162065000Y-95257500D03*
X163335000Y-95257500D03*
X164605000Y-95257500D03*
X164605000Y-102757500D03*
X163335000Y-102757500D03*
X162065000Y-102757500D03*
X160795000Y-102757500D03*
D33*
X162700000Y-99007500D03*
%TD*%
D21*
%TO.C,LED35*%
X238543750Y-76900000D03*
X238543750Y-75500000D03*
X232943750Y-75500000D03*
X232943750Y-76900000D03*
%TD*%
D30*
%TO.C,R7*%
X134300000Y-90480000D03*
X134300000Y-91500000D03*
%TD*%
D21*
%TO.C,LED16*%
X99593750Y-56450000D03*
X99593750Y-57850000D03*
X105193750Y-57850000D03*
X105193750Y-56450000D03*
%TD*%
%TO.C,LED2*%
X67093750Y-38800000D03*
X67093750Y-37400000D03*
X61493750Y-37400000D03*
X61493750Y-38800000D03*
%TD*%
%TO.C,LED15*%
X80543750Y-56450000D03*
X80543750Y-57850000D03*
X86143750Y-57850000D03*
X86143750Y-56450000D03*
%TD*%
D34*
%TO.C,U1*%
X139167500Y-95031250D03*
X139167500Y-95431250D03*
X139167500Y-95831250D03*
X139167500Y-96231250D03*
X139167500Y-96631250D03*
X139167500Y-97031250D03*
X139167500Y-97431250D03*
X139167500Y-97831250D03*
X139167500Y-98231250D03*
X139167500Y-98631250D03*
X139167500Y-99031250D03*
X139167500Y-99431250D03*
X139167500Y-99831250D03*
X139167500Y-100231250D03*
D35*
X138330000Y-101068750D03*
X137930000Y-101068750D03*
X137530000Y-101068750D03*
X137130000Y-101068750D03*
X136730000Y-101068750D03*
X136330000Y-101068750D03*
X135930000Y-101068750D03*
X135530000Y-101068750D03*
X135130000Y-101068750D03*
X134730000Y-101068750D03*
X134330000Y-101068750D03*
X133930000Y-101068750D03*
X133530000Y-101068750D03*
X133130000Y-101068750D03*
D34*
X132292500Y-100231250D03*
X132292500Y-99831250D03*
X132292500Y-99431250D03*
X132292500Y-99031250D03*
X132292500Y-98631250D03*
X132292500Y-98231250D03*
X132292500Y-97831250D03*
X132292500Y-97431250D03*
X132292500Y-97031250D03*
X132292500Y-96631250D03*
X132292500Y-96231250D03*
X132292500Y-95831250D03*
X132292500Y-95431250D03*
X132292500Y-95031250D03*
D35*
X133130000Y-94193750D03*
X133530000Y-94193750D03*
X133930000Y-94193750D03*
X134330000Y-94193750D03*
X134730000Y-94193750D03*
X135130000Y-94193750D03*
X135530000Y-94193750D03*
X135930000Y-94193750D03*
X136330000Y-94193750D03*
X136730000Y-94193750D03*
X137130000Y-94193750D03*
X137530000Y-94193750D03*
X137930000Y-94193750D03*
X138330000Y-94193750D03*
D36*
X135730000Y-97631250D03*
%TD*%
D28*
%TO.C,C11*%
X138060000Y-90490000D03*
X138060000Y-89530000D03*
%TD*%
D22*
%TO.C,D2*%
X57700000Y-45000000D03*
X56300000Y-45000000D03*
%TD*%
D21*
%TO.C,LED21*%
X194843750Y-56450000D03*
X194843750Y-57850000D03*
X200443750Y-57850000D03*
X200443750Y-56450000D03*
%TD*%
%TO.C,LED33*%
X200443750Y-76900000D03*
X200443750Y-75500000D03*
X194843750Y-75500000D03*
X194843750Y-76900000D03*
%TD*%
%TO.C,LED7*%
X162343750Y-38800000D03*
X162343750Y-37400000D03*
X156743750Y-37400000D03*
X156743750Y-38800000D03*
%TD*%
%TO.C,LED8*%
X181393750Y-38800000D03*
X181393750Y-37400000D03*
X175793750Y-37400000D03*
X175793750Y-38800000D03*
%TD*%
%TO.C,LED31*%
X162343750Y-76900000D03*
X162343750Y-75500000D03*
X156743750Y-75500000D03*
X156743750Y-76900000D03*
%TD*%
%TO.C,LED3*%
X86143750Y-38800000D03*
X86143750Y-37400000D03*
X80543750Y-37400000D03*
X80543750Y-38800000D03*
%TD*%
M02*
