0
SECTION
2
HEADER
9
$INSUNITS
70
4
9
$ACADVER
1
AC1014
9
$HANDSEED
5
FFFF
0
ENDSEC
0
SECTION
2
TABLES
0
TABLE
2
VPORT
5
8
100
AcDbSymbolTable
0
ENDTAB
0
TABLE
2
LTYPE
5
5
100
AcDbSymbolTable
0
LTYPE
5
14
100
AcDbSymbolTableRecord
100
AcDbLinetypeTableRecord
2
BYBLOCK
70
0
0
LTYPE
5
15
100
AcDbSymbolTableRecord
100
AcDbLinetypeTableRecord
2
BYLAYER
70
0
0
LTYPE
5
16
100
AcDbSymbolTableRecord
100
AcDbLinetypeTableRecord
2
DASHED
70
0
3
Dashed __ __ __ __ __ __ __ __ __ __ __ __ __ _
72
65
73
2
40
0.75
49
0.5
74
0
49
-0.25
74
0
0
ENDTAB
0
TABLE
2
LAYER
5
2
100
AcDbSymbolTable
70
2
0
LAYER
5
50
100
AcDbSymbolTableRecord
100
AcDbLayerTableRecord
2
0
70
0
62
7
6
CONTINUOUS
0
ENDTAB
0
TABLE
2
STYLE
5
3
100
AcDbSymbolTable
70
1
0
STYLE
5
11
100
AcDbSymbolTableRecord
100
AcDbTextStyleTableRecord
2
STANDARD
70
0
0
ENDTAB
0
TABLE
2
VIEW
5
6
100
AcDbSymbolTable
70
0
0
ENDTAB
0
TABLE
2
UCS
5
7
100
AcDbSymbolTable
70
0
0
ENDTAB
0
TABLE
2
APPID
5
9
100
AcDbSymbolTable
70
2
0
APPID
5
12
100
AcDbSymbolTableRecord
100
AcDbRegAppTableRecord
2
ACAD
70
0
0
ENDTAB
0
TABLE
2
DIMSTYLE
5
A
100
AcDbSymbolTable
70
1
0
ENDTAB
0
TABLE
2
BLOCK_RECORD
5
1
100
AcDbSymbolTable
70
1
0
BLOCK_RECORD
5
1F
100
AcDbSymbolTableRecord
100
AcDbBlockTableRecord
2
*MODEL_SPACE
0
BLOCK_RECORD
5
1B
100
AcDbSymbolTableRecord
100
AcDbBlockTableRecord
2
*PAPER_SPACE
0
ENDTAB
0
ENDSEC
0
SECTION
2
BLOCKS
0
BLOCK
5
20
100
AcDbEntity
100
AcDbBlockBegin
2
*MODEL_SPACE
0
ENDBLK
5
21
100
AcDbEntity
100
AcDbBlockEnd
0
BLOCK
5
1C
100
AcDbEntity
100
AcDbBlockBegin
2
*PAPER_SPACE
0
ENDBLK
5
1D
100
AcDbEntity
100
AcDbBlockEnd
0
ENDSEC
0
SECTION
2
ENTITIES
0
LWPOLYLINE
5
100
100
AcDbEntity
8
0
100
AcDbPolyline
90
20
70
1
43
0.0
10
-28.332104112010409
20
89.475011730028555
10
-28.332104112010409
20
92.425314291145355
10
-27.53290393562386
20
92.425314291145355
10
-27.53290393562386
20
93.425810350015439
10
-13.682102323052172
20
93.425810350015439
10
-13.682102323052172
20
92.425314291145355
10
-12.88290214666562
20
92.425314291145355
10
-12.88290214666562
20
89.475011730028555
10
-13.682102323052172
20
89.475011730028555
10
-13.682102323052172
20
83.524708724455436
10
-12.88290214666562
20
83.524708724455436
10
-12.88290214666562
20
80.575512425709519
10
-13.682102323052172
20
80.575512425709519
10
-13.682102323052172
20
79.575008737443795
10
-27.53290393562386
20
79.575008737443767
10
-27.53290393562386
20
80.575512425709519
10
-28.332104112010409
20
80.575512425709519
10
-28.332104112010409
20
83.524708724455436
10
-27.53290393562386
20
83.524708724455436
10
-27.53290393562386
20
89.475011730028555
0
LWPOLYLINE
5
101
100
AcDbEntity
8
0
100
AcDbPolyline
90
20
70
1
43
0.0
10
-31.932904206023242
20
111.47532016520081
10
-31.932904206023242
20
108.52361379528226
10
-32.732205471902311
20
108.52361379528226
10
-32.732205471902311
20
102.57461541636729
10
-31.932904206023242
20
102.57461541636729
10
-31.932904206023242
20
99.625617481908577
10
-32.732205471902311
20
99.625617481908577
10
-32.732205471902311
20
98.625113793642853
10
-46.582808720186797
20
98.625113793642853
10
-46.582808720186797
20
99.625617481908577
10
-47.382205353511637
20
99.625617481908577
10
-47.382205353511637
20
102.57461541636729
10
-46.582808720186797
20
102.57461541636729
10
-46.582808720186797
20
108.52361379528226
10
-47.382205353511637
20
108.52361379528226
10
-47.382205353511637
20
111.47532016520081
10
-46.582808720186797
20
111.47532016520081
10
-46.582808720186797
20
112.4758162240709
10
-32.732205471902311
20
112.4758162240709
10
-32.732205471902311
20
111.47532016520081
0
CIRCLE
5
102
100
AcDbEntity
8
0
100
AcDbCircle
10
-11.132101649243808
20
116.22501721897589
30
0
40
1.1499999999999999
210
0
220
0
230
1
0
LWPOLYLINE
5
103
100
AcDbEntity
8
0
100
AcDbPolyline
90
20
70
1
43
0.0
10
-85.482213286924704
20
64.474710479795618
10
-84.682812838902052
20
64.474710479795618
10
-84.682812838902038
20
70.425013485368737
10
-85.482213286924704
20
70.425013485368737
10
-85.482213286924718
20
73.375308417089897
10
-84.682812838902052
20
73.375308417089897
10
-84.682812838902052
20
74.375812105355664
10
-70.832011226330351
20
74.375812105355664
10
-70.832011226330351
20
73.375308417089897
10
-70.033007506882086
20
73.375308417089897
10
-70.0330075068821
20
70.425013485368737
10
-70.832011226330351
20
70.425013485368737
10
-70.832011226330351
20
64.474710479795618
10
-70.033007506882086
20
64.474710479795618
10
-70.033007506882086
20
61.525510366351881
10
-70.832011226330351
20
61.525510366351881
10
-70.832011226330351
20
60.525010492783977
10
-84.682812838902052
20
60.525010492783977
10
-84.682812838902038
20
61.525510366351881
10
-85.482213286924704
20
61.525510366351881
0
CIRCLE
5
104
100
AcDbEntity
8
0
100
AcDbCircle
10
-10.266775283377838
20
22.930205521674729
30
0
40
1.1499999999999999
210
0
220
0
230
1
0
CIRCLE
5
105
100
AcDbEntity
8
0
100
AcDbCircle
10
-87.232112923617365
20
116.17501721156827
30
0
40
1.1500000000000021
210
0
220
0
230
1
0
LWPOLYLINE
5
106
100
AcDbEntity
8
0
100
AcDbPolyline
90
20
70
1
43
0.0
10
-32.732205471902311
20
23.425504340287731
10
-32.732205471902311
20
22.425002559370917
10
-46.582808720186797
20
22.425002559370917
10
-46.582808720186797
20
23.425504340287731
10
-47.382205353511637
20
23.425504340287731
10
-47.382205353511637
20
26.374704453731468
10
-46.582808720186797
20
26.374704453731468
10
-46.582808720186797
20
32.325005551955677
10
-47.382205353511637
20
32.325005551955641
10
-47.382205353511637
20
35.275304298374692
10
-46.582808720186797
20
35.275304298374692
10
-46.582808720186797
20
36.275804171942596
10
-32.732205471902311
20
36.275804171942596
10
-32.732205471902311
20
35.275304298374692
10
-31.932904206023242
20
35.275304298374692
10
-31.932904206023242
20
32.325005551955677
10
-32.732205471902311
20
32.325005551955677
10
-32.732205471902311
20
26.374704453731468
10
-31.932904206023242
20
26.374704453731468
10
-31.932904206023242
20
23.425504340287731
0
LWPOLYLINE
5
107
100
AcDbEntity
8
0
100
AcDbPolyline
90
20
70
1
43
0.0
10
-70.033007506882086
20
111.47532016520081
10
-70.033007506882086
20
108.52361379528226
10
-70.832011226330351
20
108.52361379528226
10
-70.832011226330351
20
102.57461541636729
10
-70.033007506882086
20
102.57461541636729
10
-70.0330075068821
20
99.625617481908577
10
-70.832011226330351
20
99.625617481908577
10
-70.832011226330351
20
98.625113793642853
10
-84.682812838902052
20
98.625113793642853
10
-84.682812838902038
20
99.625617481908577
10
-85.482213286924704
20
99.625617481908577
10
-85.482213286924718
20
102.57461541636729
10
-84.682812838902052
20
102.57461541636729
10
-84.682812838902038
20
108.52361379528226
10
-85.482213286924704
20
108.52361379528226
10
-85.482213286924704
20
111.47532016520081
10
-84.682812838902052
20
111.47532016520081
10
-84.682812838902052
20
112.4758162240709
10
-70.832011226330351
20
112.4758162240709
10
-70.832011226330351
20
111.47532016520081
0
LWPOLYLINE
5
108
100
AcDbEntity
8
0
100
AcDbPolyline
90
20
70
1
43
0.0
10
-51.782009166972728
20
23.425504340287731
10
-51.782009166972728
20
22.425002559370917
10
-65.632806964846594
20
22.425002559370917
10
-65.632806964846594
20
23.425504340287731
10
-66.432207412869261
20
23.425504340287731
10
-66.432207412869261
20
26.374704453731468
10
-65.632806964846594
20
26.374704453731468
10
-65.632806964846594
20
32.325005551955677
10
-66.432207412869261
20
32.325005551955677
10
-66.432207412869261
20
35.275304298374692
10
-65.632806964846594
20
35.275304298374692
10
-65.632806964846594
20
36.275804171942596
10
-51.782009166972728
20
36.275804171942596
10
-51.782009166972728
20
35.275304298374692
10
-50.983009262222296
20
35.275304298374692
10
-50.983009262222296
20
32.325005551955677
10
-51.782009166972728
20
32.325005551955677
10
-51.782009166972728
20
26.374704453731468
10
-50.983009262222296
20
26.374704453731468
10
-50.983009262222296
20
23.425504340287731
0
LWPOLYLINE
5
109
100
AcDbEntity
8
0
100
AcDbPolyline
90
20
70
1
43
0.0
10
-46.582808720186797
20
42.475504492296423
10
-47.382205353511637
20
42.475504492296423
10
-47.382205353511637
20
45.424708420438016
10
-46.582808720186797
20
45.424708420438016
10
-46.582808720186797
20
51.375007611313279
10
-47.382205353511637
20
51.375007611313279
10
-47.382205353511637
20
54.325306357732295
10
-46.582808720186797
20
54.325306357732295
10
-46.582808720186797
20
55.325810045998054
10
-32.732205471902311
20
55.325810045998054
10
-32.732205471902311
20
54.325306357732295
10
-31.932904206023242
20
54.325306357732295
10
-31.932904206023242
20
51.375007611313279
10
-32.732205471902311
20
51.375007611313279
10
-32.732205471902311
20
45.424708420438016
10
-31.932904206023242
20
45.424708420438016
10
-31.932904206023242
20
42.475504492296423
10
-32.732205471902311
20
42.475504492296423
10
-32.732205471902311
20
41.475004618728519
10
-46.582808720186797
20
41.475004618728519
0
LWPOLYLINE
5
110
100
AcDbEntity
8
0
100
AcDbPolyline
90
20
70
1
43
0.0
10
-70.832011226330351
20
83.524708724455436
10
-70.033007506882086
20
83.524708724455436
10
-70.0330075068821
20
80.575512425709519
10
-70.832011226330351
20
80.575512425709519
10
-70.832011226330351
20
79.575008737443795
10
-84.682812838902052
20
79.575008737443767
10
-84.682812838902052
20
80.575512425709519
10
-85.482213286924704
20
80.575512425709519
10
-85.482213286924718
20
83.524708724455436
10
-84.682812838902052
20
83.524708724455436
10
-84.682812838902052
20
89.475011730028555
10
-85.482213286924704
20
89.475011730028555
10
-85.482213286924718
20
92.425314291145355
10
-84.682812838902052
20
92.425314291145355
10
-84.682812838902052
20
93.425810350015439
10
-70.832011226330351
20
93.425810350015439
10
-70.832011226330351
20
92.425314291145355
10
-70.033007506882086
20
92.425314291145355
10
-70.0330075068821
20
89.475011730028555
10
-70.832011226330351
20
89.475011730028555
0
LWPOLYLINE
5
111
100
AcDbEntity
8
0
100
AcDbPolyline
90
20
70
1
43
0.0
10
-50.983009262222296
20
42.475504492296423
10
-51.782009166972728
20
42.475504492296423
10
-51.782009166972728
20
41.475004618728519
10
-65.632806964846594
20
41.475004618728519
10
-65.632806964846594
20
42.475504492296423
10
-66.432207412869261
20
42.475504492296423
10
-66.432207412869261
20
45.424708420438016
10
-65.632806964846594
20
45.424708420438016
10
-65.632806964846594
20
51.375007611313279
10
-66.432207412869261
20
51.375007611313279
10
-66.432207412869261
20
54.325306357732295
10
-65.632806964846594
20
54.325306357732295
10
-65.632806964846594
20
55.325810045998054
10
-51.782009166972728
20
55.325810045998054
10
-51.782009166972728
20
54.325306357732295
10
-50.983009262222296
20
54.325306357732295
10
-50.983009262222296
20
51.375007611313279
10
-51.782009166972728
20
51.375007611313279
10
-51.782009166972728
20
45.424708420438016
10
-50.983009262222296
20
45.424708420438016
0
LWPOLYLINE
5
112
100
AcDbEntity
8
0
100
AcDbPolyline
90
20
70
1
43
0.0
10
-31.932904206023242
20
73.375308417089897
10
-31.932904206023242
20
70.425013485368737
10
-32.732205471902311
20
70.425013485368737
10
-32.732205471902311
20
64.474710479795618
10
-31.932904206023242
20
64.474710479795618
10
-31.932904206023242
20
61.525510366351881
10
-32.732205471902311
20
61.525510366351881
10
-32.732205471902311
20
60.525010492783977
10
-46.582808720186797
20
60.525010492783977
10
-46.582808720186797
20
61.525510366351881
10
-47.382205353511637
20
61.525510366351881
10
-47.382205353511637
20
64.474710479795618
10
-46.582808720186797
20
64.474710479795618
10
-46.582808720186797
20
70.425013485368737
10
-47.382205353511637
20
70.425013485368737
10
-47.382205353511637
20
73.375308417089897
10
-46.582808720186797
20
73.375308417089897
10
-46.582808720186797
20
74.375812105355664
10
-32.732205471902311
20
74.375812105355664
10
-32.732205471902311
20
73.375308417089897
0
CIRCLE
5
113
100
AcDbEntity
8
0
100
AcDbCircle
10
-82.032112153226521
20
14.725002181539431
30
0
40
1.1500000000000021
210
0
220
0
230
1
0
CIRCLE
5
114
100
AcDbEntity
8
0
100
AcDbCircle
10
-55.732108256826727
20
14.325002122278594
30
0
40
1.1500000000000021
210
0
220
0
230
1
0
LWPOLYLINE
5
115
100
AcDbEntity
8
0
100
AcDbPolyline
90
20
70
1
43
0.0
10
-12.88290214666562
20
23.425504340287731
10
-13.682102323052172
20
23.425504340287731
10
-13.682102323052172
20
22.425002559370917
10
-27.53290393562386
20
22.425002559370917
10
-27.53290393562386
20
23.425504340287731
10
-28.332104112010409
20
23.425504340287731
10
-28.332104112010413
20
26.374704453731468
10
-27.53290393562386
20
26.374704453731468
10
-27.53290393562386
20
32.325005551955677
10
-28.332104112010409
20
32.325005551955677
10
-28.332104112010409
20
35.275304298374692
10
-27.53290393562386
20
35.275304298374692
10
-27.53290393562386
20
36.275804171942596
10
-13.682102323052172
20
36.275804171942596
10
-13.682102323052172
20
35.275304298374692
10
-12.88290214666562
20
35.275304298374692
10
-12.88290214666562
20
32.325005551955677
10
-13.682102323052172
20
32.325005551955677
10
-13.682102323052172
20
26.374704453731468
10
-12.88290214666562
20
26.374704453731468
0
LWPOLYLINE
5
116
100
AcDbEntity
8
0
100
AcDbPolyline
90
20
70
1
43
0.0
10
-65.632806964846594
20
92.425314291145355
10
-65.632806964846594
20
93.425810350015439
10
-51.782009166972728
20
93.425810350015439
10
-51.782009166972728
20
92.425314291145355
10
-50.983009262222296
20
92.425314291145355
10
-50.983009262222296
20
89.475011730028555
10
-51.782009166972728
20
89.475011730028555
10
-51.782009166972728
20
83.524708724455436
10
-50.983009262222296
20
83.524708724455436
10
-50.983009262222296
20
80.575512425709519
10
-51.782009166972728
20
80.575512425709519
10
-51.782009166972728
20
79.575008737443795
10
-65.632806964846594
20
79.575008737443767
10
-65.632806964846594
20
80.575512425709519
10
-66.432207412869261
20
80.575512425709519
10
-66.432207412869261
20
83.524708724455436
10
-65.632806964846594
20
83.524708724455436
10
-65.632806964846594
20
89.475011730028555
10
-66.432207412869261
20
89.475011730028555
10
-66.432207412869261
20
92.425314291145355
0
LWPOLYLINE
5
117
100
AcDbEntity
8
0
100
AcDbPolyline
90
20
70
1
43
0.0
10
-65.632806964846594
20
60.525010492783977
10
-65.632806964846594
20
61.525510366351881
10
-66.432207412869261
20
61.525510366351881
10
-66.432207412869261
20
64.474710479795618
10
-65.632806964846594
20
64.474710479795618
10
-65.632806964846594
20
70.425013485368737
10
-66.432207412869261
20
70.425013485368737
10
-66.432207412869261
20
73.375308417089897
10
-65.632806964846594
20
73.375308417089897
10
-65.632806964846594
20
74.375812105355664
10
-51.782009166972728
20
74.375812105355692
10
-51.782009166972728
20
73.375308417089897
10
-50.983009262222296
20
73.375308417089897
10
-50.983009262222296
20
70.425013485368737
10
-51.782009166972728
20
70.425013485368737
10
-51.782009166972728
20
64.474710479795618
10
-50.983009262222296
20
64.474710479795618
10
-50.983009262222296
20
61.525510366351881
10
-51.782009166972728
20
61.525510366351881
10
-51.782009166972728
20
60.525010492783977
0
LWPOLYLINE
5
118
100
AcDbEntity
8
0
100
AcDbPolyline
90
20
70
1
43
0.0
10
-70.832011226330351
20
23.425504340287731
10
-70.832011226330351
20
22.425002559370917
10
-84.682812838902052
20
22.425002559370917
10
-84.682812838902038
20
23.425504340287731
10
-85.482213286924704
20
23.425504340287731
10
-85.482213286924704
20
26.374704453731468
10
-84.682812838902052
20
26.374704453731468
10
-84.682812838902038
20
32.325005551955677
10
-85.482213286924704
20
32.325005551955677
10
-85.482213286924718
20
35.275304298374692
10
-84.682812838902052
20
35.275304298374692
10
-84.682812838902052
20
36.275804171942596
10
-70.832011226330351
20
36.275804171942596
10
-70.832011226330351
20
35.275304298374692
10
-70.033007506882086
20
35.275304298374692
10
-70.0330075068821
20
32.325005551955677
10
-70.832011226330351
20
32.325005551955677
10
-70.832011226330351
20
26.374704453731468
10
-70.033007506882086
20
26.374704453731468
10
-70.0330075068821
20
23.425504340287731
0
LWPOLYLINE
5
119
100
AcDbEntity
8
0
100
AcDbPolyline
90
20
70
1
43
0.0
10
-28.332104112010413
20
45.424708420438016
10
-27.53290393562386
20
45.424708420438016
10
-27.532903935623857
20
51.375007611313279
10
-28.332104112010409
20
51.375007611313279
10
-28.332104112010409
20
54.325306357732295
10
-27.53290393562386
20
54.325306357732295
10
-27.53290393562386
20
55.325810045998054
10
-13.682102323052172
20
55.325810045998054
10
-13.682102323052172
20
54.325306357732295
10
-12.88290214666562
20
54.325306357732295
10
-12.88290214666562
20
51.375007611313279
10
-13.682102323052172
20
51.375007611313279
10
-13.682102323052172
20
45.424708420438016
10
-12.88290214666562
20
45.424708420438016
10
-12.88290214666562
20
42.475504492296423
10
-13.682102323052172
20
42.475504492296423
10
-13.682102323052172
20
41.475004618728519
10
-27.53290393562386
20
41.475004618728519
10
-27.532903935623857
20
42.475504492296423
10
-28.332104112010409
20
42.475504492296423
0
LWPOLYLINE
5
120
100
AcDbEntity
8
0
100
AcDbPolyline
90
20
70
1
43
0.0
10
-84.682812838902052
20
41.475004618728519
10
-84.682812838902052
20
42.475504492296423
10
-85.482213286924704
20
42.475504492296423
10
-85.482213286924718
20
45.424708420438016
10
-84.682812838902052
20
45.424708420438016
10
-84.682812838902052
20
51.375007611313279
10
-85.482213286924704
20
51.375007611313279
10
-85.482213286924704
20
54.325306357732295
10
-84.682812838902052
20
54.325306357732295
10
-84.682812838902052
20
55.325810045998054
10
-70.832011226330351
20
55.325810045998054
10
-70.832011226330351
20
54.325306357732295
10
-70.033007506882086
20
54.325306357732295
10
-70.033007506882086
20
51.375007611313279
10
-70.832011226330351
20
51.375007611313279
10
-70.832011226330351
20
45.424708420438016
10
-70.033007506882086
20
45.424708420438016
10
-70.0330075068821
20
42.475504492296423
10
-70.832011226330351
20
42.475504492296423
10
-70.832011226330351
20
41.475004618728519
0
LWPOLYLINE
5
121
100
AcDbEntity
8
0
100
AcDbPolyline
90
20
70
1
43
0.0
10
-51.782009166972728
20
111.47532016520081
10
-50.983009262222296
20
111.47532016520081
10
-50.983009262222296
20
108.52361379528226
10
-51.782009166972728
20
108.52361379528226
10
-51.782009166972728
20
102.57461541636729
10
-50.983009262222296
20
102.57461541636729
10
-50.983009262222296
20
99.625617481908577
10
-51.782009166972728
20
99.625617481908577
10
-51.782009166972728
20
98.625113793642853
10
-65.632806964846594
20
98.625113793642853
10
-65.632806964846594
20
99.625617481908577
10
-66.432207412869261
20
99.625617481908577
10
-66.432207412869261
20
102.57461541636729
10
-65.632806964846594
20
102.57461541636729
10
-65.632806964846594
20
108.52361379528226
10
-66.432207412869261
20
108.52361379528226
10
-66.432207412869261
20
111.47532016520081
10
-65.632806964846594
20
111.47532016520081
10
-65.632806964846594
20
112.4758162240709
10
-51.782009166972728
20
112.4758162240709
0
LWPOLYLINE
5
122
100
AcDbEntity
8
0
100
AcDbPolyline
90
20
70
1
43
0.0
10
-32.732205471902311
20
83.524708724455436
10
-31.932904206023242
20
83.524708724455436
10
-31.932904206023242
20
80.575512425709519
10
-32.732205471902311
20
80.575512425709519
10
-32.732205471902311
20
79.575008737443795
10
-46.582808720186797
20
79.575008737443767
10
-46.582808720186797
20
80.575512425709519
10
-47.382205353511637
20
80.575512425709519
10
-47.382205353511637
20
83.524708724455436
10
-46.582808720186797
20
83.524708724455436
10
-46.582808720186797
20
89.475011730028555
10
-47.382205353511637
20
89.475011730028555
10
-47.382205353511637
20
92.425314291145355
10
-46.582808720186797
20
92.425314291145355
10
-46.582808720186797
20
93.425810350015439
10
-32.732205471902311
20
93.425810350015439
10
-32.732205471902311
20
92.425314291145355
10
-31.932904206023242
20
92.425314291145355
10
-31.932904206023242
20
89.475011730028555
10
-32.732205471902311
20
89.475011730028555
0
LWPOLYLINE
5
123
100
AcDbEntity
8
0
100
AcDbPolyline
90
20
70
1
43
0.0
10
-13.682102323052172
20
64.474710479795618
10
-12.88290214666562
20
64.474710479795618
10
-12.88290214666562
20
61.525510366351881
10
-13.682102323052172
20
61.525510366351881
10
-13.682102323052172
20
60.525010492783977
10
-27.53290393562386
20
60.525010492783977
10
-27.532903935623857
20
61.525510366351881
10
-28.332104112010409
20
61.525510366351881
10
-28.332104112010413
20
64.474710479795618
10
-27.53290393562386
20
64.474710479795618
10
-27.532903935623857
20
70.425013485368737
10
-28.332104112010409
20
70.425013485368737
10
-28.332104112010413
20
73.375308417089897
10
-27.53290393562386
20
73.375308417089897
10
-27.53290393562386
20
74.375812105355664
10
-13.682102323052172
20
74.375812105355664
10
-13.682102323052172
20
73.375308417089897
10
-12.88290214666562
20
73.375308417089897
10
-12.88290214666562
20
70.425013485368737
10
-13.682102323052172
20
70.425013485368737
0
LWPOLYLINE
5
124
100
AcDbEntity
8
0
100
AcDbPolyline
90
20
70
1
43
0.0
10
-28.332104112010409
20
108.52361379528226
10
-28.332104112010409
20
111.47532016520081
10
-27.53290393562386
20
111.47532016520081
10
-27.53290393562386
20
112.4758162240709
10
-13.682102323052172
20
112.4758162240709
10
-13.682102323052172
20
111.47532016520081
10
-12.88290214666562
20
111.47532016520081
10
-12.88290214666562
20
108.52361379528226
10
-13.682102323052172
20
108.52361379528226
10
-13.682102323052172
20
102.57461541636729
10
-12.88290214666562
20
102.57461541636729
10
-12.88290214666562
20
99.625617481908577
10
-13.682102323052172
20
99.625617481908577
10
-13.682102323052172
20
98.625113793642853
10
-27.53290393562386
20
98.625113793642853
10
-27.53290393562386
20
99.625617481908577
10
-28.332104112010409
20
99.625617481908577
10
-28.332104112010413
20
102.57461541636729
10
-27.53290393562386
20
102.57461541636729
10
-27.53290393562386
20
108.52361379528226
0
LWPOLYLINE
5
125
100
AcDbEntity
8
0
100
AcDbPolyline
90
6
70
1
43
0.0
10
-46.392828104713473
20
0.025000004076325411
10
-46.392828104713473
20
19.825003700054626
10
-6.682100809150362
20
19.825003700054626
10
-6.6821008091503664
20
120.02501930783296
10
-91.682111971565774
20
120.02501930783296
10
-91.682111971565774
20
0.025000004076325411
0
CIRCLE
5
126
100
AcDbEntity
8
0
100
AcDbCircle
10
-55.732108256826727
20
14.325002122278594
30
0
40
1.1500000000000021
210
0
220
0
230
1
0
CIRCLE
5
127
100
AcDbEntity
8
0
100
AcDbCircle
10
-10.266775283377838
20
22.930205521674729
30
0
40
1.6000000000000003
210
0
220
0
230
1
0
CIRCLE
5
128
100
AcDbEntity
8
0
100
AcDbCircle
10
-55.732108256826727
20
14.325002122278594
30
0
40
1.5999999999999992
210
0
220
0
230
1
0
CIRCLE
5
129
100
AcDbEntity
8
0
100
AcDbCircle
10
-82.032112153226521
20
14.725002181539431
30
0
40
1.5999999999999992
210
0
220
0
230
1
0
CIRCLE
5
130
100
AcDbEntity
8
0
100
AcDbCircle
10
-11.132101649243813
20
116.22501721897586
30
0
40
1.5999999999999992
210
0
220
0
230
1
0
CIRCLE
5
131
100
AcDbEntity
8
0
100
AcDbCircle
10
-87.232112923617365
20
116.17501721156829
30
0
40
1.5999999999999992
210
0
220
0
230
1
0
LINE
5
132
100
AcDbEntity
8
0
100
AcDbLine
10
-6.6821008091503664
20
120.02501930783296
30
0
11
-91.682111971565774
21
120.02501930783296
31
0
0
LINE
5
133
100
AcDbEntity
8
0
100
AcDbLine
10
-91.682111971565774
20
120.02501930783296
30
0
11
-91.682111971565774
21
0.025000004076325411
31
0
0
LINE
5
134
100
AcDbEntity
8
0
100
AcDbLine
10
-91.682111971565774
20
0.025000004076325411
30
0
11
-46.392828104713473
21
0.025000004076325411
31
0
0
LINE
5
135
100
AcDbEntity
8
0
100
AcDbLine
10
-46.392828104713473
20
0.025000004076325411
30
0
11
-46.392828104713473
21
19.825003700054626
31
0
0
LINE
5
136
100
AcDbEntity
8
0
100
AcDbLine
10
-46.392828104713473
20
19.825003700054626
30
0
11
-6.682100809150362
21
19.825003700054626
31
0
0
LINE
5
137
100
AcDbEntity
8
0
100
AcDbLine
10
-6.682100809150362
20
19.825003700054626
30
0
11
-6.6821008091503664
21
120.02501930783296
31
0
0
LINE
5
138
100
AcDbEntity
8
0
100
AcDbLine
10
-13.682102323052172
20
22.425002559370917
30
0
11
-27.53290393562386
21
22.425002559370917
31
0
0
LINE
5
139
100
AcDbEntity
8
0
100
AcDbLine
10
-27.53290393562386
20
22.425002559370917
30
0
11
-27.53290393562386
21
23.425504340287731
31
0
0
LINE
5
140
100
AcDbEntity
8
0
100
AcDbLine
10
-27.53290393562386
20
23.425504340287731
30
0
11
-28.332104112010409
21
23.425504340287731
31
0
0
LINE
5
141
100
AcDbEntity
8
0
100
AcDbLine
10
-28.332104112010409
20
23.425504340287731
30
0
11
-28.332104112010413
21
26.374704453731468
31
0
0
LINE
5
142
100
AcDbEntity
8
0
100
AcDbLine
10
-28.332104112010413
20
26.374704453731468
30
0
11
-27.53290393562386
21
26.374704453731468
31
0
0
LINE
5
143
100
AcDbEntity
8
0
100
AcDbLine
10
-27.53290393562386
20
26.374704453731468
30
0
11
-27.53290393562386
21
32.325005551955677
31
0
0
LINE
5
144
100
AcDbEntity
8
0
100
AcDbLine
10
-27.53290393562386
20
32.325005551955677
30
0
11
-28.332104112010409
21
32.325005551955677
31
0
0
LINE
5
145
100
AcDbEntity
8
0
100
AcDbLine
10
-28.332104112010409
20
32.325005551955677
30
0
11
-28.332104112010409
21
35.275304298374692
31
0
0
LINE
5
146
100
AcDbEntity
8
0
100
AcDbLine
10
-28.332104112010409
20
35.275304298374692
30
0
11
-27.53290393562386
21
35.275304298374692
31
0
0
LINE
5
147
100
AcDbEntity
8
0
100
AcDbLine
10
-27.53290393562386
20
35.275304298374692
30
0
11
-27.53290393562386
21
36.275804171942596
31
0
0
LINE
5
148
100
AcDbEntity
8
0
100
AcDbLine
10
-27.53290393562386
20
36.275804171942596
30
0
11
-13.682102323052172
21
36.275804171942596
31
0
0
LINE
5
149
100
AcDbEntity
8
0
100
AcDbLine
10
-13.682102323052172
20
36.275804171942596
30
0
11
-13.682102323052172
21
35.275304298374692
31
0
0
LINE
5
150
100
AcDbEntity
8
0
100
AcDbLine
10
-13.682102323052172
20
35.275304298374692
30
0
11
-12.88290214666562
21
35.275304298374692
31
0
0
LINE
5
151
100
AcDbEntity
8
0
100
AcDbLine
10
-12.88290214666562
20
35.275304298374692
30
0
11
-12.88290214666562
21
32.325005551955677
31
0
0
LINE
5
152
100
AcDbEntity
8
0
100
AcDbLine
10
-12.88290214666562
20
32.325005551955677
30
0
11
-13.682102323052172
21
32.325005551955677
31
0
0
LINE
5
153
100
AcDbEntity
8
0
100
AcDbLine
10
-13.682102323052172
20
32.325005551955677
30
0
11
-13.682102323052172
21
26.374704453731468
31
0
0
LINE
5
154
100
AcDbEntity
8
0
100
AcDbLine
10
-13.682102323052172
20
26.374704453731468
30
0
11
-12.88290214666562
21
26.374704453731468
31
0
0
LINE
5
155
100
AcDbEntity
8
0
100
AcDbLine
10
-12.88290214666562
20
26.374704453731468
30
0
11
-12.88290214666562
21
23.425504340287731
31
0
0
LINE
5
156
100
AcDbEntity
8
0
100
AcDbLine
10
-12.88290214666562
20
23.425504340287731
30
0
11
-13.682102323052172
21
23.425504340287731
31
0
0
LINE
5
157
100
AcDbEntity
8
0
100
AcDbLine
10
-13.682102323052172
20
23.425504340287731
30
0
11
-13.682102323052172
21
22.425002559370917
31
0
0
LINE
5
158
100
AcDbEntity
8
0
100
AcDbLine
10
-46.583007084473998
20
26.374704453731468
30
0
11
-46.583007084473998
21
32.325005551955677
31
0
0
LWPOLYLINE
5
159
100
AcDbEntity
8
0
100
AcDbPolyline
90
20
70
1
43
0.0
10
-46.583007084473998
20
36.275804171942596
10
-32.732205471902311
20
36.275804171942596
10
-32.732205471902311
20
35.275304298374692
10
-31.933005295515756
20
35.275304298374692
10
-31.933005295515756
20
32.325005551955677
10
-32.732205471902311
20
32.325005551955677
10
-32.732205471902311
20
26.374704453731468
10
-31.933005295515756
20
26.374704453731468
10
-31.933005295515756
20
23.425504340287731
10
-32.732205471902311
20
23.425504340287731
10
-32.732205471902311
20
22.425002559370917
10
-46.583007084473998
20
22.425002559370917
10
-46.583007084473998
20
23.425504340287731
10
-47.382207260860554
20
23.425504340287731
10
-47.382207260860554
20
26.374704453731468
10
-46.583007084473998
20
26.374704453731468
10
-46.583007084473998
20
32.325005551955677
10
-47.382207260860554
20
32.325005551955677
10
-47.382207260860554
20
35.275304298374692
10
-46.583007084473998
20
35.275304298374692
0
LINE
5
160
100
AcDbEntity
8
0
100
AcDbLine
10
-32.732205471902311
20
35.275304298374692
30
0
11
-31.933005295515756
21
35.275304298374692
31
0
0
LINE
5
161
100
AcDbEntity
8
0
100
AcDbLine
10
-31.933005295515756
20
32.325005551955677
30
0
11
-32.732205471902311
21
32.325005551955677
31
0
0
LINE
5
162
100
AcDbEntity
8
0
100
AcDbLine
10
-46.583007084473998
20
36.275804171942596
30
0
11
-32.732205471902311
21
36.275804171942596
31
0
0
LINE
5
163
100
AcDbEntity
8
0
100
AcDbLine
10
-46.583007084473998
20
35.275304298374692
30
0
11
-46.583007084473998
21
36.275804171942596
31
0
0
LINE
5
164
100
AcDbEntity
8
0
100
AcDbLine
10
-46.583007084473998
20
23.425504340287731
30
0
11
-47.382207260860554
21
23.425504340287731
31
0
0
LINE
5
165
100
AcDbEntity
8
0
100
AcDbLine
10
-47.382207260860554
20
23.425504340287731
30
0
11
-47.382207260860554
21
26.374704453731468
31
0
0
LINE
5
166
100
AcDbEntity
8
0
100
AcDbLine
10
-31.933005295515756
20
35.275304298374692
30
0
11
-31.933005295515756
21
32.325005551955677
31
0
0
LINE
5
167
100
AcDbEntity
8
0
100
AcDbLine
10
-31.933005295515756
20
23.425504340287731
30
0
11
-32.732205471902311
21
23.425504340287731
31
0
0
LINE
5
168
100
AcDbEntity
8
0
100
AcDbLine
10
-32.732205471902311
20
22.425002559370917
30
0
11
-46.583007084473998
21
22.425002559370917
31
0
0
LINE
5
169
100
AcDbEntity
8
0
100
AcDbLine
10
-32.732205471902311
20
32.325005551955677
30
0
11
-32.732205471902311
21
26.374704453731468
31
0
0
LINE
5
170
100
AcDbEntity
8
0
100
AcDbLine
10
-31.933005295515756
20
26.374704453731468
30
0
11
-31.933005295515756
21
23.425504340287731
31
0
0
LINE
5
171
100
AcDbEntity
8
0
100
AcDbLine
10
-32.732205471902311
20
23.425504340287731
30
0
11
-32.732205471902311
21
22.425002559370917
31
0
0
LINE
5
172
100
AcDbEntity
8
0
100
AcDbLine
10
-46.583007084473998
20
22.425002559370917
30
0
11
-46.583007084473998
21
23.425504340287731
31
0
0
LINE
5
173
100
AcDbEntity
8
0
100
AcDbLine
10
-46.583007084473998
20
32.325005551955677
30
0
11
-47.382207260860554
21
32.325005551955677
31
0
0
LINE
5
174
100
AcDbEntity
8
0
100
AcDbLine
10
-32.732205471902311
20
26.374704453731468
30
0
11
-31.933005295515756
21
26.374704453731468
31
0
0
LINE
5
175
100
AcDbEntity
8
0
100
AcDbLine
10
-32.732205471902311
20
36.275804171942596
30
0
11
-32.732205471902311
21
35.275304298374692
31
0
0
LINE
5
176
100
AcDbEntity
8
0
100
AcDbLine
10
-47.382207260860554
20
26.374704453731468
30
0
11
-46.583007084473998
21
26.374704453731468
31
0
0
LINE
5
177
100
AcDbEntity
8
0
100
AcDbLine
10
-47.382207260860554
20
35.275304298374692
30
0
11
-46.583007084473998
21
35.275304298374692
31
0
0
LINE
5
178
100
AcDbEntity
8
0
100
AcDbLine
10
-47.382207260860554
20
32.325005551955677
30
0
11
-47.382207260860554
21
35.275304298374692
31
0
0
LINE
5
179
100
AcDbEntity
8
0
100
AcDbLine
10
-65.632810779544414
20
26.374704453731468
30
0
11
-65.632810779544414
21
32.325005551955677
31
0
0
LWPOLYLINE
5
180
100
AcDbEntity
8
0
100
AcDbPolyline
90
20
70
1
43
0.0
10
-65.632810779544414
20
36.275804171942596
10
-51.782009166972728
20
36.275804171942596
10
-51.782009166972728
20
35.275304298374692
10
-50.982808990586179
20
35.275304298374692
10
-50.982808990586179
20
32.325005551955677
10
-51.782009166972728
20
32.325005551955677
10
-51.782009166972728
20
26.374704453731468
10
-50.982808990586179
20
26.374704453731468
10
-50.982808990586179
20
23.425504340287731
10
-51.782009166972728
20
23.425504340287731
10
-51.782009166972728
20
22.425002559370917
10
-65.632810779544414
20
22.425002559370917
10
-65.632810779544414
20
23.425504340287731
10
-66.432010955930977
20
23.425504340287731
10
-66.432010955930977
20
26.374704453731468
10
-65.632810779544414
20
26.374704453731468
10
-65.632810779544414
20
32.325005551955677
10
-66.432010955930977
20
32.325005551955677
10
-66.432010955930977
20
35.275304298374692
10
-65.632810779544414
20
35.275304298374692
0
LINE
5
181
100
AcDbEntity
8
0
100
AcDbLine
10
-51.782009166972728
20
35.275304298374692
30
0
11
-50.982808990586179
21
35.275304298374692
31
0
0
LINE
5
182
100
AcDbEntity
8
0
100
AcDbLine
10
-50.982808990586179
20
32.325005551955677
30
0
11
-51.782009166972728
21
32.325005551955677
31
0
0
LINE
5
183
100
AcDbEntity
8
0
100
AcDbLine
10
-65.632810779544414
20
36.275804171942596
30
0
11
-51.782009166972728
21
36.275804171942596
31
0
0
LINE
5
184
100
AcDbEntity
8
0
100
AcDbLine
10
-65.632810779544414
20
35.275304298374692
30
0
11
-65.632810779544414
21
36.275804171942596
31
0
0
LINE
5
185
100
AcDbEntity
8
0
100
AcDbLine
10
-65.632810779544414
20
23.425504340287731
30
0
11
-66.432010955930977
21
23.425504340287731
31
0
0
LINE
5
186
100
AcDbEntity
8
0
100
AcDbLine
10
-66.432010955930977
20
23.425504340287731
30
0
11
-66.432010955930977
21
26.374704453731468
31
0
0
LINE
5
187
100
AcDbEntity
8
0
100
AcDbLine
10
-50.982808990586179
20
35.275304298374692
30
0
11
-50.982808990586179
21
32.325005551955677
31
0
0
LINE
5
188
100
AcDbEntity
8
0
100
AcDbLine
10
-50.982808990586179
20
23.425504340287731
30
0
11
-51.782009166972728
21
23.425504340287731
31
0
0
LINE
5
189
100
AcDbEntity
8
0
100
AcDbLine
10
-51.782009166972728
20
22.425002559370917
30
0
11
-65.632810779544414
21
22.425002559370917
31
0
0
LINE
5
190
100
AcDbEntity
8
0
100
AcDbLine
10
-51.782009166972728
20
32.325005551955677
30
0
11
-51.782009166972728
21
26.374704453731468
31
0
0
LINE
5
191
100
AcDbEntity
8
0
100
AcDbLine
10
-50.982808990586179
20
26.374704453731468
30
0
11
-50.982808990586179
21
23.425504340287731
31
0
0
LINE
5
192
100
AcDbEntity
8
0
100
AcDbLine
10
-51.782009166972728
20
23.425504340287731
30
0
11
-51.782009166972728
21
22.425002559370917
31
0
0
LINE
5
193
100
AcDbEntity
8
0
100
AcDbLine
10
-65.632810779544414
20
22.425002559370917
30
0
11
-65.632810779544414
21
23.425504340287731
31
0
0
LINE
5
194
100
AcDbEntity
8
0
100
AcDbLine
10
-65.632810779544414
20
32.325005551955677
30
0
11
-66.432010955930977
21
32.325005551955677
31
0
0
LINE
5
195
100
AcDbEntity
8
0
100
AcDbLine
10
-51.782009166972728
20
26.374704453731468
30
0
11
-50.982808990586179
21
26.374704453731468
31
0
0
LINE
5
196
100
AcDbEntity
8
0
100
AcDbLine
10
-51.782009166972728
20
36.275804171942596
30
0
11
-51.782009166972728
21
35.275304298374692
31
0
0
LINE
5
197
100
AcDbEntity
8
0
100
AcDbLine
10
-66.432010955930977
20
26.374704453731468
30
0
11
-65.632810779544414
21
26.374704453731468
31
0
0
LINE
5
198
100
AcDbEntity
8
0
100
AcDbLine
10
-66.432010955930977
20
35.275304298374692
30
0
11
-65.632810779544414
21
35.275304298374692
31
0
0
LINE
5
199
100
AcDbEntity
8
0
100
AcDbLine
10
-66.432010955930977
20
32.325005551955677
30
0
11
-66.432010955930977
21
35.275304298374692
31
0
0
LINE
5
200
100
AcDbEntity
8
0
100
AcDbLine
10
-84.682812838902038
20
26.374704453731468
30
0
11
-84.682812838902038
21
32.325005551955677
31
0
0
LWPOLYLINE
5
201
100
AcDbEntity
8
0
100
AcDbPolyline
90
20
70
1
43
0.0
10
-84.682812838902038
20
36.275804171942596
10
-70.832011226330351
20
36.275804171942596
10
-70.832011226330351
20
35.275304298374692
10
-70.032811049943803
20
35.275304298374692
10
-70.032811049943803
20
32.325005551955677
10
-70.832011226330351
20
32.325005551955677
10
-70.832011226330351
20
26.374704453731468
10
-70.032811049943803
20
26.374704453731468
10
-70.032811049943803
20
23.425504340287731
10
-70.832011226330351
20
23.425504340287731
10
-70.832011226330351
20
22.425002559370917
10
-84.682812838902038
20
22.425002559370917
10
-84.682812838902038
20
23.425504340287731
10
-85.482013015288601
20
23.425504340287731
10
-85.482013015288601
20
26.374704453731468
10
-84.682812838902038
20
26.374704453731468
10
-84.682812838902038
20
32.325005551955677
10
-85.482013015288601
20
32.325005551955677
10
-85.482013015288601
20
35.275304298374692
10
-84.682812838902038
20
35.275304298374692
0
LINE
5
202
100
AcDbEntity
8
0
100
AcDbLine
10
-70.832011226330351
20
35.275304298374692
30
0
11
-70.032811049943803
21
35.275304298374692
31
0
0
LINE
5
203
100
AcDbEntity
8
0
100
AcDbLine
10
-70.032811049943803
20
32.325005551955677
30
0
11
-70.832011226330351
21
32.325005551955677
31
0
0
LINE
5
204
100
AcDbEntity
8
0
100
AcDbLine
10
-84.682812838902038
20
36.275804171942596
30
0
11
-70.832011226330351
21
36.275804171942596
31
0
0
LINE
5
205
100
AcDbEntity
8
0
100
AcDbLine
10
-84.682812838902038
20
35.275304298374692
30
0
11
-84.682812838902038
21
36.275804171942596
31
0
0
LINE
5
206
100
AcDbEntity
8
0
100
AcDbLine
10
-84.682812838902038
20
23.425504340287731
30
0
11
-85.482013015288601
21
23.425504340287731
31
0
0
LINE
5
207
100
AcDbEntity
8
0
100
AcDbLine
10
-85.482013015288601
20
23.425504340287731
30
0
11
-85.482013015288601
21
26.374704453731468
31
0
0
LINE
5
208
100
AcDbEntity
8
0
100
AcDbLine
10
-70.032811049943803
20
35.275304298374692
30
0
11
-70.032811049943803
21
32.325005551955677
31
0
0
LINE
5
209
100
AcDbEntity
8
0
100
AcDbLine
10
-70.032811049943803
20
23.425504340287731
30
0
11
-70.832011226330351
21
23.425504340287731
31
0
0
LINE
5
210
100
AcDbEntity
8
0
100
AcDbLine
10
-70.832011226330351
20
22.425002559370917
30
0
11
-84.682812838902038
21
22.425002559370917
31
0
0
LINE
5
211
100
AcDbEntity
8
0
100
AcDbLine
10
-70.832011226330351
20
32.325005551955677
30
0
11
-70.832011226330351
21
26.374704453731468
31
0
0
LINE
5
212
100
AcDbEntity
8
0
100
AcDbLine
10
-70.032811049943803
20
26.374704453731468
30
0
11
-70.032811049943803
21
23.425504340287731
31
0
0
LINE
5
213
100
AcDbEntity
8
0
100
AcDbLine
10
-70.832011226330351
20
23.425504340287731
30
0
11
-70.832011226330351
21
22.425002559370917
31
0
0
LINE
5
214
100
AcDbEntity
8
0
100
AcDbLine
10
-84.682812838902038
20
22.425002559370917
30
0
11
-84.682812838902038
21
23.425504340287731
31
0
0
LINE
5
215
100
AcDbEntity
8
0
100
AcDbLine
10
-84.682812838902038
20
32.325005551955677
30
0
11
-85.482013015288601
21
32.325005551955677
31
0
0
LINE
5
216
100
AcDbEntity
8
0
100
AcDbLine
10
-70.832011226330351
20
26.374704453731468
30
0
11
-70.032811049943803
21
26.374704453731468
31
0
0
LINE
5
217
100
AcDbEntity
8
0
100
AcDbLine
10
-70.832011226330351
20
36.275804171942596
30
0
11
-70.832011226330351
21
35.275304298374692
31
0
0
LINE
5
218
100
AcDbEntity
8
0
100
AcDbLine
10
-85.482013015288601
20
26.374704453731468
30
0
11
-84.682812838902038
21
26.374704453731468
31
0
0
LINE
5
219
100
AcDbEntity
8
0
100
AcDbLine
10
-85.482013015288601
20
35.275304298374692
30
0
11
-84.682812838902038
21
35.275304298374692
31
0
0
LINE
5
220
100
AcDbEntity
8
0
100
AcDbLine
10
-85.482013015288601
20
32.325005551955677
30
0
11
-85.482013015288601
21
35.275304298374692
31
0
0
LWPOLYLINE
5
221
100
AcDbEntity
8
0
100
AcDbPolyline
90
20
70
1
43
0.0
10
-51.782009166972728
20
61.525510366351881
10
-51.782009166972728
20
60.525010492783977
10
-65.632806964846594
20
60.525010492783977
10
-65.632806964846594
20
61.525510366351881
10
-66.432207412869261
20
61.525510366351881
10
-66.432207412869261
20
64.474714294493481
10
-65.632806964846594
20
64.474714294493481
10
-65.632806964846594
20
70.425013485368737
10
-66.432207412869261
20
70.425013485368737
10
-66.432207412869261
20
73.375312231787746
10
-65.632806964846594
20
73.375312231787746
10
-65.632806964846594
20
74.375815920053512
10
-51.782009166972728
20
74.375815920053512
10
-51.782009166972728
20
73.375312231787746
10
-50.983009262222296
20
73.375312231787746
10
-50.983009262222296
20
70.425013485368737
10
-51.782009166972728
20
70.425013485368737
10
-51.782009166972728
20
64.474714294493481
10
-50.983009262222296
20
64.474714294493481
10
-50.983009262222296
20
61.525510366351881
0
LWPOLYLINE
5
222
100
AcDbEntity
8
0
100
AcDbPolyline
90
20
70
1
43
0.0
10
-13.682102323052172
20
61.525510366351881
10
-13.682102323052172
20
60.525010492783977
10
-27.53290393562386
20
60.525010492783977
10
-27.532903935623857
20
61.525510366351881
10
-28.332104112010409
20
61.525510366351881
10
-28.332104112010413
20
64.474714294493481
10
-27.53290393562386
20
64.474714294493481
10
-27.532903935623857
20
70.425013485368737
10
-28.332104112010409
20
70.425013485368737
10
-28.332104112010409
20
73.375312231787746
10
-27.53290393562386
20
73.375312231787746
10
-27.53290393562386
20
74.375815920053512
10
-13.682102323052172
20
74.375815920053512
10
-13.682102323052172
20
73.375312231787746
10
-12.88290214666562
20
73.375312231787746
10
-12.88290214666562
20
70.425013485368737
10
-13.682102323052172
20
70.425013485368737
10
-13.682102323052172
20
64.474714294493481
10
-12.88290214666562
20
64.474714294493481
10
-12.88290214666562
20
61.525510366351881
0
LWPOLYLINE
5
223
100
AcDbEntity
8
0
100
AcDbPolyline
90
20
70
1
43
0.0
10
-32.732205471902311
20
61.525510366351881
10
-32.732205471902311
20
60.525010492783977
10
-46.582808720186797
20
60.525010492783977
10
-46.582808720186797
20
61.525510366351881
10
-47.382205353511637
20
61.525510366351881
10
-47.382205353511637
20
64.474714294493481
10
-46.582808720186797
20
64.474714294493481
10
-46.582808720186797
20
70.425013485368737
10
-47.382205353511637
20
70.425013485368737
10
-47.382205353511637
20
73.375312231787746
10
-46.582808720186797
20
73.375312231787746
10
-46.582808720186797
20
74.375815920053512
10
-32.732205471902311
20
74.375815920053512
10
-32.732205471902311
20
73.375312231787746
10
-31.932904206023242
20
73.375312231787746
10
-31.932904206023242
20
70.425013485368737
10
-32.732205471902311
20
70.425013485368737
10
-32.732205471902311
20
64.474714294493481
10
-31.932904206023242
20
64.474714294493481
10
-31.932904206023242
20
61.525510366351881
0
LWPOLYLINE
5
224
100
AcDbEntity
8
0
100
AcDbPolyline
90
20
70
1
43
0.0
10
-70.832011226330351
20
61.525510366351881
10
-70.832011226330351
20
60.525010492783977
10
-84.682812838902052
20
60.525010492783977
10
-84.682812838902052
20
61.525510366351881
10
-85.482213286924704
20
61.525510366351881
10
-85.482213286924718
20
64.474714294493481
10
-84.682812838902052
20
64.474714294493481
10
-84.682812838902052
20
70.425013485368737
10
-85.482213286924704
20
70.425013485368737
10
-85.482213286924704
20
73.375312231787746
10
-84.682812838902052
20
73.375312231787746
10
-84.682812838902052
20
74.375815920053512
10
-70.832011226330351
20
74.375815920053512
10
-70.832011226330351
20
73.375312231787746
10
-70.033007506882086
20
73.375312231787746
10
-70.033007506882086
20
70.425013485368737
10
-70.832011226330351
20
70.425013485368737
10
-70.832011226330351
20
64.474714294493481
10
-70.033007506882086
20
64.474714294493481
10
-70.0330075068821
20
61.525510366351881
0
LWPOLYLINE
5
225
100
AcDbEntity
8
0
100
AcDbPolyline
90
20
70
1
43
0.0
10
-51.782009166972728
20
42.475504492296423
10
-51.782009166972728
20
41.475004618728519
10
-65.632806964846594
20
41.475004618728519
10
-65.632806964846594
20
42.475504492296423
10
-66.432207412869261
20
42.475504492296423
10
-66.432207412869261
20
45.424708420438016
10
-65.632806964846594
20
45.424708420438016
10
-65.632806964846594
20
51.375007611313279
10
-66.432207412869261
20
51.375007611313279
10
-66.432207412869261
20
54.325306357732295
10
-65.632806964846594
20
54.325306357732295
10
-65.632806964846594
20
55.325810045998054
10
-51.782009166972728
20
55.325810045998054
10
-51.782009166972728
20
54.325306357732295
10
-50.983009262222296
20
54.325306357732295
10
-50.983009262222296
20
51.375007611313279
10
-51.782009166972728
20
51.375007611313279
10
-51.782009166972728
20
45.424708420438016
10
-50.983009262222296
20
45.424708420438016
10
-50.983009262222296
20
42.475504492296423
0
LWPOLYLINE
5
226
100
AcDbEntity
8
0
100
AcDbPolyline
90
20
70
1
43
0.0
10
-13.682102323052172
20
42.475504492296423
10
-13.682102323052172
20
41.475004618728519
10
-27.53290393562386
20
41.475004618728519
10
-27.532903935623857
20
42.475504492296423
10
-28.332104112010409
20
42.475504492296423
10
-28.332104112010413
20
45.424708420438016
10
-27.53290393562386
20
45.424708420438016
10
-27.532903935623857
20
51.375007611313279
10
-28.332104112010409
20
51.375007611313279
10
-28.332104112010409
20
54.325306357732295
10
-27.53290393562386
20
54.325306357732295
10
-27.53290393562386
20
55.325810045998054
10
-13.682102323052172
20
55.325810045998054
10
-13.682102323052172
20
54.325306357732295
10
-12.88290214666562
20
54.325306357732295
10
-12.88290214666562
20
51.375007611313279
10
-13.682102323052172
20
51.375007611313279
10
-13.682102323052172
20
45.424708420438016
10
-12.88290214666562
20
45.424708420438016
10
-12.88290214666562
20
42.475504492296423
0
LWPOLYLINE
5
227
100
AcDbEntity
8
0
100
AcDbPolyline
90
20
70
1
43
0.0
10
-32.732205471902311
20
42.475504492296423
10
-32.732205471902311
20
41.475004618728519
10
-46.582808720186797
20
41.475004618728519
10
-46.582808720186797
20
42.475504492296423
10
-47.382205353511637
20
42.475504492296423
10
-47.382205353511637
20
45.424708420438016
10
-46.582808720186797
20
45.424708420438016
10
-46.582808720186797
20
51.375007611313279
10
-47.382205353511637
20
51.375007611313279
10
-47.382205353511637
20
54.325306357732295
10
-46.582808720186797
20
54.325306357732295
10
-46.582808720186797
20
55.325810045998054
10
-32.732205471902311
20
55.325810045998054
10
-32.732205471902311
20
54.325306357732295
10
-31.932904206023242
20
54.325306357732295
10
-31.932904206023242
20
51.375007611313279
10
-32.732205471902311
20
51.375007611313279
10
-32.732205471902311
20
45.424708420438016
10
-31.932904206023242
20
45.424708420438016
10
-31.932904206023242
20
42.475504492296423
0
LWPOLYLINE
5
228
100
AcDbEntity
8
0
100
AcDbPolyline
90
20
70
1
43
0.0
10
-70.832011226330351
20
42.475504492296423
10
-70.832011226330351
20
41.475004618728519
10
-84.682812838902052
20
41.475004618728519
10
-84.682812838902052
20
42.475504492296423
10
-85.482213286924704
20
42.475504492296423
10
-85.482213286924718
20
45.424708420438016
10
-84.682812838902052
20
45.424708420438016
10
-84.682812838902052
20
51.375007611313279
10
-85.482213286924704
20
51.375007611313279
10
-85.482213286924704
20
54.325306357732295
10
-84.682812838902052
20
54.325306357732295
10
-84.682812838902052
20
55.325810045998054
10
-70.832011226330351
20
55.325810045998054
10
-70.832011226330351
20
54.325306357732295
10
-70.033007506882086
20
54.325306357732295
10
-70.033007506882086
20
51.375007611313279
10
-70.832011226330351
20
51.375007611313279
10
-70.832011226330351
20
45.424708420438016
10
-70.033007506882086
20
45.424708420438016
10
-70.0330075068821
20
42.475504492296423
0
LWPOLYLINE
5
229
100
AcDbEntity
8
0
100
AcDbPolyline
90
20
70
1
43
0.0
10
-51.782009166972728
20
80.575508611011699
10
-51.782009166972728
20
79.575008737443795
10
-65.632806964846594
20
79.575008737443795
10
-65.632806964846594
20
80.575508611011699
10
-66.432207412869261
20
80.575508611011699
10
-66.432207412869261
20
83.524712539153285
10
-65.632806964846594
20
83.524712539153285
10
-65.632806964846594
20
89.475011730028555
10
-66.432207412869261
20
89.475011730028555
10
-66.432207412869261
20
92.425310476447578
10
-65.632806964846594
20
92.425310476447578
10
-65.632806964846594
20
93.42581416471333
10
-51.782009166972728
20
93.42581416471333
10
-51.782009166972728
20
92.425310476447578
10
-50.983009262222296
20
92.425310476447578
10
-50.983009262222296
20
89.475011730028555
10
-51.782009166972728
20
89.475011730028555
10
-51.782009166972728
20
83.524712539153285
10
-50.983009262222296
20
83.524712539153285
10
-50.983009262222296
20
80.575508611011699
0
LWPOLYLINE
5
230
100
AcDbEntity
8
0
100
AcDbPolyline
90
20
70
1
43
0.0
10
-13.682102323052172
20
80.575508611011699
10
-13.682102323052172
20
79.575008737443795
10
-27.53290393562386
20
79.575008737443795
10
-27.532903935623857
20
80.575508611011699
10
-28.332104112010409
20
80.575508611011699
10
-28.332104112010413
20
83.524712539153285
10
-27.53290393562386
20
83.524712539153285
10
-27.532903935623857
20
89.475011730028555
10
-28.332104112010409
20
89.475011730028555
10
-28.332104112010409
20
92.425310476447578
10
-27.53290393562386
20
92.425310476447578
10
-27.53290393562386
20
93.42581416471333
10
-13.682102323052172
20
93.42581416471333
10
-13.682102323052172
20
92.425310476447578
10
-12.88290214666562
20
92.425310476447578
10
-12.88290214666562
20
89.475011730028555
10
-13.682102323052172
20
89.475011730028555
10
-13.682102323052172
20
83.524712539153285
10
-12.88290214666562
20
83.524712539153285
10
-12.88290214666562
20
80.575508611011699
0
LWPOLYLINE
5
231
100
AcDbEntity
8
0
100
AcDbPolyline
90
20
70
1
43
0.0
10
-32.732205471902311
20
80.575508611011699
10
-32.732205471902311
20
79.575008737443795
10
-46.582808720186797
20
79.575008737443795
10
-46.582808720186797
20
80.575508611011699
10
-47.382205353511637
20
80.575508611011699
10
-47.382205353511637
20
83.524712539153285
10
-46.582808720186797
20
83.524712539153285
10
-46.582808720186797
20
89.475011730028555
10
-47.382205353511637
20
89.475011730028555
10
-47.382205353511637
20
92.425310476447578
10
-46.582808720186797
20
92.425310476447578
10
-46.582808720186797
20
93.42581416471333
10
-32.732205471902311
20
93.42581416471333
10
-32.732205471902311
20
92.425310476447578
10
-31.932904206023242
20
92.425310476447578
10
-31.932904206023242
20
89.475011730028555
10
-32.732205471902311
20
89.475011730028555
10
-32.732205471902311
20
83.524712539153285
10
-31.932904206023242
20
83.524712539153285
10
-31.932904206023242
20
80.575508611011699
0
LWPOLYLINE
5
232
100
AcDbEntity
8
0
100
AcDbPolyline
90
20
70
1
43
0.0
10
-70.832011226330351
20
80.575508611011699
10
-70.832011226330351
20
79.575008737443795
10
-84.682812838902052
20
79.575008737443795
10
-84.682812838902052
20
80.575508611011699
10
-85.482213286924704
20
80.575508611011699
10
-85.482213286924718
20
83.524712539153285
10
-84.682812838902052
20
83.524712539153285
10
-84.682812838902052
20
89.475011730028555
10
-85.482213286924704
20
89.475011730028555
10
-85.482213286924704
20
92.425310476447578
10
-84.682812838902052
20
92.425310476447578
10
-84.682812838902052
20
93.42581416471333
10
-70.832011226330351
20
93.42581416471333
10
-70.832011226330351
20
92.425310476447578
10
-70.033007506882086
20
92.425310476447578
10
-70.033007506882086
20
89.475011730028555
10
-70.832011226330351
20
89.475011730028555
10
-70.832011226330351
20
83.524712539153285
10
-70.033007506882086
20
83.524712539153285
10
-70.0330075068821
20
80.575508611011699
0
LWPOLYLINE
5
233
100
AcDbEntity
8
0
100
AcDbPolyline
90
20
70
1
43
0.0
10
-12.88290214666562
20
108.52361379528226
10
-13.682102323052172
20
108.52361379528226
10
-13.682102323052172
20
102.57461541636729
10
-12.88290214666562
20
102.57461541636729
10
-12.88290214666562
20
99.625617481908577
10
-13.682102323052172
20
99.625617481908577
10
-13.682102323052172
20
98.625113793642853
10
-27.53290393562386
20
98.625113793642853
10
-27.53290393562386
20
99.625617481908577
10
-28.332104112010409
20
99.625617481908577
10
-28.332104112010413
20
102.57461541636729
10
-27.53290393562386
20
102.57461541636729
10
-27.53290393562386
20
108.52361379528226
10
-28.332104112010409
20
108.52361379528226
10
-28.332104112010409
20
111.47532016520081
10
-27.53290393562386
20
111.47532016520081
10
-27.53290393562386
20
112.4758162240709
10
-13.682102323052172
20
112.4758162240709
10
-13.682102323052172
20
111.47532016520081
10
-12.88290214666562
20
111.47532016520081
0
LWPOLYLINE
5
234
100
AcDbEntity
8
0
100
AcDbPolyline
90
20
70
1
43
0.0
10
-51.782009166972728
20
98.625113793642853
10
-65.632806964846594
20
98.625113793642853
10
-65.632806964846594
20
99.625617481908577
10
-66.432207412869261
20
99.625617481908577
10
-66.432207412869261
20
102.57461541636729
10
-65.632806964846594
20
102.57461541636729
10
-65.632806964846594
20
108.52361379528226
10
-66.432207412869261
20
108.52361379528226
10
-66.432207412869261
20
111.47532016520081
10
-65.632806964846594
20
111.47532016520081
10
-65.632806964846594
20
112.4758162240709
10
-51.782009166972728
20
112.4758162240709
10
-51.782009166972728
20
111.47532016520081
10
-50.983009262222296
20
111.47532016520081
10
-50.983009262222296
20
108.52361379528226
10
-51.782009166972728
20
108.52361379528226
10
-51.782009166972728
20
102.57461541636729
10
-50.983009262222296
20
102.57461541636729
10
-50.983009262222296
20
99.625617481908577
10
-51.782009166972728
20
99.625617481908577
0
LWPOLYLINE
5
235
100
AcDbEntity
8
0
100
AcDbPolyline
90
20
70
1
43
0.0
10
-32.732205471902311
20
111.47532016520081
10
-31.932904206023242
20
111.47532016520081
10
-31.932904206023242
20
108.52361379528226
10
-32.732205471902311
20
108.52361379528226
10
-32.732205471902311
20
102.57461541636729
10
-31.932904206023242
20
102.57461541636729
10
-31.932904206023242
20
99.625617481908577
10
-32.732205471902311
20
99.625617481908577
10
-32.732205471902311
20
98.625113793642853
10
-46.582808720186797
20
98.625113793642853
10
-46.582808720186797
20
99.625617481908577
10
-47.382205353511637
20
99.625617481908577
10
-47.382205353511637
20
102.57461541636729
10
-46.582808720186797
20
102.57461541636729
10
-46.582808720186797
20
108.52361379528226
10
-47.382205353511637
20
108.52361379528226
10
-47.382205353511637
20
111.47532016520081
10
-46.582808720186797
20
111.47532016520081
10
-46.582808720186797
20
112.4758162240709
10
-32.732205471902311
20
112.4758162240709
0
LWPOLYLINE
5
236
100
AcDbEntity
8
0
100
AcDbPolyline
90
20
70
1
43
0.0
10
-85.482213286924718
20
102.57461541636729
10
-84.682812838902052
20
102.57461541636729
10
-84.682812838902038
20
108.52361379528226
10
-85.482213286924704
20
108.52361379528226
10
-85.482213286924704
20
111.47532016520081
10
-84.682812838902052
20
111.47532016520081
10
-84.682812838902052
20
112.4758162240709
10
-70.832011226330351
20
112.4758162240709
10
-70.832011226330351
20
111.47532016520081
10
-70.033007506882086
20
111.47532016520081
10
-70.033007506882086
20
108.52361379528226
10
-70.832011226330351
20
108.52361379528226
10
-70.832011226330351
20
102.57461541636729
10
-70.033007506882086
20
102.57461541636729
10
-70.0330075068821
20
99.625617481908577
10
-70.832011226330351
20
99.625617481908577
10
-70.832011226330351
20
98.625113793642853
10
-84.682812838902052
20
98.625113793642853
10
-84.682812838902038
20
99.625617481908577
10
-85.482213286924704
20
99.625617481908577
0
ENDSEC
0
SECTION
2
OBJECTS
0
DICTIONARY
5
C
100
AcDbDictionary
3
ACAD_GROUP
350
D
3
ACAD_MLINESTYLE
350
17
0
DICTIONARY
5
D
100
AcDbDictionary
0
DICTIONARY
5
1A
330
C
100
AcDbDictionary
0
DICTIONARY
5
17
100
AcDbDictionary
0
ENDSEC
0
EOF
