0
SECTION
2
HEADER
9
$INSUNITS
70
4
9
$ACADVER
1
AC1014
9
$HANDSEED
5
FFFF
0
ENDSEC
0
SECTION
2
TABLES
0
TABLE
2
VPORT
5
8
100
AcDbSymbolTable
0
ENDTAB
0
TABLE
2
LTYPE
5
5
100
AcDbSymbolTable
0
LTYPE
5
14
100
AcDbSymbolTableRecord
100
AcDbLinetypeTableRecord
2
BYBLOCK
70
0
0
LTYPE
5
15
100
AcDbSymbolTableRecord
100
AcDbLinetypeTableRecord
2
BYLAYER
70
0
0
LTYPE
5
16
100
AcDbSymbolTableRecord
100
AcDbLinetypeTableRecord
2
DASHED
70
0
3
Dashed __ __ __ __ __ __ __ __ __ __ __ __ __ _
72
65
73
2
40
0.75
49
0.5
74
0
49
-0.25
74
0
0
ENDTAB
0
TABLE
2
LAYER
5
2
100
AcDbSymbolTable
70
2
0
LAYER
5
50
100
AcDbSymbolTableRecord
100
AcDbLayerTableRecord
2
0
70
0
62
7
6
CONTINUOUS
0
ENDTAB
0
TABLE
2
STYLE
5
3
100
AcDbSymbolTable
70
1
0
STYLE
5
11
100
AcDbSymbolTableRecord
100
AcDbTextStyleTableRecord
2
STANDARD
70
0
0
ENDTAB
0
TABLE
2
VIEW
5
6
100
AcDbSymbolTable
70
0
0
ENDTAB
0
TABLE
2
UCS
5
7
100
AcDbSymbolTable
70
0
0
ENDTAB
0
TABLE
2
APPID
5
9
100
AcDbSymbolTable
70
2
0
APPID
5
12
100
AcDbSymbolTableRecord
100
AcDbRegAppTableRecord
2
ACAD
70
0
0
ENDTAB
0
TABLE
2
DIMSTYLE
5
A
100
AcDbSymbolTable
70
1
0
ENDTAB
0
TABLE
2
BLOCK_RECORD
5
1
100
AcDbSymbolTable
70
1
0
BLOCK_RECORD
5
1F
100
AcDbSymbolTableRecord
100
AcDbBlockTableRecord
2
*MODEL_SPACE
0
BLOCK_RECORD
5
1B
100
AcDbSymbolTableRecord
100
AcDbBlockTableRecord
2
*PAPER_SPACE
0
ENDTAB
0
ENDSEC
0
SECTION
2
BLOCKS
0
BLOCK
5
20
100
AcDbEntity
100
AcDbBlockBegin
2
*MODEL_SPACE
0
ENDBLK
5
21
100
AcDbEntity
100
AcDbBlockEnd
0
BLOCK
5
1C
100
AcDbEntity
100
AcDbBlockBegin
2
*PAPER_SPACE
0
ENDBLK
5
1D
100
AcDbEntity
100
AcDbBlockEnd
0
ENDSEC
0
SECTION
2
ENTITIES
0
CIRCLE
5
100
100
AcDbEntity
8
0
100
AcDbCircle
10
-87.232112923617365
20
116.17501721156829
30
0
40
2.450000362972613
210
0
220
-0
230
1
0
LWPOLYLINE
5
101
100
AcDbEntity
8
0
100
AcDbPolyline
90
6
70
1
43
0.0
10
-6.6821008091503664
20
120.02501930783295
10
-91.682111971565774
20
120.02501930783295
10
-91.682111971565774
20
0.025000004076325411
10
-46.392828104713473
20
0.025000004076325411
10
-46.392828104713473
20
19.825003700054626
10
-6.6821008091503664
20
19.825003700054626
0
CIRCLE
5
102
100
AcDbEntity
8
0
100
AcDbCircle
10
-11.132101649243808
20
116.22501721897589
30
0
40
2.4500003629726064
210
0
220
-0
230
1
0
CIRCLE
5
103
100
AcDbEntity
8
0
100
AcDbCircle
10
-10.266775283377838
20
22.930205521674722
30
0
40
2.4500003629726064
210
0
220
-0
230
1
0
CIRCLE
5
104
100
AcDbEntity
8
0
100
AcDbCircle
10
-82.032112153226521
20
14.725002181539429
30
0
40
2.450000362972613
210
0
220
-0
230
1
0
CIRCLE
5
105
100
AcDbEntity
8
0
100
AcDbCircle
10
-55.732108256826727
20
14.325002122278594
30
0
40
2.4500003629726037
210
0
220
-0
230
1
0
LINE
5
106
100
AcDbEntity
8
0
100
AcDbLine
10
-88.68211197156576
20
112.47581622407091
30
0
11
-84.682812838902052
21
112.47581622407091
31
0
0
LINE
5
107
100
AcDbEntity
8
0
100
AcDbLine
10
-84.682812838902052
20
112.47581622407091
30
0
11
-84.682812838902052
21
112.47591540621454
31
0
0
LINE
5
108
100
AcDbEntity
8
0
100
AcDbLine
10
-84.682812838902052
20
112.47591540621454
30
0
11
-70.832011226330366
21
112.47591540621454
31
0
0
LINE
5
109
100
AcDbEntity
8
0
100
AcDbLine
10
-70.832011226330366
20
112.47591540621454
30
0
11
-70.832011226330366
21
112.47581622407091
31
0
0
LINE
5
110
100
AcDbEntity
8
0
100
AcDbLine
10
-70.832011226330366
20
112.47581622407091
30
0
11
-65.632810779544414
21
112.47581622407091
31
0
0
LINE
5
111
100
AcDbEntity
8
0
100
AcDbLine
10
-65.632810779544414
20
112.47581622407091
30
0
11
-65.632810779544414
21
112.47591540621454
31
0
0
LINE
5
112
100
AcDbEntity
8
0
100
AcDbLine
10
-65.632810779544414
20
112.47591540621454
30
0
11
-51.782009166972728
21
112.47591540621454
31
0
0
LINE
5
113
100
AcDbEntity
8
0
100
AcDbLine
10
-51.782009166972728
20
112.47591540621454
30
0
11
-51.782009166972728
21
112.47581622407091
31
0
0
LINE
5
114
100
AcDbEntity
8
0
100
AcDbLine
10
-51.782009166972728
20
112.47581622407091
30
0
11
-46.583007084473998
21
112.47581622407091
31
0
0
LINE
5
115
100
AcDbEntity
8
0
100
AcDbLine
10
-46.583007084473998
20
112.47581622407091
30
0
11
-46.583007084473998
21
112.47591540621454
31
0
0
LINE
5
116
100
AcDbEntity
8
0
100
AcDbLine
10
-46.583007084473998
20
112.47591540621454
30
0
11
-32.732205471902311
21
112.47591540621454
31
0
0
LINE
5
117
100
AcDbEntity
8
0
100
AcDbLine
10
-32.732205471902311
20
112.47591540621454
30
0
11
-32.732205471902311
21
112.47581622407091
31
0
0
LINE
5
118
100
AcDbEntity
8
0
100
AcDbLine
10
-32.732205471902311
20
112.47581622407091
30
0
11
-27.53290393562386
21
112.47581622407091
31
0
0
LINE
5
119
100
AcDbEntity
8
0
100
AcDbLine
10
-27.53290393562386
20
112.47581622407091
30
0
11
-27.53290393562386
21
112.47591540621454
31
0
0
LINE
5
120
100
AcDbEntity
8
0
100
AcDbLine
10
-27.53290393562386
20
112.47591540621454
30
0
11
-13.682102323052172
21
112.47591540621454
31
0
0
LINE
5
121
100
AcDbEntity
8
0
100
AcDbLine
10
-13.682102323052172
20
112.47591540621454
30
0
11
-13.682102323052172
21
112.47581622407091
31
0
0
LINE
5
122
100
AcDbEntity
8
0
100
AcDbLine
10
-12.89999971166254
20
112.47581622407091
30
0
11
-12.899999711662531
21
22.425002559370899
31
0
0
LINE
5
123
100
AcDbEntity
8
0
100
AcDbLine
10
-12.899999711662531
20
22.425002559370899
30
0
11
-85.482213286924704
21
22.425002559370899
31
0
0
LINE
5
124
100
AcDbEntity
8
0
100
AcDbLine
10
-85.482213286924704
20
22.425002559370899
30
0
11
-85.482213286924718
21
35.275304298374678
31
0
0
LINE
5
125
100
AcDbEntity
8
0
100
AcDbLine
10
-85.482213286924718
20
35.275304298374678
30
0
11
-88.68211197156576
21
35.275304298374678
31
0
0
LINE
5
126
100
AcDbEntity
8
0
100
AcDbLine
10
-88.68211197156576
20
35.275304298374678
30
0
11
-88.68211197156576
21
42.475504492296437
31
0
0
LINE
5
127
100
AcDbEntity
8
0
100
AcDbLine
10
-88.68211197156576
20
42.475504492296437
30
0
11
-85.482213286924704
21
42.475504492296437
31
0
0
LINE
5
128
100
AcDbEntity
8
0
100
AcDbLine
10
-85.482213286924704
20
42.475504492296437
30
0
11
-85.482213286924704
21
54.325306357732302
31
0
0
LINE
5
129
100
AcDbEntity
8
0
100
AcDbLine
10
-85.482213286924704
20
54.325306357732302
30
0
11
-88.68211197156576
21
54.325306357732302
31
0
0
LINE
5
130
100
AcDbEntity
8
0
100
AcDbLine
10
-88.68211197156576
20
54.325306357732302
30
0
11
-88.68211197156576
21
61.525510366351895
31
0
0
LINE
5
131
100
AcDbEntity
8
0
100
AcDbLine
10
-88.68211197156576
20
61.525510366351895
30
0
11
-85.482213286924704
21
61.525510366351895
31
0
0
LINE
5
132
100
AcDbEntity
8
0
100
AcDbLine
10
-85.482213286924704
20
61.525510366351895
30
0
11
-85.482213286924718
21
73.375308417089926
31
0
0
LINE
5
133
100
AcDbEntity
8
0
100
AcDbLine
10
-85.482213286924718
20
73.375308417089926
30
0
11
-88.68211197156576
21
73.375308417089926
31
0
0
LINE
5
134
100
AcDbEntity
8
0
100
AcDbLine
10
-88.68211197156576
20
73.375308417089926
30
0
11
-88.68211197156576
21
80.575512425709519
31
0
0
LINE
5
135
100
AcDbEntity
8
0
100
AcDbLine
10
-88.68211197156576
20
80.575512425709519
30
0
11
-85.482213286924704
21
80.575512425709519
31
0
0
LINE
5
136
100
AcDbEntity
8
0
100
AcDbLine
10
-85.482213286924704
20
80.575512425709519
30
0
11
-85.482213286924718
21
92.425314291145369
31
0
0
LINE
5
137
100
AcDbEntity
8
0
100
AcDbLine
10
-85.482213286924718
20
92.425314291145369
30
0
11
-88.68211197156576
21
92.425314291145369
31
0
0
LINE
5
138
100
AcDbEntity
8
0
100
AcDbLine
10
-88.68211197156576
20
92.425314291145369
30
0
11
-88.68211197156576
21
99.625617481908577
31
0
0
LINE
5
139
100
AcDbEntity
8
0
100
AcDbLine
10
-88.68211197156576
20
99.625617481908577
30
0
11
-85.482213286924704
21
99.625617481908577
31
0
0
LINE
5
140
100
AcDbEntity
8
0
100
AcDbLine
10
-85.482213286924704
20
99.625617481908577
30
0
11
-85.482213286924704
21
106.53195508125722
31
0
0
LINE
5
141
100
AcDbEntity
8
0
100
AcDbLine
10
-85.482213286924704
20
106.53195508125722
30
0
11
-88.68211197156576
21
106.53195508125722
31
0
0
LINE
5
142
100
AcDbEntity
8
0
100
AcDbLine
10
-88.68211197156576
20
106.53195508125722
30
0
11
-88.68211197156576
21
112.47581622407091
31
0
0
LINE
5
143
100
AcDbEntity
8
0
100
AcDbLine
10
-6.6821008091503664
20
19.825003700054626
30
0
11
-46.392828104713473
21
19.825003700054626
31
0
0
LINE
5
144
100
AcDbEntity
8
0
100
AcDbLine
10
-46.392828104713473
20
0.025000004076325411
30
0
11
-91.682111971565774
21
0.025000004076325411
31
0
0
LINE
5
145
100
AcDbEntity
8
0
100
AcDbLine
10
-91.682111971565774
20
120.02501930783295
30
0
11
-6.6821008091503664
21
120.02501930783295
31
0
0
LINE
5
146
100
AcDbEntity
8
0
100
AcDbLine
10
-12.899999711662531
20
22.425002559370899
30
0
11
-85.482213286924704
21
22.425002559370899
31
0
0
LINE
5
147
100
AcDbEntity
8
0
100
AcDbLine
10
-85.482213286924718
20
35.275304298374678
30
0
11
-88.68211197156576
21
35.275304298374678
31
0
0
LINE
5
148
100
AcDbEntity
8
0
100
AcDbLine
10
-88.68211197156576
20
42.475504492296437
30
0
11
-85.482213286924704
21
42.475504492296437
31
0
0
LINE
5
149
100
AcDbEntity
8
0
100
AcDbLine
10
-85.482213286924704
20
54.325306357732302
30
0
11
-88.68211197156576
21
54.325306357732302
31
0
0
LINE
5
150
100
AcDbEntity
8
0
100
AcDbLine
10
-88.68211197156576
20
61.525510366351895
30
0
11
-85.482213286924704
21
61.525510366351895
31
0
0
LINE
5
151
100
AcDbEntity
8
0
100
AcDbLine
10
-85.482213286924718
20
73.375308417089926
30
0
11
-88.68211197156576
21
73.375308417089926
31
0
0
LINE
5
152
100
AcDbEntity
8
0
100
AcDbLine
10
-88.68211197156576
20
80.575512425709519
30
0
11
-85.482213286924704
21
80.575512425709519
31
0
0
LINE
5
153
100
AcDbEntity
8
0
100
AcDbLine
10
-85.482213286924718
20
92.425314291145369
30
0
11
-88.68211197156576
21
92.425314291145369
31
0
0
LINE
5
154
100
AcDbEntity
8
0
100
AcDbLine
10
-88.68211197156576
20
99.625617481908577
30
0
11
-85.482213286924704
21
99.625617481908577
31
0
0
LINE
5
155
100
AcDbEntity
8
0
100
AcDbLine
10
-85.482213286924704
20
106.53195508125722
30
0
11
-88.68211197156576
21
106.53195508125722
31
0
0
LINE
5
156
100
AcDbEntity
8
0
100
AcDbLine
10
-88.68211197156576
20
112.47581622407091
30
0
11
-12.89999971166254
21
112.47581622407091
31
0
0
CIRCLE
5
157
100
AcDbEntity
8
0
100
AcDbCircle
10
-55.732108256826727
20
14.325002122278594
30
0
40
2.4500003629726006
210
0
220
0
230
1
0
CIRCLE
5
158
100
AcDbEntity
8
0
100
AcDbCircle
10
-82.032112153226521
20
14.725002181539429
30
0
40
2.4500003629726086
210
0
220
0
230
1
0
CIRCLE
5
159
100
AcDbEntity
8
0
100
AcDbCircle
10
-10.266775283377838
20
22.930205521674722
30
0
40
2.4500003629726055
210
0
220
0
230
1
0
CIRCLE
5
160
100
AcDbEntity
8
0
100
AcDbCircle
10
-11.132101649243808
20
116.22501721897589
30
0
40
2.4500003629726126
210
0
220
0
230
1
0
CIRCLE
5
161
100
AcDbEntity
8
0
100
AcDbCircle
10
-87.232112923617365
20
116.17501721156829
30
0
40
2.4500003629726215
210
0
220
0
230
1
0
LINE
5
162
100
AcDbEntity
8
0
100
AcDbLine
10
-6.6821008091503664
20
19.825003700054626
30
0
11
-6.6821008091503664
21
120.02501930783295
31
0
0
LINE
5
163
100
AcDbEntity
8
0
100
AcDbLine
10
-46.392828104713473
20
0.025000004076325411
30
0
11
-46.392828104713473
21
19.825003700054626
31
0
0
LINE
5
164
100
AcDbEntity
8
0
100
AcDbLine
10
-91.682111971565774
20
0.025000004076325411
30
0
11
-91.682111971565774
21
120.02501930783295
31
0
0
LINE
5
165
100
AcDbEntity
8
0
100
AcDbLine
10
-12.899999711662531
20
22.425002559370899
30
0
11
-12.89999971166254
21
112.47581622407091
31
0
0
LINE
5
166
100
AcDbEntity
8
0
100
AcDbLine
10
-85.482213286924704
20
22.425002559370899
30
0
11
-85.482213286924718
21
35.275304298374678
31
0
0
LINE
5
167
100
AcDbEntity
8
0
100
AcDbLine
10
-88.68211197156576
20
35.275304298374678
30
0
11
-88.68211197156576
21
42.475504492296437
31
0
0
LINE
5
168
100
AcDbEntity
8
0
100
AcDbLine
10
-85.482213286924704
20
42.475504492296437
30
0
11
-85.482213286924704
21
54.325306357732302
31
0
0
LINE
5
169
100
AcDbEntity
8
0
100
AcDbLine
10
-88.68211197156576
20
54.325306357732302
30
0
11
-88.68211197156576
21
61.525510366351895
31
0
0
LINE
5
170
100
AcDbEntity
8
0
100
AcDbLine
10
-85.482213286924704
20
61.525510366351895
30
0
11
-85.482213286924718
21
73.375308417089926
31
0
0
LINE
5
171
100
AcDbEntity
8
0
100
AcDbLine
10
-88.68211197156576
20
73.375308417089926
30
0
11
-88.68211197156576
21
80.575512425709519
31
0
0
LINE
5
172
100
AcDbEntity
8
0
100
AcDbLine
10
-85.482213286924704
20
80.575512425709519
30
0
11
-85.482213286924718
21
92.425314291145369
31
0
0
LINE
5
173
100
AcDbEntity
8
0
100
AcDbLine
10
-88.68211197156576
20
92.425314291145369
30
0
11
-88.68211197156576
21
99.625617481908577
31
0
0
LINE
5
174
100
AcDbEntity
8
0
100
AcDbLine
10
-85.482213286924704
20
99.625617481908577
30
0
11
-85.482213286924704
21
106.53195508125722
31
0
0
ENDSEC
0
SECTION
2
OBJECTS
0
DICTIONARY
5
C
100
AcDbDictionary
3
ACAD_GROUP
350
D
3
ACAD_MLINESTYLE
350
17
0
DICTIONARY
5
D
100
AcDbDictionary
0
DICTIONARY
5
1A
330
C
100
AcDbDictionary
0
DICTIONARY
5
17
100
AcDbDictionary
0
ENDSEC
0
EOF
