  0
SECTION
  2
HEADER
  9
$ANGBASE
  50
0.0
  9
$ANGDIR
  70
1
  9
$MEASUREMENT
  70
1
  0
ENDSEC
  0
SECTION
  2
TABLES
  0
TABLE
  2
LTYPE
  70
4
  0
LTYPE
  5
40F
  2
CONTINUOUS
  70
0
  3
Solid line
  72
65
  73
0
  40
0.0
  0
LTYPE
  5
410
  2
DASHDOT
 70
0
  3
Dash Dot ____ _ ____ _
 72
65
 73
4
 40
2.0
 49
1.25
 49
-0.25
 49
0.25
 49
-0.25
  0
LTYPE
  5
411
  2
DASHED
 70
0
  3
Dashed __ __ __ __ __
 72
65
 73
2
 40
0.75
 49
0.5
 49
-0.25
  0
LTYPE
  5
43B
  2
DOTTED
 70
0
  3
Dotted .  .  .  .
 72
65
 73
2
 40
0.2
 49
0.0
 49
-0.2
  0
ENDTAB
  0
TABLE
  2
STYLE
  70
4
  0
STYLE
  2
KICAD
  70
0
  40
0
  41
1
  42
1
  50
0
  71
0
  3
isocp.shx
  0
STYLE
  2
KICADB
  70
0
  40
0
  41
1
  42
1
  50
0
  71
0
  3
isocp.shx
  0
STYLE
  2
KICADI
  70
0
  40
0
  41
1
  42
1
  50
15
  71
0
  3
isocp.shx
  0
STYLE
  2
KICADBI
  70
0
  40
0
  41
1
  42
1
  50
15
  71
0
  3
isocp.shx
  0
ENDTAB
  0
TABLE
  2
LAYER
  70
1
  0
LAYER
  2
BLACK
  70
0
  62
7
  6
CONTINUOUS
  0
ENDTAB
  0
ENDSEC
  0
SECTION
  2
ENTITIES
0
LINE
8
BLACK
6
CONTINUOUS
10
121.3186239999999998
20
-135.7754209999999944
11
121.3546719999999937
21
-135.7903529999999819
0
LINE
8
BLACK
6
CONTINUOUS
10
121.3546719999999937
20
-135.7903529999999819
11
121.3822619999999972
21
-135.8179429999999854
0
LINE
8
BLACK
6
CONTINUOUS
10
121.3822619999999972
20
-135.8179429999999854
11
121.3971939999999989
21
-135.8539910000000077
0
LINE
8
BLACK
6
CONTINUOUS
10
121.3971939999999989
20
-135.8539910000000077
11
121.3991149999999948
21
-135.873500000000007
0
LINE
8
BLACK
6
CONTINUOUS
10
121.3991149999999948
20
-135.873500000000007
11
121.3991149999999948
21
-149.8743599999999958
0
LINE
8
BLACK
6
CONTINUOUS
10
121.3991149999999948
20
-149.8743599999999958
11
121.3971939999999989
21
-149.8938689999999951
0
LINE
8
BLACK
6
CONTINUOUS
10
121.3971939999999989
20
-149.8938689999999951
11
121.3822619999999972
21
-149.929916999999989
0
LINE
8
BLACK
6
CONTINUOUS
10
121.3822619999999972
20
-149.929916999999989
11
121.3546719999999937
21
-149.9575069999999926
0
LINE
8
BLACK
6
CONTINUOUS
10
121.3546719999999937
20
-149.9575069999999926
11
121.3186239999999998
21
-149.9724389999999801
0
LINE
8
BLACK
6
CONTINUOUS
10
121.3186239999999998
20
-149.9724389999999801
11
121.2991150000000005
21
-149.9743599999999901
0
LINE
8
BLACK
6
CONTINUOUS
10
121.2991150000000005
20
-149.9743599999999901
11
107.2995650000000012
21
-149.9743599999999901
0
LINE
8
BLACK
6
CONTINUOUS
10
107.2995650000000012
20
-149.9743599999999901
11
107.2800560000000019
21
-149.9724389999999801
0
LINE
8
BLACK
6
CONTINUOUS
10
107.2800560000000019
20
-149.9724389999999801
11
107.2440079999999938
21
-149.9575069999999926
0
LINE
8
BLACK
6
CONTINUOUS
10
107.2440079999999938
20
-149.9575069999999926
11
107.2164179999999902
21
-149.929916999999989
0
LINE
8
BLACK
6
CONTINUOUS
10
107.2164179999999902
20
-149.929916999999989
11
107.2014859999999885
21
-149.8938689999999951
0
LINE
8
BLACK
6
CONTINUOUS
10
107.2014859999999885
20
-149.8938689999999951
11
107.1995649999999927
21
-149.8743599999999958
0
LINE
8
BLACK
6
CONTINUOUS
10
107.1995649999999927
20
-149.8743599999999958
11
107.1995649999999927
21
-135.873500000000007
0
LINE
8
BLACK
6
CONTINUOUS
10
107.1995649999999927
20
-135.873500000000007
11
107.2014859999999885
21
-135.8539910000000077
0
LINE
8
BLACK
6
CONTINUOUS
10
107.2014859999999885
20
-135.8539910000000077
11
107.2164179999999902
21
-135.8179429999999854
0
LINE
8
BLACK
6
CONTINUOUS
10
107.2164179999999902
20
-135.8179429999999854
11
107.2440079999999938
21
-135.7903529999999819
0
LINE
8
BLACK
6
CONTINUOUS
10
107.2440079999999938
20
-135.7903529999999819
11
107.2800560000000019
21
-135.7754209999999944
0
LINE
8
BLACK
6
CONTINUOUS
10
107.2800560000000019
20
-135.7754209999999944
11
107.2995650000000012
21
-135.7734999999999843
0
LINE
8
BLACK
6
CONTINUOUS
10
107.2995650000000012
20
-135.7734999999999843
11
121.2991150000000005
21
-135.7734999999999843
0
LINE
8
BLACK
6
CONTINUOUS
10
121.2991150000000005
20
-135.7734999999999843
11
121.3186239999999998
21
-135.7754209999999944
0
LINE
8
BLACK
6
CONTINUOUS
10
107.3995649999999955
20
-135.9735000000000014
11
107.3995649999999955
21
-149.7743600000000015
0
LINE
8
BLACK
6
CONTINUOUS
10
107.3995649999999955
20
-149.7743600000000015
11
121.1991149999999919
21
-149.7743600000000015
0
LINE
8
BLACK
6
CONTINUOUS
10
121.1991149999999919
20
-149.7743600000000015
11
121.1991149999999919
21
-135.9735000000000014
0
LINE
8
BLACK
6
CONTINUOUS
10
121.1991149999999919
20
-135.9735000000000014
11
107.3995649999999955
21
-135.9735000000000014
0
LINE
8
BLACK
6
CONTINUOUS
10
140.3684240000000045
20
-135.7754209999999944
11
140.4044719999999984
21
-135.7903529999999819
0
LINE
8
BLACK
6
CONTINUOUS
10
140.4044719999999984
20
-135.7903529999999819
11
140.4320620000000019
21
-135.8179429999999854
0
LINE
8
BLACK
6
CONTINUOUS
10
140.4320620000000019
20
-135.8179429999999854
11
140.4469939999999895
21
-135.8539910000000077
0
LINE
8
BLACK
6
CONTINUOUS
10
140.4469939999999895
20
-135.8539910000000077
11
140.4489149999999995
21
-135.873500000000007
0
LINE
8
BLACK
6
CONTINUOUS
10
140.4489149999999995
20
-135.873500000000007
11
140.4489149999999995
21
-149.8743599999999958
0
LINE
8
BLACK
6
CONTINUOUS
10
140.4489149999999995
20
-149.8743599999999958
11
140.4469939999999895
21
-149.8938689999999951
0
LINE
8
BLACK
6
CONTINUOUS
10
140.4469939999999895
20
-149.8938689999999951
11
140.4320620000000019
21
-149.929916999999989
0
LINE
8
BLACK
6
CONTINUOUS
10
140.4320620000000019
20
-149.929916999999989
11
140.4044719999999984
21
-149.9575069999999926
0
LINE
8
BLACK
6
CONTINUOUS
10
140.4044719999999984
20
-149.9575069999999926
11
140.3684240000000045
21
-149.9724389999999801
0
LINE
8
BLACK
6
CONTINUOUS
10
140.3684240000000045
20
-149.9724389999999801
11
140.3489150000000052
21
-149.9743599999999901
0
LINE
8
BLACK
6
CONTINUOUS
10
140.3489150000000052
20
-149.9743599999999901
11
126.349615
21
-149.9743599999999901
0
LINE
8
BLACK
6
CONTINUOUS
10
126.349615
20
-149.9743599999999901
11
126.3301060000000007
21
-149.9724389999999801
0
LINE
8
BLACK
6
CONTINUOUS
10
126.3301060000000007
20
-149.9724389999999801
11
126.2940579999999926
21
-149.9575069999999926
0
LINE
8
BLACK
6
CONTINUOUS
10
126.2940579999999926
20
-149.9575069999999926
11
126.266467999999989
21
-149.929916999999989
0
LINE
8
BLACK
6
CONTINUOUS
10
126.266467999999989
20
-149.929916999999989
11
126.2515359999999873
21
-149.8938689999999951
0
LINE
8
BLACK
6
CONTINUOUS
10
126.2515359999999873
20
-149.8938689999999951
11
126.2496149999999915
21
-149.8743599999999958
0
LINE
8
BLACK
6
CONTINUOUS
10
126.2496149999999915
20
-149.8743599999999958
11
126.2496149999999915
21
-135.873500000000007
0
LINE
8
BLACK
6
CONTINUOUS
10
126.2496149999999915
20
-135.873500000000007
11
126.2515359999999873
21
-135.8539910000000077
0
LINE
8
BLACK
6
CONTINUOUS
10
126.2515359999999873
20
-135.8539910000000077
11
126.266467999999989
21
-135.8179429999999854
0
LINE
8
BLACK
6
CONTINUOUS
10
126.266467999999989
20
-135.8179429999999854
11
126.2940579999999926
21
-135.7903529999999819
0
LINE
8
BLACK
6
CONTINUOUS
10
126.2940579999999926
20
-135.7903529999999819
11
126.3301060000000007
21
-135.7754209999999944
0
LINE
8
BLACK
6
CONTINUOUS
10
126.3301060000000007
20
-135.7754209999999944
11
126.349615
21
-135.7734999999999843
0
LINE
8
BLACK
6
CONTINUOUS
10
126.349615
20
-135.7734999999999843
11
140.3489150000000052
21
-135.7734999999999843
0
LINE
8
BLACK
6
CONTINUOUS
10
140.3489150000000052
20
-135.7734999999999843
11
140.3684240000000045
21
-135.7754209999999944
0
LINE
8
BLACK
6
CONTINUOUS
10
126.4496149999999943
20
-135.9735000000000014
11
126.4496149999999943
21
-149.7743600000000015
0
LINE
8
BLACK
6
CONTINUOUS
10
126.4496149999999943
20
-149.7743600000000015
11
140.2489149999999825
21
-149.7743600000000015
0
LINE
8
BLACK
6
CONTINUOUS
10
140.2489149999999825
20
-149.7743600000000015
11
140.2489149999999825
21
-135.9735000000000014
0
LINE
8
BLACK
6
CONTINUOUS
10
140.2489149999999825
20
-135.9735000000000014
11
126.4496149999999943
21
-135.9735000000000014
0
LINE
8
BLACK
6
CONTINUOUS
10
159.4184239999999875
20
-135.7754209999999944
11
159.4544719999999813
21
-135.7903529999999819
0
LINE
8
BLACK
6
CONTINUOUS
10
159.4544719999999813
20
-135.7903529999999819
11
159.4820619999999849
21
-135.8179429999999854
0
LINE
8
BLACK
6
CONTINUOUS
10
159.4820619999999849
20
-135.8179429999999854
11
159.4969940000000008
21
-135.8539910000000077
0
LINE
8
BLACK
6
CONTINUOUS
10
159.4969940000000008
20
-135.8539910000000077
11
159.4989149999999825
21
-135.873500000000007
0
LINE
8
BLACK
6
CONTINUOUS
10
159.4989149999999825
20
-135.873500000000007
11
159.4989149999999825
21
-149.8743599999999958
0
LINE
8
BLACK
6
CONTINUOUS
10
159.4989149999999825
20
-149.8743599999999958
11
159.4969940000000008
21
-149.8938689999999951
0
LINE
8
BLACK
6
CONTINUOUS
10
159.4969940000000008
20
-149.8938689999999951
11
159.4820619999999849
21
-149.929916999999989
0
LINE
8
BLACK
6
CONTINUOUS
10
159.4820619999999849
20
-149.929916999999989
11
159.4544719999999813
21
-149.9575069999999926
0
LINE
8
BLACK
6
CONTINUOUS
10
159.4544719999999813
20
-149.9575069999999926
11
159.4184239999999875
21
-149.9724389999999801
0
LINE
8
BLACK
6
CONTINUOUS
10
159.4184239999999875
20
-149.9724389999999801
11
159.3989149999999881
21
-149.9743599999999901
0
LINE
8
BLACK
6
CONTINUOUS
10
159.3989149999999881
20
-149.9743599999999901
11
145.399614999999983
21
-149.9743599999999901
0
LINE
8
BLACK
6
CONTINUOUS
10
145.399614999999983
20
-149.9743599999999901
11
145.3801059999999836
21
-149.9724389999999801
0
LINE
8
BLACK
6
CONTINUOUS
10
145.3801059999999836
20
-149.9724389999999801
11
145.3440579999999898
21
-149.9575069999999926
0
LINE
8
BLACK
6
CONTINUOUS
10
145.3440579999999898
20
-149.9575069999999926
11
145.3164679999999862
21
-149.929916999999989
0
LINE
8
BLACK
6
CONTINUOUS
10
145.3164679999999862
20
-149.929916999999989
11
145.3015359999999987
21
-149.8938689999999951
0
LINE
8
BLACK
6
CONTINUOUS
10
145.3015359999999987
20
-149.8938689999999951
11
145.2996149999999886
21
-149.8743599999999958
0
LINE
8
BLACK
6
CONTINUOUS
10
145.2996149999999886
20
-149.8743599999999958
11
145.2996149999999886
21
-135.873500000000007
0
LINE
8
BLACK
6
CONTINUOUS
10
145.2996149999999886
20
-135.873500000000007
11
145.3015359999999987
21
-135.8539910000000077
0
LINE
8
BLACK
6
CONTINUOUS
10
145.3015359999999987
20
-135.8539910000000077
11
145.3164679999999862
21
-135.8179429999999854
0
LINE
8
BLACK
6
CONTINUOUS
10
145.3164679999999862
20
-135.8179429999999854
11
145.3440579999999898
21
-135.7903529999999819
0
LINE
8
BLACK
6
CONTINUOUS
10
145.3440579999999898
20
-135.7903529999999819
11
145.3801059999999836
21
-135.7754209999999944
0
LINE
8
BLACK
6
CONTINUOUS
10
145.3801059999999836
20
-135.7754209999999944
11
145.399614999999983
21
-135.7734999999999843
0
LINE
8
BLACK
6
CONTINUOUS
10
145.399614999999983
20
-135.7734999999999843
11
159.3989149999999881
21
-135.7734999999999843
0
LINE
8
BLACK
6
CONTINUOUS
10
159.3989149999999881
20
-135.7734999999999843
11
159.4184239999999875
21
-135.7754209999999944
0
LINE
8
BLACK
6
CONTINUOUS
10
145.4996150000000057
20
-135.9735000000000014
11
145.4996150000000057
21
-149.7743600000000015
0
LINE
8
BLACK
6
CONTINUOUS
10
145.4996150000000057
20
-149.7743600000000015
11
159.2989149999999938
21
-149.7743600000000015
0
LINE
8
BLACK
6
CONTINUOUS
10
159.2989149999999938
20
-149.7743600000000015
11
159.2989149999999938
21
-135.9735000000000014
0
LINE
8
BLACK
6
CONTINUOUS
10
159.2989149999999938
20
-135.9735000000000014
11
145.4996150000000057
21
-135.9735000000000014
0
LINE
8
BLACK
6
CONTINUOUS
10
178.4684239999999988
20
-135.7754209999999944
11
178.5044719999999927
21
-135.7903529999999819
0
LINE
8
BLACK
6
CONTINUOUS
10
178.5044719999999927
20
-135.7903529999999819
11
178.5320619999999963
21
-135.8179429999999854
0
LINE
8
BLACK
6
CONTINUOUS
10
178.5320619999999963
20
-135.8179429999999854
11
178.5469939999999838
21
-135.8539910000000077
0
LINE
8
BLACK
6
CONTINUOUS
10
178.5469939999999838
20
-135.8539910000000077
11
178.5489149999999938
21
-135.873500000000007
0
LINE
8
BLACK
6
CONTINUOUS
10
178.5489149999999938
20
-135.873500000000007
11
178.5489149999999938
21
-149.8743599999999958
0
LINE
8
BLACK
6
CONTINUOUS
10
178.5489149999999938
20
-149.8743599999999958
11
178.5469939999999838
21
-149.8938689999999951
0
LINE
8
BLACK
6
CONTINUOUS
10
178.5469939999999838
20
-149.8938689999999951
11
178.5320619999999963
21
-149.929916999999989
0
LINE
8
BLACK
6
CONTINUOUS
10
178.5320619999999963
20
-149.929916999999989
11
178.5044719999999927
21
-149.9575069999999926
0
LINE
8
BLACK
6
CONTINUOUS
10
178.5044719999999927
20
-149.9575069999999926
11
178.4684239999999988
21
-149.9724389999999801
0
LINE
8
BLACK
6
CONTINUOUS
10
178.4684239999999988
20
-149.9724389999999801
11
178.4489149999999995
21
-149.9743599999999901
0
LINE
8
BLACK
6
CONTINUOUS
10
178.4489149999999995
20
-149.9743599999999901
11
164.4496149999999943
21
-149.9743599999999901
0
LINE
8
BLACK
6
CONTINUOUS
10
164.4496149999999943
20
-149.9743599999999901
11
164.430105999999995
21
-149.9724389999999801
0
LINE
8
BLACK
6
CONTINUOUS
10
164.430105999999995
20
-149.9724389999999801
11
164.3940580000000011
21
-149.9575069999999926
0
LINE
8
BLACK
6
CONTINUOUS
10
164.3940580000000011
20
-149.9575069999999926
11
164.3664679999999976
21
-149.929916999999989
0
LINE
8
BLACK
6
CONTINUOUS
10
164.3664679999999976
20
-149.929916999999989
11
164.3515359999999816
21
-149.8938689999999951
0
LINE
8
BLACK
6
CONTINUOUS
10
164.3515359999999816
20
-149.8938689999999951
11
164.349615
21
-149.8743599999999958
0
LINE
8
BLACK
6
CONTINUOUS
10
164.349615
20
-149.8743599999999958
11
164.349615
21
-135.873500000000007
0
LINE
8
BLACK
6
CONTINUOUS
10
164.349615
20
-135.873500000000007
11
164.3515359999999816
21
-135.8539910000000077
0
LINE
8
BLACK
6
CONTINUOUS
10
164.3515359999999816
20
-135.8539910000000077
11
164.3664679999999976
21
-135.8179429999999854
0
LINE
8
BLACK
6
CONTINUOUS
10
164.3664679999999976
20
-135.8179429999999854
11
164.3940580000000011
21
-135.7903529999999819
0
LINE
8
BLACK
6
CONTINUOUS
10
164.3940580000000011
20
-135.7903529999999819
11
164.430105999999995
21
-135.7754209999999944
0
LINE
8
BLACK
6
CONTINUOUS
10
164.430105999999995
20
-135.7754209999999944
11
164.4496149999999943
21
-135.7734999999999843
0
LINE
8
BLACK
6
CONTINUOUS
10
164.4496149999999943
20
-135.7734999999999843
11
178.4489149999999995
21
-135.7734999999999843
0
LINE
8
BLACK
6
CONTINUOUS
10
178.4489149999999995
20
-135.7734999999999843
11
178.4684239999999988
21
-135.7754209999999944
0
LINE
8
BLACK
6
CONTINUOUS
10
164.5496149999999886
20
-135.9735000000000014
11
164.5496149999999886
21
-149.7743600000000015
0
LINE
8
BLACK
6
CONTINUOUS
10
164.5496149999999886
20
-149.7743600000000015
11
178.3489150000000052
21
-149.7743600000000015
0
LINE
8
BLACK
6
CONTINUOUS
10
178.3489150000000052
20
-149.7743600000000015
11
178.3489150000000052
21
-135.9735000000000014
0
LINE
8
BLACK
6
CONTINUOUS
10
178.3489150000000052
20
-135.9735000000000014
11
164.5496149999999886
21
-135.9735000000000014
0
LINE
8
BLACK
6
CONTINUOUS
10
121.3186239999999998
20
-116.7269209999999902
11
121.3546719999999937
21
-116.7418529999999919
0
LINE
8
BLACK
6
CONTINUOUS
10
121.3546719999999937
20
-116.7418529999999919
11
121.3822619999999972
21
-116.7694429999999954
0
LINE
8
BLACK
6
CONTINUOUS
10
121.3822619999999972
20
-116.7694429999999954
11
121.3971939999999989
21
-116.8054909999999893
0
LINE
8
BLACK
6
CONTINUOUS
10
121.3971939999999989
20
-116.8054909999999893
11
121.3991149999999948
21
-116.8249999999999886
0
LINE
8
BLACK
6
CONTINUOUS
10
121.3991149999999948
20
-116.8249999999999886
11
121.3991149999999948
21
-130.8243999999999971
0
LINE
8
BLACK
6
CONTINUOUS
10
121.3991149999999948
20
-130.8243999999999971
11
121.3971939999999989
21
-130.8439089999999965
0
LINE
8
BLACK
6
CONTINUOUS
10
121.3971939999999989
20
-130.8439089999999965
11
121.3822619999999972
21
-130.8799569999999903
0
LINE
8
BLACK
6
CONTINUOUS
10
121.3822619999999972
20
-130.8799569999999903
11
121.3546719999999937
21
-130.9075469999999939
0
LINE
8
BLACK
6
CONTINUOUS
10
121.3546719999999937
20
-130.9075469999999939
11
121.3186239999999998
21
-130.9224789999999814
0
LINE
8
BLACK
6
CONTINUOUS
10
121.3186239999999998
20
-130.9224789999999814
11
121.2991150000000005
21
-130.9243999999999915
0
LINE
8
BLACK
6
CONTINUOUS
10
121.2991150000000005
20
-130.9243999999999915
11
107.2995650000000012
21
-130.9243999999999915
0
LINE
8
BLACK
6
CONTINUOUS
10
107.2995650000000012
20
-130.9243999999999915
11
107.2800560000000019
21
-130.9224789999999814
0
LINE
8
BLACK
6
CONTINUOUS
10
107.2800560000000019
20
-130.9224789999999814
11
107.2440079999999938
21
-130.9075469999999939
0
LINE
8
BLACK
6
CONTINUOUS
10
107.2440079999999938
20
-130.9075469999999939
11
107.2164179999999902
21
-130.8799569999999903
0
LINE
8
BLACK
6
CONTINUOUS
10
107.2164179999999902
20
-130.8799569999999903
11
107.2014859999999885
21
-130.8439089999999965
0
LINE
8
BLACK
6
CONTINUOUS
10
107.2014859999999885
20
-130.8439089999999965
11
107.1995649999999927
21
-130.8243999999999971
0
LINE
8
BLACK
6
CONTINUOUS
10
107.1995649999999927
20
-130.8243999999999971
11
107.1995649999999927
21
-116.8249999999999886
0
LINE
8
BLACK
6
CONTINUOUS
10
107.1995649999999927
20
-116.8249999999999886
11
107.2014859999999885
21
-116.8054909999999893
0
LINE
8
BLACK
6
CONTINUOUS
10
107.2014859999999885
20
-116.8054909999999893
11
107.2164179999999902
21
-116.7694429999999954
0
LINE
8
BLACK
6
CONTINUOUS
10
107.2164179999999902
20
-116.7694429999999954
11
107.2440079999999938
21
-116.7418529999999919
0
LINE
8
BLACK
6
CONTINUOUS
10
107.2440079999999938
20
-116.7418529999999919
11
107.2800560000000019
21
-116.7269209999999902
0
LINE
8
BLACK
6
CONTINUOUS
10
107.2800560000000019
20
-116.7269209999999902
11
107.2995650000000012
21
-116.7249999999999943
0
LINE
8
BLACK
6
CONTINUOUS
10
107.2995650000000012
20
-116.7249999999999943
11
121.2991150000000005
21
-116.7249999999999943
0
LINE
8
BLACK
6
CONTINUOUS
10
121.2991150000000005
20
-116.7249999999999943
11
121.3186239999999998
21
-116.7269209999999902
0
LINE
8
BLACK
6
CONTINUOUS
10
107.3995649999999955
20
-116.9249999999999972
11
107.3995649999999955
21
-130.7244000000000028
0
LINE
8
BLACK
6
CONTINUOUS
10
107.3995649999999955
20
-130.7244000000000028
11
121.1991149999999919
21
-130.7244000000000028
0
LINE
8
BLACK
6
CONTINUOUS
10
121.1991149999999919
20
-130.7244000000000028
11
121.1991149999999919
21
-116.9249999999999972
0
LINE
8
BLACK
6
CONTINUOUS
10
121.1991149999999919
20
-116.9249999999999972
11
107.3995649999999955
21
-116.9249999999999972
0
LINE
8
BLACK
6
CONTINUOUS
10
140.3684240000000045
20
-116.7269209999999902
11
140.4044719999999984
21
-116.7418529999999919
0
LINE
8
BLACK
6
CONTINUOUS
10
140.4044719999999984
20
-116.7418529999999919
11
140.4320620000000019
21
-116.7694429999999954
0
LINE
8
BLACK
6
CONTINUOUS
10
140.4320620000000019
20
-116.7694429999999954
11
140.4469939999999895
21
-116.8054909999999893
0
LINE
8
BLACK
6
CONTINUOUS
10
140.4469939999999895
20
-116.8054909999999893
11
140.4489149999999995
21
-116.8249999999999886
0
LINE
8
BLACK
6
CONTINUOUS
10
140.4489149999999995
20
-116.8249999999999886
11
140.4489149999999995
21
-130.8243999999999971
0
LINE
8
BLACK
6
CONTINUOUS
10
140.4489149999999995
20
-130.8243999999999971
11
140.4469939999999895
21
-130.8439089999999965
0
LINE
8
BLACK
6
CONTINUOUS
10
140.4469939999999895
20
-130.8439089999999965
11
140.4320620000000019
21
-130.8799569999999903
0
LINE
8
BLACK
6
CONTINUOUS
10
140.4320620000000019
20
-130.8799569999999903
11
140.4044719999999984
21
-130.9075469999999939
0
LINE
8
BLACK
6
CONTINUOUS
10
140.4044719999999984
20
-130.9075469999999939
11
140.3684240000000045
21
-130.9224789999999814
0
LINE
8
BLACK
6
CONTINUOUS
10
140.3684240000000045
20
-130.9224789999999814
11
140.3489150000000052
21
-130.9243999999999915
0
LINE
8
BLACK
6
CONTINUOUS
10
140.3489150000000052
20
-130.9243999999999915
11
126.349615
21
-130.9243999999999915
0
LINE
8
BLACK
6
CONTINUOUS
10
126.349615
20
-130.9243999999999915
11
126.3301060000000007
21
-130.9224789999999814
0
LINE
8
BLACK
6
CONTINUOUS
10
126.3301060000000007
20
-130.9224789999999814
11
126.2940579999999926
21
-130.9075469999999939
0
LINE
8
BLACK
6
CONTINUOUS
10
126.2940579999999926
20
-130.9075469999999939
11
126.266467999999989
21
-130.8799569999999903
0
LINE
8
BLACK
6
CONTINUOUS
10
126.266467999999989
20
-130.8799569999999903
11
126.2515359999999873
21
-130.8439089999999965
0
LINE
8
BLACK
6
CONTINUOUS
10
126.2515359999999873
20
-130.8439089999999965
11
126.2496149999999915
21
-130.8243999999999971
0
LINE
8
BLACK
6
CONTINUOUS
10
126.2496149999999915
20
-130.8243999999999971
11
126.2496149999999915
21
-116.8249999999999886
0
LINE
8
BLACK
6
CONTINUOUS
10
126.2496149999999915
20
-116.8249999999999886
11
126.2515359999999873
21
-116.8054909999999893
0
LINE
8
BLACK
6
CONTINUOUS
10
126.2515359999999873
20
-116.8054909999999893
11
126.266467999999989
21
-116.7694429999999954
0
LINE
8
BLACK
6
CONTINUOUS
10
126.266467999999989
20
-116.7694429999999954
11
126.2940579999999926
21
-116.7418529999999919
0
LINE
8
BLACK
6
CONTINUOUS
10
126.2940579999999926
20
-116.7418529999999919
11
126.3301060000000007
21
-116.7269209999999902
0
LINE
8
BLACK
6
CONTINUOUS
10
126.3301060000000007
20
-116.7269209999999902
11
126.349615
21
-116.7249999999999943
0
LINE
8
BLACK
6
CONTINUOUS
10
126.349615
20
-116.7249999999999943
11
140.3489150000000052
21
-116.7249999999999943
0
LINE
8
BLACK
6
CONTINUOUS
10
140.3489150000000052
20
-116.7249999999999943
11
140.3684240000000045
21
-116.7269209999999902
0
LINE
8
BLACK
6
CONTINUOUS
10
126.4496149999999943
20
-116.9249999999999972
11
126.4496149999999943
21
-130.7244000000000028
0
LINE
8
BLACK
6
CONTINUOUS
10
126.4496149999999943
20
-130.7244000000000028
11
140.2489149999999825
21
-130.7244000000000028
0
LINE
8
BLACK
6
CONTINUOUS
10
140.2489149999999825
20
-130.7244000000000028
11
140.2489149999999825
21
-116.9249999999999972
0
LINE
8
BLACK
6
CONTINUOUS
10
140.2489149999999825
20
-116.9249999999999972
11
126.4496149999999943
21
-116.9249999999999972
0
LINE
8
BLACK
6
CONTINUOUS
10
159.4184239999999875
20
-116.7269209999999902
11
159.4544719999999813
21
-116.7418529999999919
0
LINE
8
BLACK
6
CONTINUOUS
10
159.4544719999999813
20
-116.7418529999999919
11
159.4820619999999849
21
-116.7694429999999954
0
LINE
8
BLACK
6
CONTINUOUS
10
159.4820619999999849
20
-116.7694429999999954
11
159.4969940000000008
21
-116.8054909999999893
0
LINE
8
BLACK
6
CONTINUOUS
10
159.4969940000000008
20
-116.8054909999999893
11
159.4989149999999825
21
-116.8249999999999886
0
LINE
8
BLACK
6
CONTINUOUS
10
159.4989149999999825
20
-116.8249999999999886
11
159.4989149999999825
21
-130.8243999999999971
0
LINE
8
BLACK
6
CONTINUOUS
10
159.4989149999999825
20
-130.8243999999999971
11
159.4969940000000008
21
-130.8439089999999965
0
LINE
8
BLACK
6
CONTINUOUS
10
159.4969940000000008
20
-130.8439089999999965
11
159.4820619999999849
21
-130.8799569999999903
0
LINE
8
BLACK
6
CONTINUOUS
10
159.4820619999999849
20
-130.8799569999999903
11
159.4544719999999813
21
-130.9075469999999939
0
LINE
8
BLACK
6
CONTINUOUS
10
159.4544719999999813
20
-130.9075469999999939
11
159.4184239999999875
21
-130.9224789999999814
0
LINE
8
BLACK
6
CONTINUOUS
10
159.4184239999999875
20
-130.9224789999999814
11
159.3989149999999881
21
-130.9243999999999915
0
LINE
8
BLACK
6
CONTINUOUS
10
159.3989149999999881
20
-130.9243999999999915
11
145.399614999999983
21
-130.9243999999999915
0
LINE
8
BLACK
6
CONTINUOUS
10
145.399614999999983
20
-130.9243999999999915
11
145.3801059999999836
21
-130.9224789999999814
0
LINE
8
BLACK
6
CONTINUOUS
10
145.3801059999999836
20
-130.9224789999999814
11
145.3440579999999898
21
-130.9075469999999939
0
LINE
8
BLACK
6
CONTINUOUS
10
145.3440579999999898
20
-130.9075469999999939
11
145.3164679999999862
21
-130.8799569999999903
0
LINE
8
BLACK
6
CONTINUOUS
10
145.3164679999999862
20
-130.8799569999999903
11
145.3015359999999987
21
-130.8439089999999965
0
LINE
8
BLACK
6
CONTINUOUS
10
145.3015359999999987
20
-130.8439089999999965
11
145.2996149999999886
21
-130.8243999999999971
0
LINE
8
BLACK
6
CONTINUOUS
10
145.2996149999999886
20
-130.8243999999999971
11
145.2996149999999886
21
-116.8249999999999886
0
LINE
8
BLACK
6
CONTINUOUS
10
145.2996149999999886
20
-116.8249999999999886
11
145.3015359999999987
21
-116.8054909999999893
0
LINE
8
BLACK
6
CONTINUOUS
10
145.3015359999999987
20
-116.8054909999999893
11
145.3164679999999862
21
-116.7694429999999954
0
LINE
8
BLACK
6
CONTINUOUS
10
145.3164679999999862
20
-116.7694429999999954
11
145.3440579999999898
21
-116.7418529999999919
0
LINE
8
BLACK
6
CONTINUOUS
10
145.3440579999999898
20
-116.7418529999999919
11
145.3801059999999836
21
-116.7269209999999902
0
LINE
8
BLACK
6
CONTINUOUS
10
145.3801059999999836
20
-116.7269209999999902
11
145.399614999999983
21
-116.7249999999999943
0
LINE
8
BLACK
6
CONTINUOUS
10
145.399614999999983
20
-116.7249999999999943
11
159.3989149999999881
21
-116.7249999999999943
0
LINE
8
BLACK
6
CONTINUOUS
10
159.3989149999999881
20
-116.7249999999999943
11
159.4184239999999875
21
-116.7269209999999902
0
LINE
8
BLACK
6
CONTINUOUS
10
145.4996150000000057
20
-116.9249999999999972
11
145.4996150000000057
21
-130.7244000000000028
0
LINE
8
BLACK
6
CONTINUOUS
10
145.4996150000000057
20
-130.7244000000000028
11
159.2989149999999938
21
-130.7244000000000028
0
LINE
8
BLACK
6
CONTINUOUS
10
159.2989149999999938
20
-130.7244000000000028
11
159.2989149999999938
21
-116.9249999999999972
0
LINE
8
BLACK
6
CONTINUOUS
10
159.2989149999999938
20
-116.9249999999999972
11
145.4996150000000057
21
-116.9249999999999972
0
LINE
8
BLACK
6
CONTINUOUS
10
178.4684239999999988
20
-116.7269209999999902
11
178.5044719999999927
21
-116.7418529999999919
0
LINE
8
BLACK
6
CONTINUOUS
10
178.5044719999999927
20
-116.7418529999999919
11
178.5320619999999963
21
-116.7694429999999954
0
LINE
8
BLACK
6
CONTINUOUS
10
178.5320619999999963
20
-116.7694429999999954
11
178.5469939999999838
21
-116.8054909999999893
0
LINE
8
BLACK
6
CONTINUOUS
10
178.5469939999999838
20
-116.8054909999999893
11
178.5489149999999938
21
-116.8249999999999886
0
LINE
8
BLACK
6
CONTINUOUS
10
178.5489149999999938
20
-116.8249999999999886
11
178.5489149999999938
21
-130.8243999999999971
0
LINE
8
BLACK
6
CONTINUOUS
10
178.5489149999999938
20
-130.8243999999999971
11
178.5469939999999838
21
-130.8439089999999965
0
LINE
8
BLACK
6
CONTINUOUS
10
178.5469939999999838
20
-130.8439089999999965
11
178.5320619999999963
21
-130.8799569999999903
0
LINE
8
BLACK
6
CONTINUOUS
10
178.5320619999999963
20
-130.8799569999999903
11
178.5044719999999927
21
-130.9075469999999939
0
LINE
8
BLACK
6
CONTINUOUS
10
178.5044719999999927
20
-130.9075469999999939
11
178.4684239999999988
21
-130.9224789999999814
0
LINE
8
BLACK
6
CONTINUOUS
10
178.4684239999999988
20
-130.9224789999999814
11
178.4489149999999995
21
-130.9243999999999915
0
LINE
8
BLACK
6
CONTINUOUS
10
178.4489149999999995
20
-130.9243999999999915
11
164.4496149999999943
21
-130.9243999999999915
0
LINE
8
BLACK
6
CONTINUOUS
10
164.4496149999999943
20
-130.9243999999999915
11
164.430105999999995
21
-130.9224789999999814
0
LINE
8
BLACK
6
CONTINUOUS
10
164.430105999999995
20
-130.9224789999999814
11
164.3940580000000011
21
-130.9075469999999939
0
LINE
8
BLACK
6
CONTINUOUS
10
164.3940580000000011
20
-130.9075469999999939
11
164.3664679999999976
21
-130.8799569999999903
0
LINE
8
BLACK
6
CONTINUOUS
10
164.3664679999999976
20
-130.8799569999999903
11
164.3515359999999816
21
-130.8439089999999965
0
LINE
8
BLACK
6
CONTINUOUS
10
164.3515359999999816
20
-130.8439089999999965
11
164.349615
21
-130.8243999999999971
0
LINE
8
BLACK
6
CONTINUOUS
10
164.349615
20
-130.8243999999999971
11
164.349615
21
-116.8249999999999886
0
LINE
8
BLACK
6
CONTINUOUS
10
164.349615
20
-116.8249999999999886
11
164.3515359999999816
21
-116.8054909999999893
0
LINE
8
BLACK
6
CONTINUOUS
10
164.3515359999999816
20
-116.8054909999999893
11
164.3664679999999976
21
-116.7694429999999954
0
LINE
8
BLACK
6
CONTINUOUS
10
164.3664679999999976
20
-116.7694429999999954
11
164.3940580000000011
21
-116.7418529999999919
0
LINE
8
BLACK
6
CONTINUOUS
10
164.3940580000000011
20
-116.7418529999999919
11
164.430105999999995
21
-116.7269209999999902
0
LINE
8
BLACK
6
CONTINUOUS
10
164.430105999999995
20
-116.7269209999999902
11
164.4496149999999943
21
-116.7249999999999943
0
LINE
8
BLACK
6
CONTINUOUS
10
164.4496149999999943
20
-116.7249999999999943
11
178.4489149999999995
21
-116.7249999999999943
0
LINE
8
BLACK
6
CONTINUOUS
10
178.4489149999999995
20
-116.7249999999999943
11
178.4684239999999988
21
-116.7269209999999902
0
LINE
8
BLACK
6
CONTINUOUS
10
164.5496149999999886
20
-116.9249999999999972
11
164.5496149999999886
21
-130.7244000000000028
0
LINE
8
BLACK
6
CONTINUOUS
10
164.5496149999999886
20
-130.7244000000000028
11
178.3489150000000052
21
-130.7244000000000028
0
LINE
8
BLACK
6
CONTINUOUS
10
178.3489150000000052
20
-130.7244000000000028
11
178.3489150000000052
21
-116.9249999999999972
0
LINE
8
BLACK
6
CONTINUOUS
10
178.3489150000000052
20
-116.9249999999999972
11
164.5496149999999886
21
-116.9249999999999972
0
LINE
8
BLACK
6
CONTINUOUS
10
121.3186239999999998
20
-97.6768209999999897
11
121.3546719999999937
21
-97.6917529999999914
0
LINE
8
BLACK
6
CONTINUOUS
10
121.3546719999999937
20
-97.6917529999999914
11
121.3822619999999972
21
-97.719342999999995
0
LINE
8
BLACK
6
CONTINUOUS
10
121.3822619999999972
20
-97.719342999999995
11
121.3971939999999989
21
-97.7553909999999888
0
LINE
8
BLACK
6
CONTINUOUS
10
121.3971939999999989
20
-97.7553909999999888
11
121.3991149999999948
21
-97.7749000000000024
0
LINE
8
BLACK
6
CONTINUOUS
10
121.3991149999999948
20
-97.7749000000000024
11
121.3991149999999948
21
-111.7741999999999933
0
LINE
8
BLACK
6
CONTINUOUS
10
121.3991149999999948
20
-111.7741999999999933
11
121.3971939999999989
21
-111.7937089999999927
0
LINE
8
BLACK
6
CONTINUOUS
10
121.3971939999999989
20
-111.7937089999999927
11
121.3822619999999972
21
-111.8297570000000007
0
LINE
8
BLACK
6
CONTINUOUS
10
121.3822619999999972
20
-111.8297570000000007
11
121.3546719999999937
21
-111.8573469999999901
0
LINE
8
BLACK
6
CONTINUOUS
10
121.3546719999999937
20
-111.8573469999999901
11
121.3186239999999998
21
-111.8722789999999918
0
LINE
8
BLACK
6
CONTINUOUS
10
121.3186239999999998
20
-111.8722789999999918
11
121.2991150000000005
21
-111.8742000000000019
0
LINE
8
BLACK
6
CONTINUOUS
10
121.2991150000000005
20
-111.8742000000000019
11
107.2995650000000012
21
-111.8742000000000019
0
LINE
8
BLACK
6
CONTINUOUS
10
107.2995650000000012
20
-111.8742000000000019
11
107.2800560000000019
21
-111.8722789999999918
0
LINE
8
BLACK
6
CONTINUOUS
10
107.2800560000000019
20
-111.8722789999999918
11
107.2440079999999938
21
-111.8573469999999901
0
LINE
8
BLACK
6
CONTINUOUS
10
107.2440079999999938
20
-111.8573469999999901
11
107.2164179999999902
21
-111.8297570000000007
0
LINE
8
BLACK
6
CONTINUOUS
10
107.2164179999999902
20
-111.8297570000000007
11
107.2014859999999885
21
-111.7937089999999927
0
LINE
8
BLACK
6
CONTINUOUS
10
107.2014859999999885
20
-111.7937089999999927
11
107.1995649999999927
21
-111.7741999999999933
0
LINE
8
BLACK
6
CONTINUOUS
10
107.1995649999999927
20
-111.7741999999999933
11
107.1995649999999927
21
-97.7749000000000024
0
LINE
8
BLACK
6
CONTINUOUS
10
107.1995649999999927
20
-97.7749000000000024
11
107.2014859999999885
21
-97.7553909999999888
0
LINE
8
BLACK
6
CONTINUOUS
10
107.2014859999999885
20
-97.7553909999999888
11
107.2164179999999902
21
-97.719342999999995
0
LINE
8
BLACK
6
CONTINUOUS
10
107.2164179999999902
20
-97.719342999999995
11
107.2440079999999938
21
-97.6917529999999914
0
LINE
8
BLACK
6
CONTINUOUS
10
107.2440079999999938
20
-97.6917529999999914
11
107.2800560000000019
21
-97.6768209999999897
0
LINE
8
BLACK
6
CONTINUOUS
10
107.2800560000000019
20
-97.6768209999999897
11
107.2995650000000012
21
-97.6748999999999938
0
LINE
8
BLACK
6
CONTINUOUS
10
107.2995650000000012
20
-97.6748999999999938
11
121.2991150000000005
21
-97.6748999999999938
0
LINE
8
BLACK
6
CONTINUOUS
10
121.2991150000000005
20
-97.6748999999999938
11
121.3186239999999998
21
-97.6768209999999897
0
LINE
8
BLACK
6
CONTINUOUS
10
107.3995649999999955
20
-97.8748999999999967
11
107.3995649999999955
21
-111.674199999999999
0
LINE
8
BLACK
6
CONTINUOUS
10
107.3995649999999955
20
-111.674199999999999
11
121.1991149999999919
21
-111.674199999999999
0
LINE
8
BLACK
6
CONTINUOUS
10
121.1991149999999919
20
-111.674199999999999
11
121.1991149999999919
21
-97.8748999999999967
0
LINE
8
BLACK
6
CONTINUOUS
10
121.1991149999999919
20
-97.8748999999999967
11
107.3995649999999955
21
-97.8748999999999967
0
LINE
8
BLACK
6
CONTINUOUS
10
140.3684240000000045
20
-97.6768209999999897
11
140.4044719999999984
21
-97.6917529999999914
0
LINE
8
BLACK
6
CONTINUOUS
10
140.4044719999999984
20
-97.6917529999999914
11
140.4320620000000019
21
-97.719342999999995
0
LINE
8
BLACK
6
CONTINUOUS
10
140.4320620000000019
20
-97.719342999999995
11
140.4469939999999895
21
-97.7553909999999888
0
LINE
8
BLACK
6
CONTINUOUS
10
140.4469939999999895
20
-97.7553909999999888
11
140.4489149999999995
21
-97.7749000000000024
0
LINE
8
BLACK
6
CONTINUOUS
10
140.4489149999999995
20
-97.7749000000000024
11
140.4489149999999995
21
-111.7741999999999933
0
LINE
8
BLACK
6
CONTINUOUS
10
140.4489149999999995
20
-111.7741999999999933
11
140.4469939999999895
21
-111.7937089999999927
0
LINE
8
BLACK
6
CONTINUOUS
10
140.4469939999999895
20
-111.7937089999999927
11
140.4320620000000019
21
-111.8297570000000007
0
LINE
8
BLACK
6
CONTINUOUS
10
140.4320620000000019
20
-111.8297570000000007
11
140.4044719999999984
21
-111.8573469999999901
0
LINE
8
BLACK
6
CONTINUOUS
10
140.4044719999999984
20
-111.8573469999999901
11
140.3684240000000045
21
-111.8722789999999918
0
LINE
8
BLACK
6
CONTINUOUS
10
140.3684240000000045
20
-111.8722789999999918
11
140.3489150000000052
21
-111.8742000000000019
0
LINE
8
BLACK
6
CONTINUOUS
10
140.3489150000000052
20
-111.8742000000000019
11
126.349615
21
-111.8742000000000019
0
LINE
8
BLACK
6
CONTINUOUS
10
126.349615
20
-111.8742000000000019
11
126.3301060000000007
21
-111.8722789999999918
0
LINE
8
BLACK
6
CONTINUOUS
10
126.3301060000000007
20
-111.8722789999999918
11
126.2940579999999926
21
-111.8573469999999901
0
LINE
8
BLACK
6
CONTINUOUS
10
126.2940579999999926
20
-111.8573469999999901
11
126.266467999999989
21
-111.8297570000000007
0
LINE
8
BLACK
6
CONTINUOUS
10
126.266467999999989
20
-111.8297570000000007
11
126.2515359999999873
21
-111.7937089999999927
0
LINE
8
BLACK
6
CONTINUOUS
10
126.2515359999999873
20
-111.7937089999999927
11
126.2496149999999915
21
-111.7741999999999933
0
LINE
8
BLACK
6
CONTINUOUS
10
126.2496149999999915
20
-111.7741999999999933
11
126.2496149999999915
21
-97.7749000000000024
0
LINE
8
BLACK
6
CONTINUOUS
10
126.2496149999999915
20
-97.7749000000000024
11
126.2515359999999873
21
-97.7553909999999888
0
LINE
8
BLACK
6
CONTINUOUS
10
126.2515359999999873
20
-97.7553909999999888
11
126.266467999999989
21
-97.719342999999995
0
LINE
8
BLACK
6
CONTINUOUS
10
126.266467999999989
20
-97.719342999999995
11
126.2940579999999926
21
-97.6917529999999914
0
LINE
8
BLACK
6
CONTINUOUS
10
126.2940579999999926
20
-97.6917529999999914
11
126.3301060000000007
21
-97.6768209999999897
0
LINE
8
BLACK
6
CONTINUOUS
10
126.3301060000000007
20
-97.6768209999999897
11
126.349615
21
-97.6748999999999938
0
LINE
8
BLACK
6
CONTINUOUS
10
126.349615
20
-97.6748999999999938
11
140.3489150000000052
21
-97.6748999999999938
0
LINE
8
BLACK
6
CONTINUOUS
10
140.3489150000000052
20
-97.6748999999999938
11
140.3684240000000045
21
-97.6768209999999897
0
LINE
8
BLACK
6
CONTINUOUS
10
126.4496149999999943
20
-97.8748999999999967
11
126.4496149999999943
21
-111.674199999999999
0
LINE
8
BLACK
6
CONTINUOUS
10
126.4496149999999943
20
-111.674199999999999
11
140.2489149999999825
21
-111.674199999999999
0
LINE
8
BLACK
6
CONTINUOUS
10
140.2489149999999825
20
-111.674199999999999
11
140.2489149999999825
21
-97.8748999999999967
0
LINE
8
BLACK
6
CONTINUOUS
10
140.2489149999999825
20
-97.8748999999999967
11
126.4496149999999943
21
-97.8748999999999967
0
LINE
8
BLACK
6
CONTINUOUS
10
159.4184239999999875
20
-97.6768209999999897
11
159.4544719999999813
21
-97.6917529999999914
0
LINE
8
BLACK
6
CONTINUOUS
10
159.4544719999999813
20
-97.6917529999999914
11
159.4820619999999849
21
-97.719342999999995
0
LINE
8
BLACK
6
CONTINUOUS
10
159.4820619999999849
20
-97.719342999999995
11
159.4969940000000008
21
-97.7553909999999888
0
LINE
8
BLACK
6
CONTINUOUS
10
159.4969940000000008
20
-97.7553909999999888
11
159.4989149999999825
21
-97.7749000000000024
0
LINE
8
BLACK
6
CONTINUOUS
10
159.4989149999999825
20
-97.7749000000000024
11
159.4989149999999825
21
-111.7741999999999933
0
LINE
8
BLACK
6
CONTINUOUS
10
159.4989149999999825
20
-111.7741999999999933
11
159.4969940000000008
21
-111.7937089999999927
0
LINE
8
BLACK
6
CONTINUOUS
10
159.4969940000000008
20
-111.7937089999999927
11
159.4820619999999849
21
-111.8297570000000007
0
LINE
8
BLACK
6
CONTINUOUS
10
159.4820619999999849
20
-111.8297570000000007
11
159.4544719999999813
21
-111.8573469999999901
0
LINE
8
BLACK
6
CONTINUOUS
10
159.4544719999999813
20
-111.8573469999999901
11
159.4184239999999875
21
-111.8722789999999918
0
LINE
8
BLACK
6
CONTINUOUS
10
159.4184239999999875
20
-111.8722789999999918
11
159.3989149999999881
21
-111.8742000000000019
0
LINE
8
BLACK
6
CONTINUOUS
10
159.3989149999999881
20
-111.8742000000000019
11
145.399614999999983
21
-111.8742000000000019
0
LINE
8
BLACK
6
CONTINUOUS
10
145.399614999999983
20
-111.8742000000000019
11
145.3801059999999836
21
-111.8722789999999918
0
LINE
8
BLACK
6
CONTINUOUS
10
145.3801059999999836
20
-111.8722789999999918
11
145.3440579999999898
21
-111.8573469999999901
0
LINE
8
BLACK
6
CONTINUOUS
10
145.3440579999999898
20
-111.8573469999999901
11
145.3164679999999862
21
-111.8297570000000007
0
LINE
8
BLACK
6
CONTINUOUS
10
145.3164679999999862
20
-111.8297570000000007
11
145.3015359999999987
21
-111.7937089999999927
0
LINE
8
BLACK
6
CONTINUOUS
10
145.3015359999999987
20
-111.7937089999999927
11
145.2996149999999886
21
-111.7741999999999933
0
LINE
8
BLACK
6
CONTINUOUS
10
145.2996149999999886
20
-111.7741999999999933
11
145.2996149999999886
21
-97.7749000000000024
0
LINE
8
BLACK
6
CONTINUOUS
10
145.2996149999999886
20
-97.7749000000000024
11
145.3015359999999987
21
-97.7553909999999888
0
LINE
8
BLACK
6
CONTINUOUS
10
145.3015359999999987
20
-97.7553909999999888
11
145.3164679999999862
21
-97.719342999999995
0
LINE
8
BLACK
6
CONTINUOUS
10
145.3164679999999862
20
-97.719342999999995
11
145.3440579999999898
21
-97.6917529999999914
0
LINE
8
BLACK
6
CONTINUOUS
10
145.3440579999999898
20
-97.6917529999999914
11
145.3801059999999836
21
-97.6768209999999897
0
LINE
8
BLACK
6
CONTINUOUS
10
145.3801059999999836
20
-97.6768209999999897
11
145.399614999999983
21
-97.6748999999999938
0
LINE
8
BLACK
6
CONTINUOUS
10
145.399614999999983
20
-97.6748999999999938
11
159.3989149999999881
21
-97.6748999999999938
0
LINE
8
BLACK
6
CONTINUOUS
10
159.3989149999999881
20
-97.6748999999999938
11
159.4184239999999875
21
-97.6768209999999897
0
LINE
8
BLACK
6
CONTINUOUS
10
145.4996150000000057
20
-97.8748999999999967
11
145.4996150000000057
21
-111.674199999999999
0
LINE
8
BLACK
6
CONTINUOUS
10
145.4996150000000057
20
-111.674199999999999
11
159.2989149999999938
21
-111.674199999999999
0
LINE
8
BLACK
6
CONTINUOUS
10
159.2989149999999938
20
-111.674199999999999
11
159.2989149999999938
21
-97.8748999999999967
0
LINE
8
BLACK
6
CONTINUOUS
10
159.2989149999999938
20
-97.8748999999999967
11
145.4996150000000057
21
-97.8748999999999967
0
LINE
8
BLACK
6
CONTINUOUS
10
178.4684239999999988
20
-97.6768209999999897
11
178.5044719999999927
21
-97.6917529999999914
0
LINE
8
BLACK
6
CONTINUOUS
10
178.5044719999999927
20
-97.6917529999999914
11
178.5320619999999963
21
-97.719342999999995
0
LINE
8
BLACK
6
CONTINUOUS
10
178.5320619999999963
20
-97.719342999999995
11
178.5469939999999838
21
-97.7553909999999888
0
LINE
8
BLACK
6
CONTINUOUS
10
178.5469939999999838
20
-97.7553909999999888
11
178.5489149999999938
21
-97.7749000000000024
0
LINE
8
BLACK
6
CONTINUOUS
10
178.5489149999999938
20
-97.7749000000000024
11
178.5489149999999938
21
-111.7741999999999933
0
LINE
8
BLACK
6
CONTINUOUS
10
178.5489149999999938
20
-111.7741999999999933
11
178.5469939999999838
21
-111.7937089999999927
0
LINE
8
BLACK
6
CONTINUOUS
10
178.5469939999999838
20
-111.7937089999999927
11
178.5320619999999963
21
-111.8297570000000007
0
LINE
8
BLACK
6
CONTINUOUS
10
178.5320619999999963
20
-111.8297570000000007
11
178.5044719999999927
21
-111.8573469999999901
0
LINE
8
BLACK
6
CONTINUOUS
10
178.5044719999999927
20
-111.8573469999999901
11
178.4684239999999988
21
-111.8722789999999918
0
LINE
8
BLACK
6
CONTINUOUS
10
178.4684239999999988
20
-111.8722789999999918
11
178.4489149999999995
21
-111.8742000000000019
0
LINE
8
BLACK
6
CONTINUOUS
10
178.4489149999999995
20
-111.8742000000000019
11
164.4496149999999943
21
-111.8742000000000019
0
LINE
8
BLACK
6
CONTINUOUS
10
164.4496149999999943
20
-111.8742000000000019
11
164.430105999999995
21
-111.8722789999999918
0
LINE
8
BLACK
6
CONTINUOUS
10
164.430105999999995
20
-111.8722789999999918
11
164.3940580000000011
21
-111.8573469999999901
0
LINE
8
BLACK
6
CONTINUOUS
10
164.3940580000000011
20
-111.8573469999999901
11
164.3664679999999976
21
-111.8297570000000007
0
LINE
8
BLACK
6
CONTINUOUS
10
164.3664679999999976
20
-111.8297570000000007
11
164.3515359999999816
21
-111.7937089999999927
0
LINE
8
BLACK
6
CONTINUOUS
10
164.3515359999999816
20
-111.7937089999999927
11
164.349615
21
-111.7741999999999933
0
LINE
8
BLACK
6
CONTINUOUS
10
164.349615
20
-111.7741999999999933
11
164.349615
21
-97.7749000000000024
0
LINE
8
BLACK
6
CONTINUOUS
10
164.349615
20
-97.7749000000000024
11
164.3515359999999816
21
-97.7553909999999888
0
LINE
8
BLACK
6
CONTINUOUS
10
164.3515359999999816
20
-97.7553909999999888
11
164.3664679999999976
21
-97.719342999999995
0
LINE
8
BLACK
6
CONTINUOUS
10
164.3664679999999976
20
-97.719342999999995
11
164.3940580000000011
21
-97.6917529999999914
0
LINE
8
BLACK
6
CONTINUOUS
10
164.3940580000000011
20
-97.6917529999999914
11
164.430105999999995
21
-97.6768209999999897
0
LINE
8
BLACK
6
CONTINUOUS
10
164.430105999999995
20
-97.6768209999999897
11
164.4496149999999943
21
-97.6748999999999938
0
LINE
8
BLACK
6
CONTINUOUS
10
164.4496149999999943
20
-97.6748999999999938
11
178.4489149999999995
21
-97.6748999999999938
0
LINE
8
BLACK
6
CONTINUOUS
10
178.4489149999999995
20
-97.6748999999999938
11
178.4684239999999988
21
-97.6768209999999897
0
LINE
8
BLACK
6
CONTINUOUS
10
164.5496149999999886
20
-97.8748999999999967
11
164.5496149999999886
21
-111.674199999999999
0
LINE
8
BLACK
6
CONTINUOUS
10
164.5496149999999886
20
-111.674199999999999
11
178.3489150000000052
21
-111.674199999999999
0
LINE
8
BLACK
6
CONTINUOUS
10
178.3489150000000052
20
-111.674199999999999
11
178.3489150000000052
21
-97.8748999999999967
0
LINE
8
BLACK
6
CONTINUOUS
10
178.3489150000000052
20
-97.8748999999999967
11
164.5496149999999886
21
-97.8748999999999967
0
LINE
8
BLACK
6
CONTINUOUS
10
121.3186239999999998
20
-78.6268209999999925
11
121.3546719999999937
21
-78.6417529999999942
0
LINE
8
BLACK
6
CONTINUOUS
10
121.3546719999999937
20
-78.6417529999999942
11
121.3822619999999972
21
-78.6693429999999978
0
LINE
8
BLACK
6
CONTINUOUS
10
121.3822619999999972
20
-78.6693429999999978
11
121.3971939999999989
21
-78.7053909999999917
0
LINE
8
BLACK
6
CONTINUOUS
10
121.3971939999999989
20
-78.7053909999999917
11
121.3991149999999948
21
-78.724899999999991
0
LINE
8
BLACK
6
CONTINUOUS
10
121.3991149999999948
20
-78.724899999999991
11
121.3991149999999948
21
-92.7241999999999962
0
LINE
8
BLACK
6
CONTINUOUS
10
121.3991149999999948
20
-92.7241999999999962
11
121.3971939999999989
21
-92.7437089999999955
0
LINE
8
BLACK
6
CONTINUOUS
10
121.3971939999999989
20
-92.7437089999999955
11
121.3822619999999972
21
-92.7797569999999894
0
LINE
8
BLACK
6
CONTINUOUS
10
121.3822619999999972
20
-92.7797569999999894
11
121.3546719999999937
21
-92.8073469999999929
0
LINE
8
BLACK
6
CONTINUOUS
10
121.3546719999999937
20
-92.8073469999999929
11
121.3186239999999998
21
-92.8222789999999947
0
LINE
8
BLACK
6
CONTINUOUS
10
121.3186239999999998
20
-92.8222789999999947
11
121.2991150000000005
21
-92.8241999999999905
0
LINE
8
BLACK
6
CONTINUOUS
10
121.2991150000000005
20
-92.8241999999999905
11
107.2995650000000012
21
-92.8241999999999905
0
LINE
8
BLACK
6
CONTINUOUS
10
107.2995650000000012
20
-92.8241999999999905
11
107.2800560000000019
21
-92.8222789999999947
0
LINE
8
BLACK
6
CONTINUOUS
10
107.2800560000000019
20
-92.8222789999999947
11
107.2440079999999938
21
-92.8073469999999929
0
LINE
8
BLACK
6
CONTINUOUS
10
107.2440079999999938
20
-92.8073469999999929
11
107.2164179999999902
21
-92.7797569999999894
0
LINE
8
BLACK
6
CONTINUOUS
10
107.2164179999999902
20
-92.7797569999999894
11
107.2014859999999885
21
-92.7437089999999955
0
LINE
8
BLACK
6
CONTINUOUS
10
107.2014859999999885
20
-92.7437089999999955
11
107.1995649999999927
21
-92.7241999999999962
0
LINE
8
BLACK
6
CONTINUOUS
10
107.1995649999999927
20
-92.7241999999999962
11
107.1995649999999927
21
-78.724899999999991
0
LINE
8
BLACK
6
CONTINUOUS
10
107.1995649999999927
20
-78.724899999999991
11
107.2014859999999885
21
-78.7053909999999917
0
LINE
8
BLACK
6
CONTINUOUS
10
107.2014859999999885
20
-78.7053909999999917
11
107.2164179999999902
21
-78.6693429999999978
0
LINE
8
BLACK
6
CONTINUOUS
10
107.2164179999999902
20
-78.6693429999999978
11
107.2440079999999938
21
-78.6417529999999942
0
LINE
8
BLACK
6
CONTINUOUS
10
107.2440079999999938
20
-78.6417529999999942
11
107.2800560000000019
21
-78.6268209999999925
0
LINE
8
BLACK
6
CONTINUOUS
10
107.2800560000000019
20
-78.6268209999999925
11
107.2995650000000012
21
-78.6248999999999967
0
LINE
8
BLACK
6
CONTINUOUS
10
107.2995650000000012
20
-78.6248999999999967
11
121.2991150000000005
21
-78.6248999999999967
0
LINE
8
BLACK
6
CONTINUOUS
10
121.2991150000000005
20
-78.6248999999999967
11
121.3186239999999998
21
-78.6268209999999925
0
LINE
8
BLACK
6
CONTINUOUS
10
107.3995649999999955
20
-78.8248999999999995
11
107.3995649999999955
21
-92.6242000000000019
0
LINE
8
BLACK
6
CONTINUOUS
10
107.3995649999999955
20
-92.6242000000000019
11
121.1991149999999919
21
-92.6242000000000019
0
LINE
8
BLACK
6
CONTINUOUS
10
121.1991149999999919
20
-92.6242000000000019
11
121.1991149999999919
21
-78.8248999999999995
0
LINE
8
BLACK
6
CONTINUOUS
10
121.1991149999999919
20
-78.8248999999999995
11
107.3995649999999955
21
-78.8248999999999995
0
LINE
8
BLACK
6
CONTINUOUS
10
140.3684240000000045
20
-78.6268209999999925
11
140.4044719999999984
21
-78.6417529999999942
0
LINE
8
BLACK
6
CONTINUOUS
10
140.4044719999999984
20
-78.6417529999999942
11
140.4320620000000019
21
-78.6693429999999978
0
LINE
8
BLACK
6
CONTINUOUS
10
140.4320620000000019
20
-78.6693429999999978
11
140.4469939999999895
21
-78.7053909999999917
0
LINE
8
BLACK
6
CONTINUOUS
10
140.4469939999999895
20
-78.7053909999999917
11
140.4489149999999995
21
-78.724899999999991
0
LINE
8
BLACK
6
CONTINUOUS
10
140.4489149999999995
20
-78.724899999999991
11
140.4489149999999995
21
-92.7241999999999962
0
LINE
8
BLACK
6
CONTINUOUS
10
140.4489149999999995
20
-92.7241999999999962
11
140.4469939999999895
21
-92.7437089999999955
0
LINE
8
BLACK
6
CONTINUOUS
10
140.4469939999999895
20
-92.7437089999999955
11
140.4320620000000019
21
-92.7797569999999894
0
LINE
8
BLACK
6
CONTINUOUS
10
140.4320620000000019
20
-92.7797569999999894
11
140.4044719999999984
21
-92.8073469999999929
0
LINE
8
BLACK
6
CONTINUOUS
10
140.4044719999999984
20
-92.8073469999999929
11
140.3684240000000045
21
-92.8222789999999947
0
LINE
8
BLACK
6
CONTINUOUS
10
140.3684240000000045
20
-92.8222789999999947
11
140.3489150000000052
21
-92.8241999999999905
0
LINE
8
BLACK
6
CONTINUOUS
10
140.3489150000000052
20
-92.8241999999999905
11
126.349615
21
-92.8241999999999905
0
LINE
8
BLACK
6
CONTINUOUS
10
126.349615
20
-92.8241999999999905
11
126.3301060000000007
21
-92.8222789999999947
0
LINE
8
BLACK
6
CONTINUOUS
10
126.3301060000000007
20
-92.8222789999999947
11
126.2940579999999926
21
-92.8073469999999929
0
LINE
8
BLACK
6
CONTINUOUS
10
126.2940579999999926
20
-92.8073469999999929
11
126.266467999999989
21
-92.7797569999999894
0
LINE
8
BLACK
6
CONTINUOUS
10
126.266467999999989
20
-92.7797569999999894
11
126.2515359999999873
21
-92.7437089999999955
0
LINE
8
BLACK
6
CONTINUOUS
10
126.2515359999999873
20
-92.7437089999999955
11
126.2496149999999915
21
-92.7241999999999962
0
LINE
8
BLACK
6
CONTINUOUS
10
126.2496149999999915
20
-92.7241999999999962
11
126.2496149999999915
21
-78.724899999999991
0
LINE
8
BLACK
6
CONTINUOUS
10
126.2496149999999915
20
-78.724899999999991
11
126.2515359999999873
21
-78.7053909999999917
0
LINE
8
BLACK
6
CONTINUOUS
10
126.2515359999999873
20
-78.7053909999999917
11
126.266467999999989
21
-78.6693429999999978
0
LINE
8
BLACK
6
CONTINUOUS
10
126.266467999999989
20
-78.6693429999999978
11
126.2940579999999926
21
-78.6417529999999942
0
LINE
8
BLACK
6
CONTINUOUS
10
126.2940579999999926
20
-78.6417529999999942
11
126.3301060000000007
21
-78.6268209999999925
0
LINE
8
BLACK
6
CONTINUOUS
10
126.3301060000000007
20
-78.6268209999999925
11
126.349615
21
-78.6248999999999967
0
LINE
8
BLACK
6
CONTINUOUS
10
126.349615
20
-78.6248999999999967
11
140.3489150000000052
21
-78.6248999999999967
0
LINE
8
BLACK
6
CONTINUOUS
10
140.3489150000000052
20
-78.6248999999999967
11
140.3684240000000045
21
-78.6268209999999925
0
LINE
8
BLACK
6
CONTINUOUS
10
126.4496149999999943
20
-78.8248999999999995
11
126.4496149999999943
21
-92.6242000000000019
0
LINE
8
BLACK
6
CONTINUOUS
10
126.4496149999999943
20
-92.6242000000000019
11
140.2489149999999825
21
-92.6242000000000019
0
LINE
8
BLACK
6
CONTINUOUS
10
140.2489149999999825
20
-92.6242000000000019
11
140.2489149999999825
21
-78.8248999999999995
0
LINE
8
BLACK
6
CONTINUOUS
10
140.2489149999999825
20
-78.8248999999999995
11
126.4496149999999943
21
-78.8248999999999995
0
LINE
8
BLACK
6
CONTINUOUS
10
159.4184239999999875
20
-78.6268209999999925
11
159.4544719999999813
21
-78.6417529999999942
0
LINE
8
BLACK
6
CONTINUOUS
10
159.4544719999999813
20
-78.6417529999999942
11
159.4820619999999849
21
-78.6693429999999978
0
LINE
8
BLACK
6
CONTINUOUS
10
159.4820619999999849
20
-78.6693429999999978
11
159.4969940000000008
21
-78.7053909999999917
0
LINE
8
BLACK
6
CONTINUOUS
10
159.4969940000000008
20
-78.7053909999999917
11
159.4989149999999825
21
-78.724899999999991
0
LINE
8
BLACK
6
CONTINUOUS
10
159.4989149999999825
20
-78.724899999999991
11
159.4989149999999825
21
-92.7241999999999962
0
LINE
8
BLACK
6
CONTINUOUS
10
159.4989149999999825
20
-92.7241999999999962
11
159.4969940000000008
21
-92.7437089999999955
0
LINE
8
BLACK
6
CONTINUOUS
10
159.4969940000000008
20
-92.7437089999999955
11
159.4820619999999849
21
-92.7797569999999894
0
LINE
8
BLACK
6
CONTINUOUS
10
159.4820619999999849
20
-92.7797569999999894
11
159.4544719999999813
21
-92.8073469999999929
0
LINE
8
BLACK
6
CONTINUOUS
10
159.4544719999999813
20
-92.8073469999999929
11
159.4184239999999875
21
-92.8222789999999947
0
LINE
8
BLACK
6
CONTINUOUS
10
159.4184239999999875
20
-92.8222789999999947
11
159.3989149999999881
21
-92.8241999999999905
0
LINE
8
BLACK
6
CONTINUOUS
10
159.3989149999999881
20
-92.8241999999999905
11
145.399614999999983
21
-92.8241999999999905
0
LINE
8
BLACK
6
CONTINUOUS
10
145.399614999999983
20
-92.8241999999999905
11
145.3801059999999836
21
-92.8222789999999947
0
LINE
8
BLACK
6
CONTINUOUS
10
145.3801059999999836
20
-92.8222789999999947
11
145.3440579999999898
21
-92.8073469999999929
0
LINE
8
BLACK
6
CONTINUOUS
10
145.3440579999999898
20
-92.8073469999999929
11
145.3164679999999862
21
-92.7797569999999894
0
LINE
8
BLACK
6
CONTINUOUS
10
145.3164679999999862
20
-92.7797569999999894
11
145.3015359999999987
21
-92.7437089999999955
0
LINE
8
BLACK
6
CONTINUOUS
10
145.3015359999999987
20
-92.7437089999999955
11
145.2996149999999886
21
-92.7241999999999962
0
LINE
8
BLACK
6
CONTINUOUS
10
145.2996149999999886
20
-92.7241999999999962
11
145.2996149999999886
21
-78.724899999999991
0
LINE
8
BLACK
6
CONTINUOUS
10
145.2996149999999886
20
-78.724899999999991
11
145.3015359999999987
21
-78.7053909999999917
0
LINE
8
BLACK
6
CONTINUOUS
10
145.3015359999999987
20
-78.7053909999999917
11
145.3164679999999862
21
-78.6693429999999978
0
LINE
8
BLACK
6
CONTINUOUS
10
145.3164679999999862
20
-78.6693429999999978
11
145.3440579999999898
21
-78.6417529999999942
0
LINE
8
BLACK
6
CONTINUOUS
10
145.3440579999999898
20
-78.6417529999999942
11
145.3801059999999836
21
-78.6268209999999925
0
LINE
8
BLACK
6
CONTINUOUS
10
145.3801059999999836
20
-78.6268209999999925
11
145.399614999999983
21
-78.6248999999999967
0
LINE
8
BLACK
6
CONTINUOUS
10
145.399614999999983
20
-78.6248999999999967
11
159.3989149999999881
21
-78.6248999999999967
0
LINE
8
BLACK
6
CONTINUOUS
10
159.3989149999999881
20
-78.6248999999999967
11
159.4184239999999875
21
-78.6268209999999925
0
LINE
8
BLACK
6
CONTINUOUS
10
145.4996150000000057
20
-78.8248999999999995
11
145.4996150000000057
21
-92.6242000000000019
0
LINE
8
BLACK
6
CONTINUOUS
10
145.4996150000000057
20
-92.6242000000000019
11
159.2989149999999938
21
-92.6242000000000019
0
LINE
8
BLACK
6
CONTINUOUS
10
159.2989149999999938
20
-92.6242000000000019
11
159.2989149999999938
21
-78.8248999999999995
0
LINE
8
BLACK
6
CONTINUOUS
10
159.2989149999999938
20
-78.8248999999999995
11
145.4996150000000057
21
-78.8248999999999995
0
LINE
8
BLACK
6
CONTINUOUS
10
178.4684239999999988
20
-78.6268209999999925
11
178.5044719999999927
21
-78.6417529999999942
0
LINE
8
BLACK
6
CONTINUOUS
10
178.5044719999999927
20
-78.6417529999999942
11
178.5320619999999963
21
-78.6693429999999978
0
LINE
8
BLACK
6
CONTINUOUS
10
178.5320619999999963
20
-78.6693429999999978
11
178.5469939999999838
21
-78.7053909999999917
0
LINE
8
BLACK
6
CONTINUOUS
10
178.5469939999999838
20
-78.7053909999999917
11
178.5489149999999938
21
-78.724899999999991
0
LINE
8
BLACK
6
CONTINUOUS
10
178.5489149999999938
20
-78.724899999999991
11
178.5489149999999938
21
-92.7241999999999962
0
LINE
8
BLACK
6
CONTINUOUS
10
178.5489149999999938
20
-92.7241999999999962
11
178.5469939999999838
21
-92.7437089999999955
0
LINE
8
BLACK
6
CONTINUOUS
10
178.5469939999999838
20
-92.7437089999999955
11
178.5320619999999963
21
-92.7797569999999894
0
LINE
8
BLACK
6
CONTINUOUS
10
178.5320619999999963
20
-92.7797569999999894
11
178.5044719999999927
21
-92.8073469999999929
0
LINE
8
BLACK
6
CONTINUOUS
10
178.5044719999999927
20
-92.8073469999999929
11
178.4684239999999988
21
-92.8222789999999947
0
LINE
8
BLACK
6
CONTINUOUS
10
178.4684239999999988
20
-92.8222789999999947
11
178.4489149999999995
21
-92.8241999999999905
0
LINE
8
BLACK
6
CONTINUOUS
10
178.4489149999999995
20
-92.8241999999999905
11
164.4496149999999943
21
-92.8241999999999905
0
LINE
8
BLACK
6
CONTINUOUS
10
164.4496149999999943
20
-92.8241999999999905
11
164.430105999999995
21
-92.8222789999999947
0
LINE
8
BLACK
6
CONTINUOUS
10
164.430105999999995
20
-92.8222789999999947
11
164.3940580000000011
21
-92.8073469999999929
0
LINE
8
BLACK
6
CONTINUOUS
10
164.3940580000000011
20
-92.8073469999999929
11
164.3664679999999976
21
-92.7797569999999894
0
LINE
8
BLACK
6
CONTINUOUS
10
164.3664679999999976
20
-92.7797569999999894
11
164.3515359999999816
21
-92.7437089999999955
0
LINE
8
BLACK
6
CONTINUOUS
10
164.3515359999999816
20
-92.7437089999999955
11
164.349615
21
-92.7241999999999962
0
LINE
8
BLACK
6
CONTINUOUS
10
164.349615
20
-92.7241999999999962
11
164.349615
21
-78.724899999999991
0
LINE
8
BLACK
6
CONTINUOUS
10
164.349615
20
-78.724899999999991
11
164.3515359999999816
21
-78.7053909999999917
0
LINE
8
BLACK
6
CONTINUOUS
10
164.3515359999999816
20
-78.7053909999999917
11
164.3664679999999976
21
-78.6693429999999978
0
LINE
8
BLACK
6
CONTINUOUS
10
164.3664679999999976
20
-78.6693429999999978
11
164.3940580000000011
21
-78.6417529999999942
0
LINE
8
BLACK
6
CONTINUOUS
10
164.3940580000000011
20
-78.6417529999999942
11
164.430105999999995
21
-78.6268209999999925
0
LINE
8
BLACK
6
CONTINUOUS
10
164.430105999999995
20
-78.6268209999999925
11
164.4496149999999943
21
-78.6248999999999967
0
LINE
8
BLACK
6
CONTINUOUS
10
164.4496149999999943
20
-78.6248999999999967
11
178.4489149999999995
21
-78.6248999999999967
0
LINE
8
BLACK
6
CONTINUOUS
10
178.4489149999999995
20
-78.6248999999999967
11
178.4684239999999988
21
-78.6268209999999925
0
LINE
8
BLACK
6
CONTINUOUS
10
164.5496149999999886
20
-78.8248999999999995
11
164.5496149999999886
21
-92.6242000000000019
0
LINE
8
BLACK
6
CONTINUOUS
10
164.5496149999999886
20
-92.6242000000000019
11
178.3489150000000052
21
-92.6242000000000019
0
LINE
8
BLACK
6
CONTINUOUS
10
178.3489150000000052
20
-92.6242000000000019
11
178.3489150000000052
21
-78.8248999999999995
0
LINE
8
BLACK
6
CONTINUOUS
10
178.3489150000000052
20
-78.8248999999999995
11
164.5496149999999886
21
-78.8248999999999995
0
LINE
8
BLACK
6
CONTINUOUS
10
121.3186239999999998
20
-59.5768209999999954
11
121.3546719999999937
21
-59.5917529999999971
0
LINE
8
BLACK
6
CONTINUOUS
10
121.3546719999999937
20
-59.5917529999999971
11
121.3822619999999972
21
-59.6193430000000006
0
LINE
8
BLACK
6
CONTINUOUS
10
121.3822619999999972
20
-59.6193430000000006
11
121.3971939999999989
21
-59.6553909999999945
0
LINE
8
BLACK
6
CONTINUOUS
10
121.3971939999999989
20
-59.6553909999999945
11
121.3991149999999948
21
-59.6748999999999938
0
LINE
8
BLACK
6
CONTINUOUS
10
121.3991149999999948
20
-59.6748999999999938
11
121.3991149999999948
21
-73.674199999999999
0
LINE
8
BLACK
6
CONTINUOUS
10
121.3991149999999948
20
-73.674199999999999
11
121.3971939999999989
21
-73.6937089999999984
0
LINE
8
BLACK
6
CONTINUOUS
10
121.3971939999999989
20
-73.6937089999999984
11
121.3822619999999972
21
-73.7297569999999922
0
LINE
8
BLACK
6
CONTINUOUS
10
121.3822619999999972
20
-73.7297569999999922
11
121.3546719999999937
21
-73.7573469999999958
0
LINE
8
BLACK
6
CONTINUOUS
10
121.3546719999999937
20
-73.7573469999999958
11
121.3186239999999998
21
-73.7722789999999975
0
LINE
8
BLACK
6
CONTINUOUS
10
121.3186239999999998
20
-73.7722789999999975
11
121.2991150000000005
21
-73.7741999999999933
0
LINE
8
BLACK
6
CONTINUOUS
10
121.2991150000000005
20
-73.7741999999999933
11
107.2995650000000012
21
-73.7741999999999933
0
LINE
8
BLACK
6
CONTINUOUS
10
107.2995650000000012
20
-73.7741999999999933
11
107.2800560000000019
21
-73.7722789999999975
0
LINE
8
BLACK
6
CONTINUOUS
10
107.2800560000000019
20
-73.7722789999999975
11
107.2440079999999938
21
-73.7573469999999958
0
LINE
8
BLACK
6
CONTINUOUS
10
107.2440079999999938
20
-73.7573469999999958
11
107.2164179999999902
21
-73.7297569999999922
0
LINE
8
BLACK
6
CONTINUOUS
10
107.2164179999999902
20
-73.7297569999999922
11
107.2014859999999885
21
-73.6937089999999984
0
LINE
8
BLACK
6
CONTINUOUS
10
107.2014859999999885
20
-73.6937089999999984
11
107.1995649999999927
21
-73.674199999999999
0
LINE
8
BLACK
6
CONTINUOUS
10
107.1995649999999927
20
-73.674199999999999
11
107.1995649999999927
21
-59.6748999999999938
0
LINE
8
BLACK
6
CONTINUOUS
10
107.1995649999999927
20
-59.6748999999999938
11
107.2014859999999885
21
-59.6553909999999945
0
LINE
8
BLACK
6
CONTINUOUS
10
107.2014859999999885
20
-59.6553909999999945
11
107.2164179999999902
21
-59.6193430000000006
0
LINE
8
BLACK
6
CONTINUOUS
10
107.2164179999999902
20
-59.6193430000000006
11
107.2440079999999938
21
-59.5917529999999971
0
LINE
8
BLACK
6
CONTINUOUS
10
107.2440079999999938
20
-59.5917529999999971
11
107.2800560000000019
21
-59.5768209999999954
0
LINE
8
BLACK
6
CONTINUOUS
10
107.2800560000000019
20
-59.5768209999999954
11
107.2995650000000012
21
-59.5748999999999995
0
LINE
8
BLACK
6
CONTINUOUS
10
107.2995650000000012
20
-59.5748999999999995
11
121.2991150000000005
21
-59.5748999999999995
0
LINE
8
BLACK
6
CONTINUOUS
10
121.2991150000000005
20
-59.5748999999999995
11
121.3186239999999998
21
-59.5768209999999954
0
LINE
8
BLACK
6
CONTINUOUS
10
107.3995649999999955
20
-59.7748999999999953
11
107.3995649999999955
21
-73.5741999999999905
0
LINE
8
BLACK
6
CONTINUOUS
10
107.3995649999999955
20
-73.5741999999999905
11
121.1991149999999919
21
-73.5741999999999905
0
LINE
8
BLACK
6
CONTINUOUS
10
121.1991149999999919
20
-73.5741999999999905
11
121.1991149999999919
21
-59.7748999999999953
0
LINE
8
BLACK
6
CONTINUOUS
10
121.1991149999999919
20
-59.7748999999999953
11
107.3995649999999955
21
-59.7748999999999953
0
LINE
8
BLACK
6
CONTINUOUS
10
140.3684240000000045
20
-59.5768209999999954
11
140.4044719999999984
21
-59.5917529999999971
0
LINE
8
BLACK
6
CONTINUOUS
10
140.4044719999999984
20
-59.5917529999999971
11
140.4320620000000019
21
-59.6193430000000006
0
LINE
8
BLACK
6
CONTINUOUS
10
140.4320620000000019
20
-59.6193430000000006
11
140.4469939999999895
21
-59.6553909999999945
0
LINE
8
BLACK
6
CONTINUOUS
10
140.4469939999999895
20
-59.6553909999999945
11
140.4489149999999995
21
-59.6748999999999938
0
LINE
8
BLACK
6
CONTINUOUS
10
140.4489149999999995
20
-59.6748999999999938
11
140.4489149999999995
21
-73.674199999999999
0
LINE
8
BLACK
6
CONTINUOUS
10
140.4489149999999995
20
-73.674199999999999
11
140.4469939999999895
21
-73.6937089999999984
0
LINE
8
BLACK
6
CONTINUOUS
10
140.4469939999999895
20
-73.6937089999999984
11
140.4320620000000019
21
-73.7297569999999922
0
LINE
8
BLACK
6
CONTINUOUS
10
140.4320620000000019
20
-73.7297569999999922
11
140.4044719999999984
21
-73.7573469999999958
0
LINE
8
BLACK
6
CONTINUOUS
10
140.4044719999999984
20
-73.7573469999999958
11
140.3684240000000045
21
-73.7722789999999975
0
LINE
8
BLACK
6
CONTINUOUS
10
140.3684240000000045
20
-73.7722789999999975
11
140.3489150000000052
21
-73.7741999999999933
0
LINE
8
BLACK
6
CONTINUOUS
10
140.3489150000000052
20
-73.7741999999999933
11
126.349615
21
-73.7741999999999933
0
LINE
8
BLACK
6
CONTINUOUS
10
126.349615
20
-73.7741999999999933
11
126.3301060000000007
21
-73.7722789999999975
0
LINE
8
BLACK
6
CONTINUOUS
10
126.3301060000000007
20
-73.7722789999999975
11
126.2940579999999926
21
-73.7573469999999958
0
LINE
8
BLACK
6
CONTINUOUS
10
126.2940579999999926
20
-73.7573469999999958
11
126.266467999999989
21
-73.7297569999999922
0
LINE
8
BLACK
6
CONTINUOUS
10
126.266467999999989
20
-73.7297569999999922
11
126.2515359999999873
21
-73.6937089999999984
0
LINE
8
BLACK
6
CONTINUOUS
10
126.2515359999999873
20
-73.6937089999999984
11
126.2496149999999915
21
-73.674199999999999
0
LINE
8
BLACK
6
CONTINUOUS
10
126.2496149999999915
20
-73.674199999999999
11
126.2496149999999915
21
-59.6748999999999938
0
LINE
8
BLACK
6
CONTINUOUS
10
126.2496149999999915
20
-59.6748999999999938
11
126.2515359999999873
21
-59.6553909999999945
0
LINE
8
BLACK
6
CONTINUOUS
10
126.2515359999999873
20
-59.6553909999999945
11
126.266467999999989
21
-59.6193430000000006
0
LINE
8
BLACK
6
CONTINUOUS
10
126.266467999999989
20
-59.6193430000000006
11
126.2940579999999926
21
-59.5917529999999971
0
LINE
8
BLACK
6
CONTINUOUS
10
126.2940579999999926
20
-59.5917529999999971
11
126.3301060000000007
21
-59.5768209999999954
0
LINE
8
BLACK
6
CONTINUOUS
10
126.3301060000000007
20
-59.5768209999999954
11
126.349615
21
-59.5748999999999995
0
LINE
8
BLACK
6
CONTINUOUS
10
126.349615
20
-59.5748999999999995
11
140.3489150000000052
21
-59.5748999999999995
0
LINE
8
BLACK
6
CONTINUOUS
10
140.3489150000000052
20
-59.5748999999999995
11
140.3684240000000045
21
-59.5768209999999954
0
LINE
8
BLACK
6
CONTINUOUS
10
126.4496149999999943
20
-59.7748999999999953
11
126.4496149999999943
21
-73.5741999999999905
0
LINE
8
BLACK
6
CONTINUOUS
10
126.4496149999999943
20
-73.5741999999999905
11
140.2489149999999825
21
-73.5741999999999905
0
LINE
8
BLACK
6
CONTINUOUS
10
140.2489149999999825
20
-73.5741999999999905
11
140.2489149999999825
21
-59.7748999999999953
0
LINE
8
BLACK
6
CONTINUOUS
10
140.2489149999999825
20
-59.7748999999999953
11
126.4496149999999943
21
-59.7748999999999953
0
LINE
8
BLACK
6
CONTINUOUS
10
159.4184239999999875
20
-59.5768209999999954
11
159.4544719999999813
21
-59.5917529999999971
0
LINE
8
BLACK
6
CONTINUOUS
10
159.4544719999999813
20
-59.5917529999999971
11
159.4820619999999849
21
-59.6193430000000006
0
LINE
8
BLACK
6
CONTINUOUS
10
159.4820619999999849
20
-59.6193430000000006
11
159.4969940000000008
21
-59.6553909999999945
0
LINE
8
BLACK
6
CONTINUOUS
10
159.4969940000000008
20
-59.6553909999999945
11
159.4989149999999825
21
-59.6748999999999938
0
LINE
8
BLACK
6
CONTINUOUS
10
159.4989149999999825
20
-59.6748999999999938
11
159.4989149999999825
21
-73.674199999999999
0
LINE
8
BLACK
6
CONTINUOUS
10
159.4989149999999825
20
-73.674199999999999
11
159.4969940000000008
21
-73.6937089999999984
0
LINE
8
BLACK
6
CONTINUOUS
10
159.4969940000000008
20
-73.6937089999999984
11
159.4820619999999849
21
-73.7297569999999922
0
LINE
8
BLACK
6
CONTINUOUS
10
159.4820619999999849
20
-73.7297569999999922
11
159.4544719999999813
21
-73.7573469999999958
0
LINE
8
BLACK
6
CONTINUOUS
10
159.4544719999999813
20
-73.7573469999999958
11
159.4184239999999875
21
-73.7722789999999975
0
LINE
8
BLACK
6
CONTINUOUS
10
159.4184239999999875
20
-73.7722789999999975
11
159.3989149999999881
21
-73.7741999999999933
0
LINE
8
BLACK
6
CONTINUOUS
10
159.3989149999999881
20
-73.7741999999999933
11
145.399614999999983
21
-73.7741999999999933
0
LINE
8
BLACK
6
CONTINUOUS
10
145.399614999999983
20
-73.7741999999999933
11
145.3801059999999836
21
-73.7722789999999975
0
LINE
8
BLACK
6
CONTINUOUS
10
145.3801059999999836
20
-73.7722789999999975
11
145.3440579999999898
21
-73.7573469999999958
0
LINE
8
BLACK
6
CONTINUOUS
10
145.3440579999999898
20
-73.7573469999999958
11
145.3164679999999862
21
-73.7297569999999922
0
LINE
8
BLACK
6
CONTINUOUS
10
145.3164679999999862
20
-73.7297569999999922
11
145.3015359999999987
21
-73.6937089999999984
0
LINE
8
BLACK
6
CONTINUOUS
10
145.3015359999999987
20
-73.6937089999999984
11
145.2996149999999886
21
-73.674199999999999
0
LINE
8
BLACK
6
CONTINUOUS
10
145.2996149999999886
20
-73.674199999999999
11
145.2996149999999886
21
-59.6748999999999938
0
LINE
8
BLACK
6
CONTINUOUS
10
145.2996149999999886
20
-59.6748999999999938
11
145.3015359999999987
21
-59.6553909999999945
0
LINE
8
BLACK
6
CONTINUOUS
10
145.3015359999999987
20
-59.6553909999999945
11
145.3164679999999862
21
-59.6193430000000006
0
LINE
8
BLACK
6
CONTINUOUS
10
145.3164679999999862
20
-59.6193430000000006
11
145.3440579999999898
21
-59.5917529999999971
0
LINE
8
BLACK
6
CONTINUOUS
10
145.3440579999999898
20
-59.5917529999999971
11
145.3801059999999836
21
-59.5768209999999954
0
LINE
8
BLACK
6
CONTINUOUS
10
145.3801059999999836
20
-59.5768209999999954
11
145.399614999999983
21
-59.5748999999999995
0
LINE
8
BLACK
6
CONTINUOUS
10
145.399614999999983
20
-59.5748999999999995
11
159.3989149999999881
21
-59.5748999999999995
0
LINE
8
BLACK
6
CONTINUOUS
10
159.3989149999999881
20
-59.5748999999999995
11
159.4184239999999875
21
-59.5768209999999954
0
LINE
8
BLACK
6
CONTINUOUS
10
145.4996150000000057
20
-59.7748999999999953
11
145.4996150000000057
21
-73.5741999999999905
0
LINE
8
BLACK
6
CONTINUOUS
10
145.4996150000000057
20
-73.5741999999999905
11
159.2989149999999938
21
-73.5741999999999905
0
LINE
8
BLACK
6
CONTINUOUS
10
159.2989149999999938
20
-73.5741999999999905
11
159.2989149999999938
21
-59.7748999999999953
0
LINE
8
BLACK
6
CONTINUOUS
10
159.2989149999999938
20
-59.7748999999999953
11
145.4996150000000057
21
-59.7748999999999953
0
LINE
8
BLACK
6
CONTINUOUS
10
178.4684239999999988
20
-59.5768209999999954
11
178.5044719999999927
21
-59.5917529999999971
0
LINE
8
BLACK
6
CONTINUOUS
10
178.5044719999999927
20
-59.5917529999999971
11
178.5320619999999963
21
-59.6193430000000006
0
LINE
8
BLACK
6
CONTINUOUS
10
178.5320619999999963
20
-59.6193430000000006
11
178.5469939999999838
21
-59.6553909999999945
0
LINE
8
BLACK
6
CONTINUOUS
10
178.5469939999999838
20
-59.6553909999999945
11
178.5489149999999938
21
-59.6748999999999938
0
LINE
8
BLACK
6
CONTINUOUS
10
178.5489149999999938
20
-59.6748999999999938
11
178.5489149999999938
21
-73.674199999999999
0
LINE
8
BLACK
6
CONTINUOUS
10
178.5489149999999938
20
-73.674199999999999
11
178.5469939999999838
21
-73.6937089999999984
0
LINE
8
BLACK
6
CONTINUOUS
10
178.5469939999999838
20
-73.6937089999999984
11
178.5320619999999963
21
-73.7297569999999922
0
LINE
8
BLACK
6
CONTINUOUS
10
178.5320619999999963
20
-73.7297569999999922
11
178.5044719999999927
21
-73.7573469999999958
0
LINE
8
BLACK
6
CONTINUOUS
10
178.5044719999999927
20
-73.7573469999999958
11
178.4684239999999988
21
-73.7722789999999975
0
LINE
8
BLACK
6
CONTINUOUS
10
178.4684239999999988
20
-73.7722789999999975
11
178.4489149999999995
21
-73.7741999999999933
0
LINE
8
BLACK
6
CONTINUOUS
10
178.4489149999999995
20
-73.7741999999999933
11
164.4496149999999943
21
-73.7741999999999933
0
LINE
8
BLACK
6
CONTINUOUS
10
164.4496149999999943
20
-73.7741999999999933
11
164.430105999999995
21
-73.7722789999999975
0
LINE
8
BLACK
6
CONTINUOUS
10
164.430105999999995
20
-73.7722789999999975
11
164.3940580000000011
21
-73.7573469999999958
0
LINE
8
BLACK
6
CONTINUOUS
10
164.3940580000000011
20
-73.7573469999999958
11
164.3664679999999976
21
-73.7297569999999922
0
LINE
8
BLACK
6
CONTINUOUS
10
164.3664679999999976
20
-73.7297569999999922
11
164.3515359999999816
21
-73.6937089999999984
0
LINE
8
BLACK
6
CONTINUOUS
10
164.3515359999999816
20
-73.6937089999999984
11
164.349615
21
-73.674199999999999
0
LINE
8
BLACK
6
CONTINUOUS
10
164.349615
20
-73.674199999999999
11
164.349615
21
-59.6748999999999938
0
LINE
8
BLACK
6
CONTINUOUS
10
164.349615
20
-59.6748999999999938
11
164.3515359999999816
21
-59.6553909999999945
0
LINE
8
BLACK
6
CONTINUOUS
10
164.3515359999999816
20
-59.6553909999999945
11
164.3664679999999976
21
-59.6193430000000006
0
LINE
8
BLACK
6
CONTINUOUS
10
164.3664679999999976
20
-59.6193430000000006
11
164.3940580000000011
21
-59.5917529999999971
0
LINE
8
BLACK
6
CONTINUOUS
10
164.3940580000000011
20
-59.5917529999999971
11
164.430105999999995
21
-59.5768209999999954
0
LINE
8
BLACK
6
CONTINUOUS
10
164.430105999999995
20
-59.5768209999999954
11
164.4496149999999943
21
-59.5748999999999995
0
LINE
8
BLACK
6
CONTINUOUS
10
164.4496149999999943
20
-59.5748999999999995
11
178.4489149999999995
21
-59.5748999999999995
0
LINE
8
BLACK
6
CONTINUOUS
10
178.4489149999999995
20
-59.5748999999999995
11
178.4684239999999988
21
-59.5768209999999954
0
LINE
8
BLACK
6
CONTINUOUS
10
164.5496149999999886
20
-59.7748999999999953
11
164.5496149999999886
21
-73.5741999999999905
0
LINE
8
BLACK
6
CONTINUOUS
10
164.5496149999999886
20
-73.5741999999999905
11
178.3489150000000052
21
-73.5741999999999905
0
LINE
8
BLACK
6
CONTINUOUS
10
178.3489150000000052
20
-73.5741999999999905
11
178.3489150000000052
21
-59.7748999999999953
0
LINE
8
BLACK
6
CONTINUOUS
10
178.3489150000000052
20
-59.7748999999999953
11
164.5496149999999886
21
-59.7748999999999953
0
LINE
8
BLACK
6
CONTINUOUS
10
178.4684239999999988
20
-40.5269210000000015
11
178.5044719999999927
21
-40.5418529999999961
0
LINE
8
BLACK
6
CONTINUOUS
10
178.5044719999999927
20
-40.5418529999999961
11
178.5320619999999963
21
-40.5694429999999997
0
LINE
8
BLACK
6
CONTINUOUS
10
178.5320619999999963
20
-40.5694429999999997
11
178.5469939999999838
21
-40.6054910000000007
0
LINE
8
BLACK
6
CONTINUOUS
10
178.5469939999999838
20
-40.6054910000000007
11
178.5489149999999938
21
-40.625
0
LINE
8
BLACK
6
CONTINUOUS
10
178.5489149999999938
20
-40.625
11
178.5489149999999938
21
-54.6241999999999948
0
LINE
8
BLACK
6
CONTINUOUS
10
178.5489149999999938
20
-54.6241999999999948
11
178.5469939999999838
21
-54.6437089999999941
0
LINE
8
BLACK
6
CONTINUOUS
10
178.5469939999999838
20
-54.6437089999999941
11
178.5320619999999963
21
-54.6797569999999951
0
LINE
8
BLACK
6
CONTINUOUS
10
178.5320619999999963
20
-54.6797569999999951
11
178.5044719999999927
21
-54.7073469999999986
0
LINE
8
BLACK
6
CONTINUOUS
10
178.5044719999999927
20
-54.7073469999999986
11
178.4684239999999988
21
-54.7222790000000003
0
LINE
8
BLACK
6
CONTINUOUS
10
178.4684239999999988
20
-54.7222790000000003
11
178.4489149999999995
21
-54.7241999999999962
0
LINE
8
BLACK
6
CONTINUOUS
10
178.4489149999999995
20
-54.7241999999999962
11
164.4496149999999943
21
-54.7241999999999962
0
LINE
8
BLACK
6
CONTINUOUS
10
164.4496149999999943
20
-54.7241999999999962
11
164.430105999999995
21
-54.7222790000000003
0
LINE
8
BLACK
6
CONTINUOUS
10
164.430105999999995
20
-54.7222790000000003
11
164.3940580000000011
21
-54.7073469999999986
0
LINE
8
BLACK
6
CONTINUOUS
10
164.3940580000000011
20
-54.7073469999999986
11
164.3664679999999976
21
-54.6797569999999951
0
LINE
8
BLACK
6
CONTINUOUS
10
164.3664679999999976
20
-54.6797569999999951
11
164.3515359999999816
21
-54.6437089999999941
0
LINE
8
BLACK
6
CONTINUOUS
10
164.3515359999999816
20
-54.6437089999999941
11
164.349615
21
-54.6241999999999948
0
LINE
8
BLACK
6
CONTINUOUS
10
164.349615
20
-54.6241999999999948
11
164.349615
21
-40.625
0
LINE
8
BLACK
6
CONTINUOUS
10
164.349615
20
-40.625
11
164.3515359999999816
21
-40.6054910000000007
0
LINE
8
BLACK
6
CONTINUOUS
10
164.3515359999999816
20
-40.6054910000000007
11
164.3664679999999976
21
-40.5694429999999997
0
LINE
8
BLACK
6
CONTINUOUS
10
164.3664679999999976
20
-40.5694429999999997
11
164.3940580000000011
21
-40.5418529999999961
0
LINE
8
BLACK
6
CONTINUOUS
10
164.3940580000000011
20
-40.5418529999999961
11
164.430105999999995
21
-40.5269210000000015
0
LINE
8
BLACK
6
CONTINUOUS
10
164.430105999999995
20
-40.5269210000000015
11
164.4496149999999943
21
-40.5249999999999986
0
LINE
8
BLACK
6
CONTINUOUS
10
164.4496149999999943
20
-40.5249999999999986
11
178.4489149999999995
21
-40.5249999999999986
0
LINE
8
BLACK
6
CONTINUOUS
10
178.4489149999999995
20
-40.5249999999999986
11
178.4684239999999988
21
-40.5269210000000015
0
LINE
8
BLACK
6
CONTINUOUS
10
164.5496149999999886
20
-40.7250000000000014
11
164.5496149999999886
21
-54.5242000000000004
0
LINE
8
BLACK
6
CONTINUOUS
10
164.5496149999999886
20
-54.5242000000000004
11
178.3489150000000052
21
-54.5242000000000004
0
LINE
8
BLACK
6
CONTINUOUS
10
178.3489150000000052
20
-54.5242000000000004
11
178.3489150000000052
21
-40.7250000000000014
0
LINE
8
BLACK
6
CONTINUOUS
10
178.3489150000000052
20
-40.7250000000000014
11
164.5496149999999886
21
-40.7250000000000014
0
LINE
8
BLACK
6
CONTINUOUS
10
180.9947239999999908
20
-38.0019209999999958
11
181.0307719999999847
21
-38.0168529999999976
0
LINE
8
BLACK
6
CONTINUOUS
10
181.0307719999999847
20
-38.0168529999999976
11
181.0583619999999883
21
-38.0444430000000011
0
LINE
8
BLACK
6
CONTINUOUS
10
181.0583619999999883
20
-38.0444430000000011
11
181.0732940000000042
21
-38.080490999999995
0
LINE
8
BLACK
6
CONTINUOUS
10
181.0732940000000042
20
-38.080490999999995
11
181.0752149999999858
21
-38.1000000000000014
0
LINE
8
BLACK
6
CONTINUOUS
10
181.0752149999999858
20
-38.1000000000000014
11
181.0752149999999858
21
-152.400306999999998
0
LINE
8
BLACK
6
CONTINUOUS
10
181.0752149999999858
20
-152.400306999999998
11
181.0732940000000042
21
-152.4198159999999973
0
LINE
8
BLACK
6
CONTINUOUS
10
181.0732940000000042
20
-152.4198159999999973
11
181.0583619999999883
21
-152.4558639999999912
0
LINE
8
BLACK
6
CONTINUOUS
10
181.0583619999999883
20
-152.4558639999999912
11
181.0307719999999847
21
-152.4834539999999947
0
LINE
8
BLACK
6
CONTINUOUS
10
181.0307719999999847
20
-152.4834539999999947
11
180.9947239999999908
21
-152.4983859999999822
0
LINE
8
BLACK
6
CONTINUOUS
10
180.9947239999999908
20
-152.4983859999999822
11
180.9752149999999915
21
-152.5003069999999923
0
LINE
8
BLACK
6
CONTINUOUS
10
180.9752149999999915
20
-152.5003069999999923
11
104.7749999999999915
21
-152.5003069999999923
0
LINE
8
BLACK
6
CONTINUOUS
10
104.7749999999999915
20
-152.5003069999999923
11
104.7554909999999921
21
-152.4983859999999822
0
LINE
8
BLACK
6
CONTINUOUS
10
104.7554909999999921
20
-152.4983859999999822
11
104.7194429999999983
21
-152.4834539999999947
0
LINE
8
BLACK
6
CONTINUOUS
10
104.7194429999999983
20
-152.4834539999999947
11
104.6918529999999947
21
-152.4558639999999912
0
LINE
8
BLACK
6
CONTINUOUS
10
104.6918529999999947
20
-152.4558639999999912
11
104.676920999999993
21
-152.4198159999999973
0
LINE
8
BLACK
6
CONTINUOUS
10
104.676920999999993
20
-152.4198159999999973
11
104.6749999999999972
21
-152.400306999999998
0
LINE
8
BLACK
6
CONTINUOUS
10
104.6749999999999972
20
-152.400306999999998
11
104.6749999999999972
21
-38.1000000000000014
0
LINE
8
BLACK
6
CONTINUOUS
10
104.6749999999999972
20
-38.1000000000000014
11
104.676920999999993
21
-38.080490999999995
0
LINE
8
BLACK
6
CONTINUOUS
10
104.676920999999993
20
-38.080490999999995
11
104.6918529999999947
21
-38.0444430000000011
0
LINE
8
BLACK
6
CONTINUOUS
10
104.6918529999999947
20
-38.0444430000000011
11
104.7194429999999983
21
-38.0168529999999976
0
LINE
8
BLACK
6
CONTINUOUS
10
104.7194429999999983
20
-38.0168529999999976
11
104.7554909999999921
21
-38.0019209999999958
0
LINE
8
BLACK
6
CONTINUOUS
10
104.7554909999999921
20
-38.0019209999999958
11
104.7749999999999915
21
-38.
0
LINE
8
BLACK
6
CONTINUOUS
10
104.7749999999999915
20
-38.
11
180.9752149999999915
21
-38.
0
LINE
8
BLACK
6
CONTINUOUS
10
180.9752149999999915
20
-38.
11
180.9947239999999908
21
-38.0019209999999958
0
LINE
8
BLACK
6
CONTINUOUS
10
104.875
20
-38.1999999999999957
11
104.875
21
-152.3003070000000037
0
LINE
8
BLACK
6
CONTINUOUS
10
104.875
20
-152.3003070000000037
11
180.8752149999999972
21
-152.3003070000000037
0
LINE
8
BLACK
6
CONTINUOUS
10
180.8752149999999972
20
-152.3003070000000037
11
180.8752149999999972
21
-38.1999999999999957
0
LINE
8
BLACK
6
CONTINUOUS
10
180.8752149999999972
20
-38.1999999999999957
11
104.875
21
-38.1999999999999957
  0
ENDSEC
  0
EOF
