%TF.GenerationSoftware,KiCad,Pcbnew,9.0.3*%
%TF.CreationDate,2025-08-11T00:10:58+09:00*%
%TF.ProjectId,tenkey_v3,74656e6b-6579-45f7-9633-2e6b69636164,rev?*%
%TF.SameCoordinates,Original*%
%TF.FileFunction,Legend,Top*%
%TF.FilePolarity,Positive*%
%FSLAX46Y46*%
G04 Gerber Fmt 4.6, Leading zero omitted, Abs format (unit mm)*
G04 Created by KiCad (PCBNEW 9.0.3) date 2025-08-11 00:10:58*
%MOMM*%
%LPD*%
G01*
G04 APERTURE LIST*
%ADD10C,0.120000*%
G04 APERTURE END LIST*
D10*
%TO.C,D3*%
X115300000Y-114278750D02*
X115300000Y-110268750D01*
%TO.C,D5*%
X114321250Y-148000000D02*
X118331250Y-148000000D01*
%TO.C,D7*%
X134350000Y-95228750D02*
X134350000Y-91218750D01*
%TO.C,D10*%
X133371250Y-148000000D02*
X137381250Y-148000000D01*
%TO.C,D14*%
X153400000Y-133328750D02*
X153400000Y-129318750D01*
%TO.C,D20*%
X171471250Y-148000000D02*
X175481250Y-148000000D01*
%TO.C,D9*%
X134350000Y-133328750D02*
X134350000Y-129318750D01*
%TO.C,D6*%
X134350000Y-76178750D02*
X134350000Y-72168750D01*
%TO.C,D2*%
X115300000Y-95228750D02*
X115300000Y-91218750D01*
%TO.C,D15*%
X152421250Y-148000000D02*
X156431250Y-148000000D01*
%TO.C,D16*%
X172450000Y-76178750D02*
X172450000Y-72168750D01*
%TO.C,D12*%
X153400000Y-95228750D02*
X153400000Y-91218750D01*
%TO.C,D13*%
X153400000Y-114278750D02*
X153400000Y-110268750D01*
%TO.C,D8*%
X134350000Y-114278750D02*
X134350000Y-110268750D01*
%TO.C,D17*%
X172450000Y-95228750D02*
X172450000Y-91218750D01*
%TO.C,D11*%
X153400000Y-76178750D02*
X153400000Y-72168750D01*
%TO.C,D21*%
X177212500Y-76178750D02*
X177212500Y-72168750D01*
%TO.C,D18*%
X172450000Y-114278750D02*
X172450000Y-110268750D01*
%TO.C,D1*%
X115300000Y-76178750D02*
X115300000Y-72168750D01*
%TO.C,D4*%
X115300000Y-133328750D02*
X115300000Y-129318750D01*
%TO.C,D19*%
X172450000Y-133328750D02*
X172450000Y-129318750D01*
%TD*%
M02*
