M48
; DRILL file {KiCad 9.0.3} date 2025-08-11T00:06:38+0900
; FORMAT={-:-/ absolute / metric / decimal}
; #@! TF.CreationDate,2025-08-11T00:06:38+09:00
; #@! TF.GenerationSoftware,Kicad,Pcbnew,9.0.3
; #@! TF.FileFunction,Plated,1,2,PTH
FMAT,2
METRIC
; #@! TA.AperFunction,Plated,PTH,ViaDrill
T1C0.300
; #@! TA.AperFunction,Plated,PTH,ComponentDrill
T2C0.762
%
G90
G05
T1
X106.451Y-83.261
X106.451Y-102.311
X106.451Y-121.463
X106.451Y-140.462
X106.555Y-64.795
X107.527Y-55.676
X110.067Y-55.676
X114.3Y-94.519
X114.3Y-113.569
X126.206Y-83.344
X126.206Y-102.394
X126.206Y-121.444
X126.206Y-140.494
X126.265Y-64.135
X145.256Y-140.494
X145.315Y-64.135
X145.315Y-83.344
X145.315Y-102.394
X145.315Y-121.444
X164.306Y-140.494
X164.365Y-64.135
X164.365Y-83.344
X164.365Y-102.394
X164.365Y-121.444
T2
X183.413Y-63.732
X183.413Y-66.232
X183.413Y-68.732
M30
