M48
; DRILL file {KiCad 9.0.3} date 2025-08-11T00:06:38+0900
; FORMAT={-:-/ absolute / metric / decimal}
; #@! TF.CreationDate,2025-08-11T00:06:38+09:00
; #@! TF.GenerationSoftware,Kicad,Pcbnew,9.0.3
; #@! TF.FileFunction,NonPlated,1,2,NPTH
FMAT,2
METRIC
; #@! TA.AperFunction,NonPlated,NPTH,ComponentDrill
T1C1.900
; #@! TA.AperFunction,NonPlated,NPTH,ComponentDrill
T2C2.200
; #@! TA.AperFunction,NonPlated,NPTH,ComponentDrill
T3C3.000
; #@! TA.AperFunction,NonPlated,NPTH,ComponentDrill
T4C4.000
%
G90
G05
T1
X108.8Y-66.675
X108.8Y-85.725
X108.8Y-104.775
X108.8Y-123.825
X108.8Y-142.875
X119.8Y-66.675
X119.8Y-85.725
X119.8Y-104.775
X119.8Y-123.825
X119.8Y-142.875
X127.85Y-66.675
X127.85Y-85.725
X127.85Y-104.775
X127.85Y-123.825
X127.85Y-142.875
X138.85Y-66.675
X138.85Y-85.725
X138.85Y-104.775
X138.85Y-123.825
X138.85Y-142.875
X146.9Y-66.675
X146.9Y-85.725
X146.9Y-104.775
X146.9Y-123.825
X146.9Y-142.875
X157.9Y-66.675
X157.9Y-85.725
X157.9Y-104.775
X157.9Y-123.825
X157.9Y-142.875
X165.95Y-66.675
X165.95Y-85.725
X165.95Y-104.775
X165.95Y-123.825
X165.95Y-142.875
X176.95Y-66.675
X176.95Y-85.725
X176.95Y-104.775
X176.95Y-123.825
X176.95Y-142.875
T2
X102.394Y-69.056
X102.394Y-152.4
X130.969Y-38.1
X183.356Y-38.1
X183.356Y-152.4
T3
X110.49Y-64.135
X110.49Y-83.185
X110.49Y-102.235
X110.49Y-121.285
X110.49Y-140.335
X116.84Y-61.595
X116.84Y-80.645
X116.84Y-99.695
X116.84Y-118.745
X116.84Y-137.795
X129.54Y-64.135
X129.54Y-83.185
X129.54Y-102.235
X129.54Y-121.285
X129.54Y-140.335
X135.89Y-61.595
X135.89Y-80.645
X135.89Y-99.695
X135.89Y-118.745
X135.89Y-137.795
X148.59Y-64.135
X148.59Y-83.185
X148.59Y-102.235
X148.59Y-121.285
X148.59Y-140.335
X154.94Y-61.595
X154.94Y-80.645
X154.94Y-99.695
X154.94Y-118.745
X154.94Y-137.795
X167.64Y-64.135
X167.64Y-83.185
X167.64Y-102.235
X167.64Y-121.285
X167.64Y-140.335
X173.99Y-61.595
X173.99Y-80.645
X173.99Y-99.695
X173.99Y-118.745
X173.99Y-137.795
T4
X114.3Y-66.675
X114.3Y-85.725
X114.3Y-104.775
X114.3Y-123.825
X114.3Y-142.875
X133.35Y-66.675
X133.35Y-85.725
X133.35Y-104.775
X133.35Y-123.825
X133.35Y-142.875
X152.4Y-66.675
X152.4Y-85.725
X152.4Y-104.775
X152.4Y-123.825
X152.4Y-142.875
X171.45Y-66.675
X171.45Y-85.725
X171.45Y-104.775
X171.45Y-123.825
X171.45Y-142.875
M30
