M48
; DRILL file {KiCad 9.0.3} date 2025-08-25T21:29:53+0900
; FORMAT={-:-/ absolute / inch / decimal}
; #@! TF.CreationDate,2025-08-25T21:29:53+09:00
; #@! TF.GenerationSoftware,Kicad,Pcbnew,9.0.3
; #@! TF.FileFunction,Plated,1,2,PTH
FMAT,2
INCH
; #@! TA.AperFunction,Plated,PTH,ViaDrill
T1C0.0118
; #@! TA.AperFunction,Plated,PTH,ComponentDrill
T2C0.0236
%
G90
G05
T1
X1.4488Y-3.615
X1.5Y-1.5276
X1.5276Y-3.2677
X1.5276Y-4.0157
X1.671Y-1.4724
X1.8915Y-2.2776
X1.8915Y-3.7776
X1.9311Y-1.385
X2.0602Y-1.7875
X2.0602Y-2.5375
X2.0602Y-3.2875
X2.0602Y-4.0375
X2.2717Y-3.2677
X2.2776Y-1.7776
X2.2776Y-4.0157
X2.6415Y-2.2776
X2.6415Y-3.7776
X2.8102Y-1.7875
X2.8102Y-2.5375
X2.8102Y-3.2875
X2.8102Y-4.0375
X3.0197Y-4.0157
X3.3915Y-2.2776
X3.5602Y-1.7875
X3.5602Y-2.5375
X3.5602Y-3.2875
X3.5602Y-4.0375
X3.6374Y-1.4062
X3.6751Y-1.5938
X3.6835Y-1.5551
X3.7372Y-2.8671
X3.7402Y-3.0384
X3.7776Y-4.0157
X4.1415Y-2.2776
X4.3102Y-1.7875
X4.3102Y-2.5375
X4.3102Y-3.2875
X4.3102Y-4.0375
X4.3878Y-2.9295
X4.5276Y-3.2677
X4.5276Y-4.0157
X4.5281Y-2.5203
X4.6697Y-3.1791
X4.8915Y-3.7224
X4.8915Y-3.7776
X4.9181Y-3.8827
X4.9972Y-3.0965
X5.0602Y-1.7875
X5.0602Y-2.2895
X5.0602Y-2.5375
X5.0602Y-3.2875
X5.0602Y-4.0375
X5.0625Y-3.0
X5.0843Y-3.8425
X5.0862Y-3.8846
X5.0913Y-2.9201
X5.1256Y-3.7406
X5.1642Y-3.6508
X5.1932Y-4.0091
X5.1969Y-2.3902
X5.2091Y-3.5744
X5.2091Y-3.6122
X5.2469Y-4.0681
X5.2638Y-1.7717
X5.2776Y-2.5197
X5.2776Y-3.2677
X5.2953Y-4.0157
X5.3283Y-3.5764
X5.3438Y-3.0
X5.3438Y-3.8438
X5.3807Y-3.6083
X5.3874Y-4.1252
X5.4102Y-4.0571
X5.421Y-2.9724
X5.5343Y-1.3539
X5.5551Y-2.8543
X5.5614Y-3.7055
X5.5708Y-1.8663
X5.5787Y-3.8413
X5.5984Y-3.8843
X5.6126Y-3.928
X5.6291Y-1.9976
X5.6378Y-4.2705
X5.6415Y-1.4724
X5.6654Y-3.698
X5.7012Y-2.1134
X5.7047Y-3.0315
X5.7638Y-4.015
X5.7732Y-2.676
X5.7776Y-1.4567
X5.796Y-3.7224
X5.7976Y-2.0823
X5.8091Y-1.4585
X5.8102Y-3.2875
X5.8374Y-2.3437
X5.8465Y-1.6929
X5.8504Y-1.6264
X5.8543Y-1.8898
X5.8711Y-3.1719
X5.9058Y-2.2106
X5.9106Y-2.0984
X5.9539Y-2.4055
X5.9654Y-2.3437
X5.9764Y-1.6264
X6.002Y-1.4585
X6.0165Y-3.7776
X6.0252Y-3.9142
X6.0276Y-1.5201
X6.0276Y-1.7812
X6.0276Y-2.5197
X6.0276Y-2.5197
X6.0276Y-3.2677
X6.0335Y-1.4585
X6.0776Y-1.5161
X6.1614Y-2.1614
X6.171Y-1.4724
X6.171Y-1.5276
X6.1852Y-4.0375
X6.1875Y-3.75
X6.315Y-1.9173
X6.3293Y-4.0443
X6.3915Y-1.5276
X6.4055Y-3.8979
X6.5602Y-1.7875
X6.5602Y-2.5375
X6.5602Y-3.2875
X6.5625Y-3.0
X6.5945Y-2.3346
X6.5984Y-3.0787
X6.6122Y-3.9209
X6.6562Y-3.8438
X6.7311Y-2.3346
X6.7776Y-2.5197
X6.7776Y-3.2677
X6.7776Y-4.0157
X6.8438Y-3.0
X6.921Y-3.7205
X7.1415Y-2.2776
X7.1415Y-3.0276
X7.3102Y-1.7875
X7.3102Y-2.5375
X7.3102Y-3.2875
X7.3102Y-4.0375
X7.5276Y-4.0157
X7.8915Y-2.2776
X8.0602Y-1.7875
X8.0602Y-2.5375
X8.0602Y-3.2875
X8.0602Y-4.0375
X8.2776Y-4.0157
X8.3494Y-2.8671
X8.3494Y-3.0384
X8.6415Y-2.2776
X8.8102Y-1.7875
X8.8102Y-2.5375
X8.8102Y-3.2875
X8.8102Y-4.0375
X9.0276Y-4.0157
X9.3915Y-2.2776
X9.5602Y-1.7875
X9.5602Y-2.5375
X9.5602Y-3.2875
X9.5602Y-4.0375
X9.7913Y-4.0157
X10.3102Y-1.7875
X10.3102Y-2.5375
X10.3102Y-3.2875
X10.3102Y-4.0375
T2
G00X5.7354Y-1.2461
M15
G01X5.7354Y-1.2697
M16
G05
G00X5.7354Y-1.4008
M15
G01X5.7354Y-1.4441
M16
G05
G00X6.0756Y-1.2461
M15
G01X6.0756Y-1.2697
M16
G05
G00X6.0756Y-1.4008
M15
G01X6.0756Y-1.4441
M16
G05
M30
