M48
; DRILL file {KiCad 9.0.3} date 2025-08-25T21:29:53+0900
; FORMAT={-:-/ absolute / inch / decimal}
; #@! TF.CreationDate,2025-08-25T21:29:53+09:00
; #@! TF.GenerationSoftware,Kicad,Pcbnew,9.0.3
; #@! TF.FileFunction,NonPlated,1,2,NPTH
FMAT,2
INCH
; #@! TA.AperFunction,NonPlated,NPTH,ComponentDrill
T1C0.0256
; #@! TA.AperFunction,NonPlated,NPTH,ComponentDrill
T2C0.0748
; #@! TA.AperFunction,NonPlated,NPTH,ComponentDrill
T3C0.1181
; #@! TA.AperFunction,NonPlated,NPTH,ComponentDrill
T4C0.1260
; #@! TA.AperFunction,NonPlated,NPTH,ComponentDrill
T5C0.1575
; #@! TA.AperFunction,NonPlated,NPTH,ComponentDrill
T6C0.2520
%
G90
G05
T1
X5.7917Y-1.4016
X6.0193Y-1.4016
T2
X1.5647Y-1.6875
X1.5647Y-2.4375
X1.5647Y-3.1875
X1.5647Y-3.9375
X1.9978Y-1.6875
X1.9978Y-2.4375
X1.9978Y-3.1875
X1.9978Y-3.9375
X2.3147Y-1.6875
X2.3147Y-2.4375
X2.3147Y-3.1875
X2.3147Y-3.9375
X2.7478Y-1.6875
X2.7478Y-2.4375
X2.7478Y-3.1875
X2.7478Y-3.9375
X3.0647Y-1.6875
X3.0647Y-2.4375
X3.0647Y-3.1875
X3.0647Y-3.9375
X3.4978Y-1.6875
X3.4978Y-2.4375
X3.4978Y-3.1875
X3.4978Y-3.9375
X3.8147Y-1.6875
X3.8147Y-2.4375
X3.8147Y-3.1875
X3.8147Y-3.9375
X4.2478Y-1.6875
X4.2478Y-2.4375
X4.2478Y-3.1875
X4.2478Y-3.9375
X4.5647Y-1.6875
X4.5647Y-2.4375
X4.5647Y-3.1875
X4.5647Y-3.9375
X4.9978Y-1.6875
X4.9978Y-2.4375
X4.9978Y-3.1875
X4.9978Y-3.9375
X5.3147Y-1.6875
X5.3147Y-2.4375
X5.3147Y-3.1875
X5.6897Y-3.9375
X5.7478Y-1.6875
X5.7478Y-2.4375
X5.7478Y-3.1875
X6.0647Y-1.6875
X6.0647Y-2.4375
X6.0647Y-3.1875
X6.1228Y-3.9375
X6.4978Y-1.6875
X6.4978Y-2.4375
X6.4978Y-3.1875
X6.8147Y-1.6875
X6.8147Y-2.4375
X6.8147Y-3.1875
X6.8147Y-3.9375
X7.2478Y-1.6875
X7.2478Y-2.4375
X7.2478Y-3.1875
X7.2478Y-3.9375
X7.5647Y-1.6875
X7.5647Y-2.4375
X7.5647Y-3.1875
X7.5647Y-3.9375
X7.9978Y-1.6875
X7.9978Y-2.4375
X7.9978Y-3.1875
X7.9978Y-3.9375
X8.3147Y-1.6875
X8.3147Y-2.4375
X8.3147Y-3.1875
X8.3147Y-3.9375
X8.7478Y-1.6875
X8.7478Y-2.4375
X8.7478Y-3.1875
X8.7478Y-3.9375
X9.0647Y-1.6875
X9.0647Y-2.4375
X9.0647Y-3.1875
X9.0647Y-3.9375
X9.4978Y-1.6875
X9.4978Y-2.4375
X9.4978Y-3.1875
X9.4978Y-3.9375
X9.8147Y-1.6875
X9.8147Y-2.4375
X9.8147Y-3.1875
X9.8147Y-3.9375
X10.2478Y-1.6875
X10.2478Y-2.4375
X10.2478Y-3.1875
X10.2478Y-3.9375
T3
X1.6812Y-1.8875
X1.6812Y-2.6375
X1.6812Y-3.3875
X1.6812Y-4.1375
X1.9312Y-1.7875
X1.9312Y-2.5375
X1.9312Y-3.2875
X1.9312Y-4.0375
X2.4312Y-1.8875
X2.4312Y-2.6375
X2.4312Y-3.3875
X2.4312Y-4.1375
X2.6812Y-1.7875
X2.6812Y-2.5375
X2.6812Y-3.2875
X2.6812Y-4.0375
X3.1812Y-1.8875
X3.1812Y-2.6375
X3.1812Y-3.3875
X3.1812Y-4.1375
X3.4312Y-1.7875
X3.4312Y-2.5375
X3.4312Y-3.2875
X3.4312Y-4.0375
X3.9312Y-1.8875
X3.9312Y-2.6375
X3.9312Y-3.3875
X3.9312Y-4.1375
X4.1812Y-1.7875
X4.1812Y-2.5375
X4.1812Y-3.2875
X4.1812Y-4.0375
X4.6812Y-1.8875
X4.6812Y-2.6375
X4.6812Y-3.3875
X4.6812Y-4.1375
X4.9312Y-1.7875
X4.9312Y-2.5375
X4.9312Y-3.2875
X4.9312Y-4.0375
X5.4312Y-1.8875
X5.4312Y-2.6375
X5.4312Y-3.3875
X5.6812Y-1.7875
X5.6812Y-2.5375
X5.6812Y-3.2875
X5.8062Y-4.1375
X6.0562Y-4.0375
X6.1812Y-1.8875
X6.1812Y-2.6375
X6.1812Y-3.3875
X6.4312Y-1.7875
X6.4312Y-2.5375
X6.4312Y-3.2875
X6.9312Y-1.8875
X6.9312Y-2.6375
X6.9312Y-3.3875
X6.9312Y-4.1375
X7.1812Y-1.7875
X7.1812Y-2.5375
X7.1812Y-3.2875
X7.1812Y-4.0375
X7.6812Y-1.8875
X7.6812Y-2.6375
X7.6812Y-3.3875
X7.6812Y-4.1375
X7.9312Y-1.7875
X7.9312Y-2.5375
X7.9312Y-3.2875
X7.9312Y-4.0375
X8.4313Y-1.8875
X8.4313Y-2.6375
X8.4313Y-3.3875
X8.4313Y-4.1375
X8.6813Y-1.7875
X8.6813Y-2.5375
X8.6813Y-3.2875
X8.6813Y-4.0375
X9.1813Y-1.8875
X9.1813Y-2.6375
X9.1813Y-3.3875
X9.1813Y-4.1375
X9.4313Y-1.7875
X9.4313Y-2.5375
X9.4313Y-3.2875
X9.4313Y-4.0375
X9.9313Y-1.8875
X9.9313Y-2.6375
X9.9313Y-3.3875
X9.9313Y-4.1375
X10.1813Y-1.7875
X10.1813Y-2.5375
X10.1813Y-3.2875
X10.1813Y-4.0375
T4
X2.1562Y-2.0625
X2.1562Y-3.5625
X9.6562Y-2.0625
X9.6562Y-3.5625
T5
X1.7812Y-1.6875
X1.7812Y-2.4375
X1.7812Y-3.1875
X1.7812Y-3.9375
X2.5312Y-1.6875
X2.5312Y-2.4375
X2.5312Y-3.1875
X2.5312Y-3.9375
X3.2812Y-1.6875
X3.2812Y-2.4375
X3.2812Y-3.1875
X3.2812Y-3.9375
X4.0312Y-1.6875
X4.0312Y-2.4375
X4.0312Y-3.1875
X4.0312Y-3.9375
X4.7812Y-1.6875
X4.7812Y-2.4375
X4.7812Y-3.1875
X4.7812Y-3.9375
X5.5312Y-1.6875
X5.5312Y-2.4375
X5.5312Y-3.1875
X5.9062Y-3.9375
X6.2812Y-1.6875
X6.2812Y-2.4375
X6.2812Y-3.1875
X7.0312Y-1.6875
X7.0312Y-2.4375
X7.0312Y-3.1875
X7.0312Y-3.9375
X7.7812Y-1.6875
X7.7812Y-2.4375
X7.7812Y-3.1875
X7.7812Y-3.9375
X8.5312Y-1.6875
X8.5312Y-2.4375
X8.5312Y-3.1875
X8.5312Y-3.9375
X9.2812Y-1.6875
X9.2812Y-2.4375
X9.2812Y-3.1875
X9.2812Y-3.9375
X10.0312Y-1.6875
X10.0312Y-2.4375
X10.0312Y-3.1875
X10.0312Y-3.9375
T6
X1.7812Y-2.0625
X10.0312Y-2.0625
M30
