%TF.GenerationSoftware,KiCad,Pcbnew,9.0.3*%
%TF.CreationDate,2025-08-11T00:10:58+09:00*%
%TF.ProjectId,tenkey_v3,74656e6b-6579-45f7-9633-2e6b69636164,rev?*%
%TF.SameCoordinates,Original*%
%TF.FileFunction,Soldermask,Bot*%
%TF.FilePolarity,Negative*%
%FSLAX46Y46*%
G04 Gerber Fmt 4.6, Leading zero omitted, Abs format (unit mm)*
G04 Created by KiCad (PCBNEW 9.0.3) date 2025-08-11 00:10:58*
%MOMM*%
%LPD*%
G01*
G04 APERTURE LIST*
G04 Aperture macros list*
%AMRoundRect*
0 Rectangle with rounded corners*
0 $1 Rounding radius*
0 $2 $3 $4 $5 $6 $7 $8 $9 X,Y pos of 4 corners*
0 Add a 4 corners polygon primitive as box body*
4,1,4,$2,$3,$4,$5,$6,$7,$8,$9,$2,$3,0*
0 Add four circle primitives for the rounded corners*
1,1,$1+$1,$2,$3*
1,1,$1+$1,$4,$5*
1,1,$1+$1,$6,$7*
1,1,$1+$1,$8,$9*
0 Add four rect primitives between the rounded corners*
20,1,$1+$1,$2,$3,$4,$5,0*
20,1,$1+$1,$4,$5,$6,$7,0*
20,1,$1+$1,$6,$7,$8,$9,0*
20,1,$1+$1,$8,$9,$2,$3,0*%
%AMOutline5P*
0 Free polygon, 5 corners , with rotation*
0 The origin of the aperture is its center*
0 number of corners: always 5*
0 $1 to $10 corner X, Y*
0 $11 Rotation angle, in degrees counterclockwise*
0 create outline with 5 corners*
4,1,5,$1,$2,$3,$4,$5,$6,$7,$8,$9,$10,$1,$2,$11*%
%AMOutline6P*
0 Free polygon, 6 corners , with rotation*
0 The origin of the aperture is its center*
0 number of corners: always 6*
0 $1 to $12 corner X, Y*
0 $13 Rotation angle, in degrees counterclockwise*
0 create outline with 6 corners*
4,1,6,$1,$2,$3,$4,$5,$6,$7,$8,$9,$10,$11,$12,$1,$2,$13*%
%AMOutline7P*
0 Free polygon, 7 corners , with rotation*
0 The origin of the aperture is its center*
0 number of corners: always 7*
0 $1 to $14 corner X, Y*
0 $15 Rotation angle, in degrees counterclockwise*
0 create outline with 7 corners*
4,1,7,$1,$2,$3,$4,$5,$6,$7,$8,$9,$10,$11,$12,$13,$14,$1,$2,$15*%
%AMOutline8P*
0 Free polygon, 8 corners , with rotation*
0 The origin of the aperture is its center*
0 number of corners: always 8*
0 $1 to $16 corner X, Y*
0 $17 Rotation angle, in degrees counterclockwise*
0 create outline with 8 corners*
4,1,8,$1,$2,$3,$4,$5,$6,$7,$8,$9,$10,$11,$12,$13,$14,$15,$16,$1,$2,$17*%
G04 Aperture macros list end*
%ADD10C,0.300000*%
%ADD11C,1.900000*%
%ADD12C,3.000000*%
%ADD13R,3.200000X2.780000*%
%ADD14C,2.200000*%
%ADD15RoundRect,0.225000X0.375000X-0.225000X0.375000X0.225000X-0.375000X0.225000X-0.375000X-0.225000X0*%
%ADD16RoundRect,0.225000X-0.225000X-0.375000X0.225000X-0.375000X0.225000X0.375000X-0.225000X0.375000X0*%
%ADD17R,1.270000X1.270000*%
%ADD18C,1.270000*%
%ADD19O,1.500000X3.600000*%
%ADD20O,3.600000X1.500000*%
%ADD21Outline8P,-1.800000X0.450000X-1.500000X0.750000X1.500000X0.750000X1.800000X0.450000X1.800000X-0.450000X1.500000X-0.750000X-1.500000X-0.750000X-1.800000X-0.450000X270.000000*%
%ADD22R,1.500000X3.600000*%
G04 APERTURE END LIST*
D10*
X153588346Y-46425828D02*
X153302632Y-47425828D01*
X153302632Y-47425828D02*
X153016917Y-46711542D01*
X153016917Y-46711542D02*
X152731203Y-47425828D01*
X152731203Y-47425828D02*
X152445489Y-46425828D01*
X151231203Y-47425828D02*
X151231203Y-46640114D01*
X151231203Y-46640114D02*
X151302631Y-46497257D01*
X151302631Y-46497257D02*
X151445488Y-46425828D01*
X151445488Y-46425828D02*
X151731203Y-46425828D01*
X151731203Y-46425828D02*
X151874060Y-46497257D01*
X151231203Y-47354400D02*
X151374060Y-47425828D01*
X151374060Y-47425828D02*
X151731203Y-47425828D01*
X151731203Y-47425828D02*
X151874060Y-47354400D01*
X151874060Y-47354400D02*
X151945488Y-47211542D01*
X151945488Y-47211542D02*
X151945488Y-47068685D01*
X151945488Y-47068685D02*
X151874060Y-46925828D01*
X151874060Y-46925828D02*
X151731203Y-46854400D01*
X151731203Y-46854400D02*
X151374060Y-46854400D01*
X151374060Y-46854400D02*
X151231203Y-46782971D01*
X150516917Y-46425828D02*
X150516917Y-47925828D01*
X150516917Y-46497257D02*
X150374060Y-46425828D01*
X150374060Y-46425828D02*
X150088345Y-46425828D01*
X150088345Y-46425828D02*
X149945488Y-46497257D01*
X149945488Y-46497257D02*
X149874060Y-46568685D01*
X149874060Y-46568685D02*
X149802631Y-46711542D01*
X149802631Y-46711542D02*
X149802631Y-47140114D01*
X149802631Y-47140114D02*
X149874060Y-47282971D01*
X149874060Y-47282971D02*
X149945488Y-47354400D01*
X149945488Y-47354400D02*
X150088345Y-47425828D01*
X150088345Y-47425828D02*
X150374060Y-47425828D01*
X150374060Y-47425828D02*
X150516917Y-47354400D01*
X149159774Y-46425828D02*
X149159774Y-47925828D01*
X149159774Y-46497257D02*
X149016917Y-46425828D01*
X149016917Y-46425828D02*
X148731202Y-46425828D01*
X148731202Y-46425828D02*
X148588345Y-46497257D01*
X148588345Y-46497257D02*
X148516917Y-46568685D01*
X148516917Y-46568685D02*
X148445488Y-46711542D01*
X148445488Y-46711542D02*
X148445488Y-47140114D01*
X148445488Y-47140114D02*
X148516917Y-47282971D01*
X148516917Y-47282971D02*
X148588345Y-47354400D01*
X148588345Y-47354400D02*
X148731202Y-47425828D01*
X148731202Y-47425828D02*
X149016917Y-47425828D01*
X149016917Y-47425828D02*
X149159774Y-47354400D01*
X147588345Y-47425828D02*
X147731202Y-47354400D01*
X147731202Y-47354400D02*
X147802631Y-47282971D01*
X147802631Y-47282971D02*
X147874059Y-47140114D01*
X147874059Y-47140114D02*
X147874059Y-46711542D01*
X147874059Y-46711542D02*
X147802631Y-46568685D01*
X147802631Y-46568685D02*
X147731202Y-46497257D01*
X147731202Y-46497257D02*
X147588345Y-46425828D01*
X147588345Y-46425828D02*
X147374059Y-46425828D01*
X147374059Y-46425828D02*
X147231202Y-46497257D01*
X147231202Y-46497257D02*
X147159774Y-46568685D01*
X147159774Y-46568685D02*
X147088345Y-46711542D01*
X147088345Y-46711542D02*
X147088345Y-47140114D01*
X147088345Y-47140114D02*
X147159774Y-47282971D01*
X147159774Y-47282971D02*
X147231202Y-47354400D01*
X147231202Y-47354400D02*
X147374059Y-47425828D01*
X147374059Y-47425828D02*
X147588345Y-47425828D01*
X146445488Y-46425828D02*
X146445488Y-47425828D01*
X146445488Y-46568685D02*
X146374059Y-46497257D01*
X146374059Y-46497257D02*
X146231202Y-46425828D01*
X146231202Y-46425828D02*
X146016916Y-46425828D01*
X146016916Y-46425828D02*
X145874059Y-46497257D01*
X145874059Y-46497257D02*
X145802631Y-46640114D01*
X145802631Y-46640114D02*
X145802631Y-47425828D01*
X160516917Y-41617257D02*
X159374060Y-41617257D01*
X160088346Y-40617257D02*
X160088346Y-43188685D01*
X160088346Y-43188685D02*
X159945489Y-43474400D01*
X159945489Y-43474400D02*
X159659774Y-43617257D01*
X159659774Y-43617257D02*
X159374060Y-43617257D01*
X157231203Y-43474400D02*
X157516917Y-43617257D01*
X157516917Y-43617257D02*
X158088346Y-43617257D01*
X158088346Y-43617257D02*
X158374060Y-43474400D01*
X158374060Y-43474400D02*
X158516917Y-43188685D01*
X158516917Y-43188685D02*
X158516917Y-42045828D01*
X158516917Y-42045828D02*
X158374060Y-41760114D01*
X158374060Y-41760114D02*
X158088346Y-41617257D01*
X158088346Y-41617257D02*
X157516917Y-41617257D01*
X157516917Y-41617257D02*
X157231203Y-41760114D01*
X157231203Y-41760114D02*
X157088346Y-42045828D01*
X157088346Y-42045828D02*
X157088346Y-42331542D01*
X157088346Y-42331542D02*
X158516917Y-42617257D01*
X155802631Y-41617257D02*
X155802631Y-43617257D01*
X155802631Y-41902971D02*
X155659774Y-41760114D01*
X155659774Y-41760114D02*
X155374059Y-41617257D01*
X155374059Y-41617257D02*
X154945488Y-41617257D01*
X154945488Y-41617257D02*
X154659774Y-41760114D01*
X154659774Y-41760114D02*
X154516917Y-42045828D01*
X154516917Y-42045828D02*
X154516917Y-43617257D01*
X153088345Y-43617257D02*
X153088345Y-40617257D01*
X152802631Y-42474400D02*
X151945488Y-43617257D01*
X151945488Y-41617257D02*
X153088345Y-42760114D01*
X149516917Y-43474400D02*
X149802631Y-43617257D01*
X149802631Y-43617257D02*
X150374060Y-43617257D01*
X150374060Y-43617257D02*
X150659774Y-43474400D01*
X150659774Y-43474400D02*
X150802631Y-43188685D01*
X150802631Y-43188685D02*
X150802631Y-42045828D01*
X150802631Y-42045828D02*
X150659774Y-41760114D01*
X150659774Y-41760114D02*
X150374060Y-41617257D01*
X150374060Y-41617257D02*
X149802631Y-41617257D01*
X149802631Y-41617257D02*
X149516917Y-41760114D01*
X149516917Y-41760114D02*
X149374060Y-42045828D01*
X149374060Y-42045828D02*
X149374060Y-42331542D01*
X149374060Y-42331542D02*
X150802631Y-42617257D01*
X148374059Y-41617257D02*
X147659773Y-43617257D01*
X146945488Y-41617257D02*
X147659773Y-43617257D01*
X147659773Y-43617257D02*
X147945488Y-44331542D01*
X147945488Y-44331542D02*
X148088345Y-44474400D01*
X148088345Y-44474400D02*
X148374059Y-44617257D01*
X146516917Y-43902971D02*
X144231202Y-43902971D01*
X143802631Y-41617257D02*
X143088345Y-43617257D01*
X143088345Y-43617257D02*
X142374060Y-41617257D01*
X141516917Y-40617257D02*
X139659774Y-40617257D01*
X139659774Y-40617257D02*
X140659774Y-41760114D01*
X140659774Y-41760114D02*
X140231203Y-41760114D01*
X140231203Y-41760114D02*
X139945489Y-41902971D01*
X139945489Y-41902971D02*
X139802631Y-42045828D01*
X139802631Y-42045828D02*
X139659774Y-42331542D01*
X139659774Y-42331542D02*
X139659774Y-43045828D01*
X139659774Y-43045828D02*
X139802631Y-43331542D01*
X139802631Y-43331542D02*
X139945489Y-43474400D01*
X139945489Y-43474400D02*
X140231203Y-43617257D01*
X140231203Y-43617257D02*
X141088346Y-43617257D01*
X141088346Y-43617257D02*
X141374060Y-43474400D01*
X141374060Y-43474400D02*
X141516917Y-43331542D01*
D11*
%TO.C,SW19*%
X165950000Y-123825000D03*
D12*
X167640000Y-121285000D03*
X173990000Y-118745000D03*
D11*
X176950000Y-123825000D03*
D13*
X163987000Y-121285000D03*
X177670000Y-118745000D03*
%TD*%
D14*
%TO.C,Ref\u002A\u002A*%
X102393750Y-152400000D03*
%TD*%
D11*
%TO.C,SW13*%
X146900000Y-104775000D03*
D12*
X148590000Y-102235000D03*
X154940000Y-99695000D03*
D11*
X157900000Y-104775000D03*
D13*
X144937000Y-102235000D03*
X158620000Y-99695000D03*
%TD*%
D14*
%TO.C,Ref\u002A\u002A*%
X102393750Y-69056250D03*
%TD*%
D11*
%TO.C,SW15*%
X146900000Y-142875000D03*
D12*
X148590000Y-140335000D03*
X154940000Y-137795000D03*
D11*
X157900000Y-142875000D03*
D13*
X144937000Y-140335000D03*
X158620000Y-137795000D03*
%TD*%
D11*
%TO.C,SW18*%
X165950000Y-104775000D03*
D12*
X167640000Y-102235000D03*
X173990000Y-99695000D03*
D11*
X176950000Y-104775000D03*
D13*
X163987000Y-102235000D03*
X177670000Y-99695000D03*
%TD*%
D11*
%TO.C,SW16*%
X165950000Y-66675000D03*
D12*
X167640000Y-64135000D03*
X173990000Y-61595000D03*
D11*
X176950000Y-66675000D03*
D13*
X163987000Y-64135000D03*
X177670000Y-61595000D03*
%TD*%
D14*
%TO.C,Ref\u002A\u002A*%
X183356250Y-152400000D03*
%TD*%
D11*
%TO.C,SW3*%
X108800000Y-104775000D03*
D12*
X110490000Y-102235000D03*
X116840000Y-99695000D03*
D11*
X119800000Y-104775000D03*
D13*
X106837000Y-102235000D03*
X120520000Y-99695000D03*
%TD*%
D14*
%TO.C,Ref\u002A\u002A*%
X183356250Y-38100000D03*
%TD*%
D11*
%TO.C,SW7*%
X127850000Y-85725000D03*
D12*
X129540000Y-83185000D03*
X135890000Y-80645000D03*
D11*
X138850000Y-85725000D03*
D13*
X125887000Y-83185000D03*
X139570000Y-80645000D03*
%TD*%
D11*
%TO.C,SW11*%
X146900000Y-66675000D03*
D12*
X148590000Y-64135000D03*
X154940000Y-61595000D03*
D11*
X157900000Y-66675000D03*
D13*
X144937000Y-64135000D03*
X158620000Y-61595000D03*
%TD*%
D11*
%TO.C,SW2*%
X108800000Y-85725000D03*
D12*
X110490000Y-83185000D03*
X116840000Y-80645000D03*
D11*
X119800000Y-85725000D03*
D13*
X106837000Y-83185000D03*
X120520000Y-80645000D03*
%TD*%
D11*
%TO.C,SW12*%
X146900000Y-85725000D03*
D12*
X148590000Y-83185000D03*
X154940000Y-80645000D03*
D11*
X157900000Y-85725000D03*
D13*
X144937000Y-83185000D03*
X158620000Y-80645000D03*
%TD*%
D11*
%TO.C,SW4*%
X108800000Y-123825000D03*
D12*
X110490000Y-121285000D03*
X116840000Y-118745000D03*
D11*
X119800000Y-123825000D03*
D13*
X106837000Y-121285000D03*
X120520000Y-118745000D03*
%TD*%
D11*
%TO.C,SW17*%
X165950000Y-85725000D03*
D12*
X167640000Y-83185000D03*
X173990000Y-80645000D03*
D11*
X176950000Y-85725000D03*
D13*
X163987000Y-83185000D03*
X177670000Y-80645000D03*
%TD*%
D11*
%TO.C,SW5*%
X108800000Y-142875000D03*
D12*
X110490000Y-140335000D03*
X116840000Y-137795000D03*
D11*
X119800000Y-142875000D03*
D13*
X106837000Y-140335000D03*
X120520000Y-137795000D03*
%TD*%
D11*
%TO.C,SW6*%
X127850000Y-66675000D03*
D12*
X129540000Y-64135000D03*
X135890000Y-61595000D03*
D11*
X138850000Y-66675000D03*
D13*
X125887000Y-64135000D03*
X139570000Y-61595000D03*
%TD*%
D11*
%TO.C,SW1*%
X108800000Y-66675000D03*
D12*
X110490000Y-64135000D03*
X116840000Y-61595000D03*
D11*
X119800000Y-66675000D03*
D13*
X106837000Y-64135000D03*
X120520000Y-61595000D03*
%TD*%
D11*
%TO.C,SW20*%
X165950000Y-142875000D03*
D12*
X167640000Y-140335000D03*
X173990000Y-137795000D03*
D11*
X176950000Y-142875000D03*
D13*
X163987000Y-140335000D03*
X177670000Y-137795000D03*
%TD*%
D11*
%TO.C,SW9*%
X127850000Y-123825000D03*
D12*
X129540000Y-121285000D03*
X135890000Y-118745000D03*
D11*
X138850000Y-123825000D03*
D13*
X125887000Y-121285000D03*
X139570000Y-118745000D03*
%TD*%
D11*
%TO.C,SW10*%
X127850000Y-142875000D03*
D12*
X129540000Y-140335000D03*
X135890000Y-137795000D03*
D11*
X138850000Y-142875000D03*
D13*
X125887000Y-140335000D03*
X139570000Y-137795000D03*
%TD*%
D14*
%TO.C,Ref\u002A\u002A*%
X130968750Y-38100000D03*
%TD*%
D11*
%TO.C,SW14*%
X146900000Y-123825000D03*
D12*
X148590000Y-121285000D03*
X154940000Y-118745000D03*
D11*
X157900000Y-123825000D03*
D13*
X144937000Y-121285000D03*
X158620000Y-118745000D03*
%TD*%
D11*
%TO.C,SW8*%
X127850000Y-104775000D03*
D12*
X129540000Y-102235000D03*
X135890000Y-99695000D03*
D11*
X138850000Y-104775000D03*
D13*
X125887000Y-102235000D03*
X139570000Y-99695000D03*
%TD*%
D15*
%TO.C,D3*%
X114300000Y-113568750D03*
X114300000Y-110268750D03*
%TD*%
D16*
%TO.C,D5*%
X115031250Y-147000000D03*
X118331250Y-147000000D03*
%TD*%
D15*
%TO.C,D7*%
X133350000Y-94518750D03*
X133350000Y-91218750D03*
%TD*%
D16*
%TO.C,D10*%
X134081250Y-147000000D03*
X137381250Y-147000000D03*
%TD*%
D15*
%TO.C,D14*%
X152400000Y-132618750D03*
X152400000Y-129318750D03*
%TD*%
D17*
%TO.C,SW21*%
X183413400Y-63732400D03*
D18*
X183413400Y-66232400D03*
X183413400Y-68732400D03*
%TD*%
D16*
%TO.C,D20*%
X172181250Y-147000000D03*
X175481250Y-147000000D03*
%TD*%
D15*
%TO.C,D9*%
X133350000Y-132618750D03*
X133350000Y-129318750D03*
%TD*%
D19*
%TO.C,U1*%
X102447300Y-56176000D03*
X104987300Y-56176000D03*
X107527300Y-56176000D03*
X110067300Y-56176000D03*
X112607300Y-56176000D03*
X115147300Y-56176000D03*
X117687300Y-56176000D03*
X120227300Y-56176000D03*
X122767300Y-56176000D03*
D20*
X123317300Y-53086000D03*
X123317300Y-50546000D03*
X123317300Y-48006000D03*
X123317300Y-45466000D03*
X123317300Y-42926000D03*
D19*
X122767300Y-39836000D03*
X120227300Y-39836000D03*
X117687300Y-39836000D03*
X115147300Y-39836000D03*
X112607300Y-39836000D03*
X110067300Y-39836000D03*
D21*
X107527300Y-39836000D03*
D22*
X104987300Y-39836000D03*
D21*
X102447300Y-39836000D03*
%TD*%
D15*
%TO.C,D6*%
X133350000Y-75468750D03*
X133350000Y-72168750D03*
%TD*%
%TO.C,D2*%
X114300000Y-94518750D03*
X114300000Y-91218750D03*
%TD*%
D16*
%TO.C,D15*%
X153131250Y-147000000D03*
X156431250Y-147000000D03*
%TD*%
D15*
%TO.C,D16*%
X171450000Y-75468750D03*
X171450000Y-72168750D03*
%TD*%
%TO.C,D12*%
X152400000Y-94518750D03*
X152400000Y-91218750D03*
%TD*%
%TO.C,D13*%
X152400000Y-113568750D03*
X152400000Y-110268750D03*
%TD*%
%TO.C,D8*%
X133350000Y-113568750D03*
X133350000Y-110268750D03*
%TD*%
%TO.C,D17*%
X171450000Y-94518750D03*
X171450000Y-91218750D03*
%TD*%
%TO.C,D11*%
X152400000Y-75468750D03*
X152400000Y-72168750D03*
%TD*%
%TO.C,D21*%
X176212500Y-75468750D03*
X176212500Y-72168750D03*
%TD*%
%TO.C,D18*%
X171450000Y-113568750D03*
X171450000Y-110268750D03*
%TD*%
%TO.C,D1*%
X114300000Y-75468750D03*
X114300000Y-72168750D03*
%TD*%
%TO.C,D4*%
X114300000Y-132618750D03*
X114300000Y-129318750D03*
%TD*%
%TO.C,D19*%
X171450000Y-132618750D03*
X171450000Y-129318750D03*
%TD*%
M02*
