0
SECTION
2
HEADER
9
$INSUNITS
70
4
9
$ACADVER
1
AC1014
9
$HANDSEED
5
FFFF
0
ENDSEC
0
SECTION
2
TABLES
0
TABLE
2
VPORT
5
8
100
AcDbSymbolTable
0
ENDTAB
0
TABLE
2
LTYPE
5
5
100
AcDbSymbolTable
0
LTYPE
5
14
100
AcDbSymbolTableRecord
100
AcDbLinetypeTableRecord
2
BYBLOCK
70
0
0
LTYPE
5
15
100
AcDbSymbolTableRecord
100
AcDbLinetypeTableRecord
2
BYLAYER
70
0
0
LTYPE
5
16
100
AcDbSymbolTableRecord
100
AcDbLinetypeTableRecord
2
DASHED
70
0
3
Dashed __ __ __ __ __ __ __ __ __ __ __ __ __ _
72
65
73
2
40
0.75
49
0.5
74
0
49
-0.25
74
0
0
ENDTAB
0
TABLE
2
LAYER
5
2
100
AcDbSymbolTable
70
2
0
LAYER
5
50
100
AcDbSymbolTableRecord
100
AcDbLayerTableRecord
2
0
70
0
62
7
6
CONTINUOUS
0
ENDTAB
0
TABLE
2
STYLE
5
3
100
AcDbSymbolTable
70
1
0
STYLE
5
11
100
AcDbSymbolTableRecord
100
AcDbTextStyleTableRecord
2
STANDARD
70
0
0
ENDTAB
0
TABLE
2
VIEW
5
6
100
AcDbSymbolTable
70
0
0
ENDTAB
0
TABLE
2
UCS
5
7
100
AcDbSymbolTable
70
0
0
ENDTAB
0
TABLE
2
APPID
5
9
100
AcDbSymbolTable
70
2
0
APPID
5
12
100
AcDbSymbolTableRecord
100
AcDbRegAppTableRecord
2
ACAD
70
0
0
ENDTAB
0
TABLE
2
DIMSTYLE
5
A
100
AcDbSymbolTable
70
1
0
ENDTAB
0
TABLE
2
BLOCK_RECORD
5
1
100
AcDbSymbolTable
70
1
0
BLOCK_RECORD
5
1F
100
AcDbSymbolTableRecord
100
AcDbBlockTableRecord
2
*MODEL_SPACE
0
BLOCK_RECORD
5
1B
100
AcDbSymbolTableRecord
100
AcDbBlockTableRecord
2
*PAPER_SPACE
0
ENDTAB
0
ENDSEC
0
SECTION
2
BLOCKS
0
BLOCK
5
20
100
AcDbEntity
100
AcDbBlockBegin
2
*MODEL_SPACE
0
ENDBLK
5
21
100
AcDbEntity
100
AcDbBlockEnd
0
BLOCK
5
1C
100
AcDbEntity
100
AcDbBlockBegin
2
*PAPER_SPACE
0
ENDBLK
5
1D
100
AcDbEntity
100
AcDbBlockEnd
0
ENDSEC
0
SECTION
2
ENTITIES
0
LWPOLYLINE
5
100
100
AcDbEntity
8
0
100
AcDbPolyline
90
4
70
1
43
0.0
10
-193.12
20
-59.933800000000005
10
-193.12
20
-73.933099999999996
10
-207.11900000000003
20
-73.933099999999996
10
-207.11900000000003
20
-59.933800000000005
0
LWPOLYLINE
5
101
100
AcDbEntity
8
0
100
AcDbPolyline
90
4
70
1
43
0.0
10
-193.12
20
-40.883800000000001
10
-193.12
20
-54.883099999999999
10
-207.11900000000003
20
-54.883099999999999
10
-207.11900000000003
20
-40.883800000000001
0
LWPOLYLINE
5
102
100
AcDbEntity
8
0
100
AcDbPolyline
90
4
70
1
43
0.0
10
-21.669699999999999
20
-2.7836400000000001
10
-21.669699999999999
20
-16.783100000000001
10
-35.669000000000004
20
-16.783100000000001
10
-35.669000000000004
20
-2.7836400000000006
0
LWPOLYLINE
5
103
100
AcDbEntity
8
0
100
AcDbPolyline
90
4
70
1
43
0.0
10
-174.06999999999999
20
-2.7836400000000001
10
-174.06999999999999
20
-16.783100000000001
10
-188.06900000000002
20
-16.783100000000001
10
-188.06900000000002
20
-2.7836400000000006
0
LWPOLYLINE
5
104
100
AcDbEntity
8
0
100
AcDbPolyline
90
4
70
1
43
0.0
10
-135.97000000000003
20
-21.833600000000001
10
-135.97000000000003
20
-35.832999999999998
10
-149.96899999999999
20
-35.832999999999998
10
-149.96899999999999
20
-21.833600000000001
0
LWPOLYLINE
5
105
100
AcDbEntity
8
0
100
AcDbPolyline
90
4
70
1
43
0.0
10
-78.819699999999997
20
-40.883800000000001
10
-78.819699999999997
20
-54.883099999999999
10
-92.819000000000003
20
-54.883099999999999
10
-92.819000000000003
20
-40.883800000000001
0
LWPOLYLINE
5
106
100
AcDbEntity
8
0
100
AcDbPolyline
90
4
70
1
43
0.0
10
-40.719700000000003
20
-21.833600000000001
10
-40.719700000000003
20
-35.832999999999998
10
-54.718999999999994
20
-35.832999999999998
10
-54.718999999999994
20
-21.833600000000001
0
LWPOLYLINE
5
107
100
AcDbEntity
8
0
100
AcDbPolyline
90
4
70
1
43
0.0
10
-78.819699999999997
20
-59.933800000000005
10
-78.819699999999997
20
-73.933099999999996
10
-92.819000000000003
20
-73.933099999999996
10
-92.819000000000003
20
-59.933800000000005
0
LWPOLYLINE
5
108
100
AcDbEntity
8
0
100
AcDbPolyline
90
4
70
1
43
0.0
10
-78.819699999999997
20
-21.833600000000001
10
-78.819699999999997
20
-35.832999999999998
10
-92.819000000000003
20
-35.832999999999998
10
-92.819000000000003
20
-21.833600000000001
0
LWPOLYLINE
5
109
100
AcDbEntity
8
0
100
AcDbPolyline
90
4
70
1
43
0.0
10
-174.06999999999999
20
-21.833600000000001
10
-174.06999999999999
20
-35.832999999999998
10
-188.06900000000002
20
-35.832999999999998
10
-188.06900000000002
20
-21.833600000000001
0
LWPOLYLINE
5
110
100
AcDbEntity
8
0
100
AcDbPolyline
90
4
70
1
43
0.0
10
-97.868300000000019
20
-40.883800000000001
10
-97.868300000000019
20
-54.883099999999999
10
-111.86900000000001
20
-54.883099999999999
10
-111.86900000000001
20
-40.883800000000001
0
LWPOLYLINE
5
111
100
AcDbEntity
8
0
100
AcDbPolyline
90
4
70
1
43
0.0
10
-116.91800000000001
20
-21.833600000000001
10
-116.91800000000001
20
-35.832999999999998
10
-130.91899999999998
20
-35.832999999999998
10
-130.91899999999998
20
-21.833600000000001
0
LWPOLYLINE
5
112
100
AcDbEntity
8
0
100
AcDbPolyline
90
4
70
1
43
0.0
10
-97.868300000000019
20
-21.833600000000001
10
-97.868300000000019
20
-35.832999999999998
10
-111.86900000000001
20
-35.832999999999998
10
-111.86900000000001
20
-21.833600000000001
0
LWPOLYLINE
5
113
100
AcDbEntity
8
0
100
AcDbPolyline
90
4
70
1
43
0.0
10
-21.669699999999999
20
-59.933800000000005
10
-21.669699999999999
20
-73.933099999999996
10
-35.669000000000004
20
-73.933099999999996
10
-35.669000000000004
20
-59.933800000000005
0
LWPOLYLINE
5
114
100
AcDbEntity
8
0
100
AcDbPolyline
90
4
70
1
43
0.0
10
-21.669699999999999
20
-21.833600000000001
10
-21.669699999999999
20
-35.832999999999998
10
-35.669000000000004
20
-35.832999999999998
10
-35.669000000000004
20
-21.833600000000001
0
LWPOLYLINE
5
115
100
AcDbEntity
8
0
100
AcDbPolyline
90
4
70
1
43
0.0
10
-59.769700000000007
20
-21.833600000000001
10
-59.769700000000007
20
-35.832999999999998
10
-73.768999999999991
20
-35.832999999999998
10
-73.768999999999991
20
-21.833600000000001
0
LWPOLYLINE
5
116
100
AcDbEntity
8
0
100
AcDbPolyline
90
4
70
1
43
0.0
10
-116.91800000000001
20
-59.933800000000005
10
-116.91800000000001
20
-73.933099999999996
10
-130.91899999999998
20
-73.933099999999996
10
-130.91899999999998
20
-59.933800000000005
0
LWPOLYLINE
5
117
100
AcDbEntity
8
0
100
AcDbPolyline
90
4
70
1
43
0.0
10
-212.16999999999999
20
-21.833600000000001
10
-212.16999999999999
20
-35.832999999999998
10
-226.16900000000001
20
-35.832999999999998
10
-226.16900000000001
20
-21.833600000000001
0
LWPOLYLINE
5
118
100
AcDbEntity
8
0
100
AcDbPolyline
90
4
70
1
43
0.0
10
-59.769700000000007
20
-40.883800000000001
10
-59.769700000000007
20
-54.883099999999999
10
-73.768999999999991
20
-54.883099999999999
10
-73.768999999999991
20
-40.883800000000001
0
LWPOLYLINE
5
119
100
AcDbEntity
8
0
100
AcDbPolyline
90
4
70
1
43
0.0
10
-212.16999999999999
20
-2.7836400000000001
10
-212.16999999999999
20
-16.783100000000001
10
-226.16900000000001
20
-16.783100000000001
10
-226.16900000000001
20
-2.7836400000000006
0
LWPOLYLINE
5
120
100
AcDbEntity
8
0
100
AcDbPolyline
90
4
70
1
43
0.0
10
-193.12
20
-2.7836400000000001
10
-193.12
20
-16.783100000000001
10
-207.11900000000003
20
-16.783100000000001
10
-207.11900000000003
20
-2.7836400000000006
0
LWPOLYLINE
5
121
100
AcDbEntity
8
0
100
AcDbPolyline
90
44
70
1
43
0.0
10
-121.39400000000001
20
-16.783100000000001
10
-121.39400000000001
20
-12.082600000000001
10
-122.92000000000002
20
-12.082600000000001
10
-122.92000000000002
20
-15.312799999999999
10
-124.64500000000001
20
-15.312799999999999
10
-124.64500000000001
20
-16.234700000000004
10
-127.94400000000002
20
-16.234700000000004
10
-127.94400000000002
20
-15.312799999999999
10
-129.66899999999998
20
-15.312799999999999
10
-129.66899999999998
20
-12.082600000000001
10
-130.495
20
-12.082600000000001
10
-130.495
20
-9.2838399999999996
10
-129.66899999999998
20
-9.2838399999999996
10
-129.66899999999998
20
-3.0137700000000001
10
-127.94400000000002
20
-3.0137700000000001
10
-127.94400000000002
20
-2.03261
10
-124.64500000000001
20
-2.03261
10
-124.64500000000001
20
-3.0137700000000001
10
-122.92000000000002
20
-3.0137700000000001
10
-122.92000000000002
20
-7.482730000000001
10
-121.39400000000001
20
-7.482730000000001
10
-121.39400000000001
20
-2.7836400000000001
10
-107.395
20
-2.7836400000000001
10
-107.395
20
-7.482730000000001
10
-105.869
20
-7.482730000000001
10
-105.869
20
-3.0137700000000001
10
-104.14400000000001
20
-3.0137700000000001
10
-104.14400000000001
20
-2.03261
10
-100.845
20
-2.03261
10
-100.845
20
-3.0137700000000001
10
-99.118200000000002
20
-3.0137700000000001
10
-99.118200000000002
20
-9.2838399999999996
10
-98.294100000000014
20
-9.2838399999999996
10
-98.294100000000014
20
-12.082600000000001
10
-99.118200000000002
20
-12.082600000000001
10
-99.118200000000002
20
-15.312799999999999
10
-100.845
20
-15.312799999999999
10
-100.845
20
-16.234700000000004
10
-104.14400000000001
20
-16.234700000000004
10
-104.14400000000001
20
-15.312799999999999
10
-105.869
20
-15.312799999999999
10
-105.869
20
-12.082600000000001
10
-107.395
20
-12.082600000000001
10
-107.395
20
-16.783100000000001
0
LWPOLYLINE
5
122
100
AcDbEntity
8
0
100
AcDbPolyline
90
4
70
1
43
0.0
10
-2.61965
20
-40.883800000000001
10
-2.61965
20
-54.883099999999999
10
-16.619199999999999
20
-54.883099999999999
10
-16.619199999999999
20
-40.883800000000001
0
LWPOLYLINE
5
123
100
AcDbEntity
8
0
100
AcDbPolyline
90
4
70
1
43
0.0
10
-174.06999999999999
20
-59.933800000000005
10
-174.06999999999999
20
-73.933099999999996
10
-188.06900000000002
20
-73.933099999999996
10
-188.06900000000002
20
-59.933800000000005
0
LWPOLYLINE
5
124
100
AcDbEntity
8
0
100
AcDbPolyline
90
4
70
1
43
0.0
10
-21.669699999999999
20
-40.883800000000001
10
-21.669699999999999
20
-54.883099999999999
10
-35.669000000000004
20
-54.883099999999999
10
-35.669000000000004
20
-40.883800000000001
0
LWPOLYLINE
5
125
100
AcDbEntity
8
0
100
AcDbPolyline
90
4
70
1
43
0.0
10
-155.02000000000004
20
-2.7836400000000001
10
-155.02000000000004
20
-16.783100000000001
10
-169.01900000000001
20
-16.783100000000001
10
-169.01900000000001
20
-2.7836400000000006
0
LWPOLYLINE
5
126
100
AcDbEntity
8
0
100
AcDbPolyline
90
4
70
1
43
0.0
10
-2.61965
20
-2.7836400000000001
10
-2.61965
20
-16.783100000000001
10
-16.619199999999999
20
-16.783100000000001
10
-16.619199999999999
20
-2.7836400000000006
0
LWPOLYLINE
5
127
100
AcDbEntity
8
0
100
AcDbPolyline
90
4
70
1
43
0.0
10
-59.769700000000007
20
-2.7836400000000001
10
-59.769700000000007
20
-16.783100000000001
10
-73.768999999999991
20
-16.783100000000001
10
-73.768999999999991
20
-2.7836400000000006
0
LWPOLYLINE
5
128
100
AcDbEntity
8
0
100
AcDbPolyline
90
4
70
1
43
0.0
10
-40.719700000000003
20
-40.883800000000001
10
-40.719700000000003
20
-54.883099999999999
10
-54.718999999999994
20
-54.883099999999999
10
-54.718999999999994
20
-40.883800000000001
0
LWPOLYLINE
5
129
100
AcDbEntity
8
0
100
AcDbPolyline
90
4
70
1
43
0.0
10
-193.12
20
-21.833600000000001
10
-193.12
20
-35.832999999999998
10
-207.11900000000003
20
-35.832999999999998
10
-207.11900000000003
20
-21.833600000000001
0
LWPOLYLINE
5
130
100
AcDbEntity
8
0
100
AcDbPolyline
90
4
70
1
43
0.0
10
-59.769700000000007
20
-59.933800000000005
10
-59.769700000000007
20
-73.933099999999996
10
-73.768999999999991
20
-73.933099999999996
10
-73.768999999999991
20
-59.933800000000005
0
LWPOLYLINE
5
131
100
AcDbEntity
8
0
100
AcDbPolyline
90
4
70
1
43
0.0
10
-2.61965
20
-21.833600000000001
10
-2.61965
20
-35.832999999999998
10
-16.619199999999999
20
-35.832999999999998
10
-16.619199999999999
20
-21.833600000000001
0
LWPOLYLINE
5
132
100
AcDbEntity
8
0
100
AcDbPolyline
90
4
70
1
43
0.0
10
-78.819699999999997
20
-2.7836400000000001
10
-78.819699999999997
20
-16.783100000000001
10
-92.819000000000003
20
-16.783100000000001
10
-92.819000000000003
20
-2.7836400000000006
0
LWPOLYLINE
5
133
100
AcDbEntity
8
0
100
AcDbPolyline
90
4
70
1
43
0.0
10
-40.719700000000003
20
-59.933800000000005
10
-40.719700000000003
20
-73.933099999999996
10
-54.718999999999994
20
-73.933099999999996
10
-54.718999999999994
20
-59.933800000000005
0
LWPOLYLINE
5
134
100
AcDbEntity
8
0
100
AcDbPolyline
90
4
70
1
43
0.0
10
-155.02000000000004
20
-40.883800000000001
10
-155.02000000000004
20
-54.883099999999999
10
-169.01900000000001
20
-54.883099999999999
10
-169.01900000000001
20
-40.883800000000001
0
LWPOLYLINE
5
135
100
AcDbEntity
8
0
100
AcDbPolyline
90
4
70
1
43
0.0
10
-174.06999999999999
20
-40.883800000000001
10
-174.06999999999999
20
-54.883099999999999
10
-188.06900000000002
20
-54.883099999999999
10
-188.06900000000002
20
-40.883800000000001
0
LWPOLYLINE
5
136
100
AcDbEntity
8
0
100
AcDbPolyline
90
4
70
1
43
0.0
10
-116.91800000000001
20
-40.883800000000001
10
-116.91800000000001
20
-54.883099999999999
10
-130.91899999999998
20
-54.883099999999999
10
-130.91899999999998
20
-40.883800000000001
0
LWPOLYLINE
5
137
100
AcDbEntity
8
0
100
AcDbPolyline
90
4
70
1
43
0.0
10
-2.61965
20
-59.933800000000005
10
-2.61965
20
-73.933099999999996
10
-16.619199999999999
20
-73.933099999999996
10
-16.619199999999999
20
-59.933800000000005
0
LWPOLYLINE
5
138
100
AcDbEntity
8
0
100
AcDbPolyline
90
4
70
1
43
0.0
10
-135.97000000000003
20
-40.883800000000001
10
-135.97000000000003
20
-54.883099999999999
10
-149.96899999999999
20
-54.883099999999999
10
-149.96899999999999
20
-40.883800000000001
0
LWPOLYLINE
5
139
100
AcDbEntity
8
0
100
AcDbPolyline
90
4
70
1
43
0.0
10
-155.02000000000004
20
-21.833600000000001
10
-155.02000000000004
20
-35.832999999999998
10
-169.01900000000001
20
-35.832999999999998
10
-169.01900000000001
20
-21.833600000000001
0
LWPOLYLINE
5
140
100
AcDbEntity
8
0
100
AcDbPolyline
90
4
70
1
43
0.0
10
-97.868300000000019
20
-59.933800000000005
10
-97.868300000000019
20
-73.933099999999996
10
-111.86900000000001
20
-73.933099999999996
10
-111.86900000000001
20
-59.933800000000005
0
LWPOLYLINE
5
141
100
AcDbEntity
8
0
100
AcDbPolyline
90
4
70
1
43
0.0
10
-155.02000000000004
20
-59.933800000000005
10
-155.02000000000004
20
-73.933099999999996
10
-169.01900000000001
20
-73.933099999999996
10
-169.01900000000001
20
-59.933800000000005
0
LWPOLYLINE
5
142
100
AcDbEntity
8
0
100
AcDbPolyline
90
4
70
1
43
0.0
10
-135.97000000000003
20
-59.933800000000005
10
-135.97000000000003
20
-73.933099999999996
10
-149.96899999999999
20
-73.933099999999996
10
-149.96899999999999
20
-59.933800000000005
0
LWPOLYLINE
5
143
100
AcDbEntity
8
0
100
AcDbPolyline
90
4
70
1
43
0.0
10
-40.719700000000003
20
-2.7836400000000001
10
-40.719700000000003
20
-16.783100000000001
10
-54.718999999999994
20
-16.783100000000001
10
-54.718999999999994
20
-2.7836400000000006
0
LWPOLYLINE
5
144
100
AcDbEntity
8
0
100
AcDbPolyline
90
4
70
1
43
0.0
10
-135.97000000000003
20
-2.7836400000000001
10
-135.97000000000003
20
-16.783100000000001
10
-149.96899999999999
20
-16.783100000000001
10
-149.96899999999999
20
-2.7836400000000006
0
LWPOLYLINE
5
145
100
AcDbEntity
8
0
100
AcDbPolyline
90
4
70
1
43
0.0
10
-212.16999999999999
20
-40.883800000000001
10
-212.16999999999999
20
-54.883099999999999
10
-226.16900000000001
20
-54.883099999999999
10
-226.16900000000001
20
-40.883800000000001
0
LWPOLYLINE
5
146
100
AcDbEntity
8
0
100
AcDbPolyline
90
4
70
1
43
0.0
10
-212.16999999999999
20
-59.933800000000005
10
-212.16999999999999
20
-73.933099999999996
10
-226.16900000000001
20
-73.933099999999996
10
-226.16900000000001
20
-59.933800000000005
0
LWPOLYLINE
5
147
100
AcDbEntity
8
0
100
AcDbPolyline
90
8
70
1
43
0.0
10
-230.91900000000004
20
-74.933099999999953
10
-225.91900000000004
20
-79.933099999999953
10
-2.8696499999999858
20
-79.933099999999982
10
2.1303500000000142
20
-74.933099999999982
10
2.1303499999999786
20
-1.783639999999993
10
-2.8696500000000214
20
3.216360000000007
10
-225.91900000000004
20
3.216360000000007
10
-230.91900000000004
20
-1.783639999999993
0
ENDSEC
0
SECTION
2
OBJECTS
0
DICTIONARY
5
C
100
AcDbDictionary
3
ACAD_GROUP
350
D
3
ACAD_MLINESTYLE
350
17
0
DICTIONARY
5
D
100
AcDbDictionary
0
DICTIONARY
5
1A
330
C
100
AcDbDictionary
0
DICTIONARY
5
17
100
AcDbDictionary
0
ENDSEC
0
EOF
